<svg width="800" height="520" viewBox="0 0 800 520" fill="none" xmlns="http://www.w3.org/2000/svg">
<g clip-path="url(#clip0_1_9)">
<path d="M800 0H0V520H800V0Z" fill="url(#paint0_linear_1_9)"/>
<path d="M172 148H92C80.9543 148 72 156.954 72 168V248C72 259.046 80.9543 268 92 268H172C183.046 268 192 259.046 192 248V168C192 156.954 183.046 148 172 148Z" stroke="#276EF1" stroke-opacity="0.85" stroke-width="2"/>
<path d="M89.0455 219V188.455H95.5036V201.923H95.9062L106.898 188.455H114.639L103.304 202.131L114.773 219H107.048L98.6804 206.442L95.5036 210.32V219H89.0455ZM118.002 219V188.455H124.461V213.675H137.556V219H118.002ZM141.833 188.455H149.797L158.209 208.977H158.567L166.979 188.455H174.943V219H168.679V199.119H168.426L160.521 218.851H156.255L148.35 199.044H148.097V219H141.833V188.455Z" fill="#276EF1"/>
<path d="M75.7713 335H72.4759L77.4972 320.455H81.4602L86.4744 335H83.179L79.5355 323.778H79.4219L75.7713 335ZM75.5653 329.283H83.3494V331.683H75.5653V329.283ZM91.3004 320.455V335H88.2251V320.455H91.3004ZM106.35 324.638C106.293 324.065 106.049 323.62 105.619 323.303C105.188 322.985 104.603 322.827 103.864 322.827C103.362 322.827 102.939 322.898 102.593 323.04C102.247 323.177 101.982 323.369 101.798 323.615C101.618 323.861 101.528 324.141 101.528 324.453C101.518 324.714 101.573 324.941 101.691 325.135C101.814 325.329 101.982 325.497 102.195 325.639C102.408 325.777 102.655 325.897 102.934 326.001C103.213 326.101 103.512 326.186 103.829 326.257L105.136 326.57C105.77 326.712 106.353 326.901 106.883 327.138C107.413 327.375 107.872 327.666 108.261 328.011C108.649 328.357 108.95 328.764 109.163 329.233C109.38 329.702 109.492 330.239 109.496 330.845C109.492 331.735 109.264 332.507 108.815 333.161C108.37 333.809 107.726 334.313 106.883 334.673C106.045 335.028 105.034 335.206 103.85 335.206C102.676 335.206 101.653 335.026 100.782 334.666C99.9155 334.306 99.2384 333.774 98.7507 333.068C98.2678 332.358 98.0144 331.48 97.9908 330.433H100.967C101 330.921 101.139 331.328 101.386 331.655C101.637 331.977 101.97 332.221 102.387 332.386C102.808 332.547 103.284 332.628 103.815 332.628C104.335 332.628 104.788 332.552 105.171 332.401C105.559 332.249 105.86 332.038 106.073 331.768C106.286 331.499 106.393 331.188 106.393 330.838C106.393 330.511 106.296 330.237 106.102 330.014C105.912 329.792 105.633 329.602 105.263 329.446C104.899 329.29 104.451 329.148 103.921 329.02L102.337 328.622C101.111 328.324 100.143 327.857 99.4325 327.223C98.7223 326.589 98.3696 325.734 98.3743 324.659C98.3696 323.778 98.6039 323.009 99.0774 322.351C99.5556 321.693 100.211 321.179 101.045 320.81C101.878 320.44 102.825 320.256 103.886 320.256C104.965 320.256 105.907 320.44 106.712 320.81C107.522 321.179 108.152 321.693 108.602 322.351C109.051 323.009 109.283 323.771 109.298 324.638H106.35ZM111.565 335V320.455H121.366V322.99H114.64V326.456H120.862V328.991H114.64V332.464H121.395V335H111.565ZM123.811 335V320.455H129.55C130.648 320.455 131.586 320.651 132.362 321.044C133.143 321.432 133.738 321.984 134.145 322.699C134.557 323.409 134.763 324.245 134.763 325.206C134.763 326.172 134.554 327.003 134.138 327.699C133.721 328.39 133.117 328.92 132.327 329.29C131.541 329.659 130.589 329.844 129.472 329.844H125.629V327.372H128.974C129.562 327.372 130.049 327.292 130.438 327.131C130.826 326.97 131.115 326.728 131.304 326.406C131.498 326.084 131.595 325.684 131.595 325.206C131.595 324.723 131.498 324.316 131.304 323.984C131.115 323.653 130.823 323.402 130.43 323.232C130.042 323.056 129.552 322.969 128.96 322.969H126.886V335H123.811ZM131.666 328.381L135.281 335H131.886L128.349 328.381H131.666ZM139.173 320.455L142.689 331.506H142.824L146.347 320.455H149.756L144.741 335H140.778L135.757 320.455H139.173ZM154.582 320.455V335H151.506V320.455H154.582ZM169.946 325.547H166.835C166.778 325.144 166.662 324.787 166.487 324.474C166.312 324.157 166.087 323.887 165.812 323.665C165.538 323.442 165.22 323.272 164.86 323.153C164.505 323.035 164.119 322.976 163.703 322.976C162.95 322.976 162.294 323.163 161.735 323.537C161.177 323.906 160.743 324.446 160.436 325.156C160.128 325.862 159.974 326.719 159.974 327.727C159.974 328.764 160.128 329.635 160.436 330.341C160.748 331.046 161.184 331.579 161.743 331.939C162.301 332.299 162.948 332.479 163.681 332.479C164.093 332.479 164.475 332.424 164.825 332.315C165.18 332.206 165.495 332.048 165.77 331.839C166.044 331.626 166.271 331.368 166.451 331.065C166.636 330.762 166.764 330.417 166.835 330.028L169.946 330.043C169.865 330.71 169.664 331.354 169.342 331.974C169.025 332.59 168.596 333.142 168.056 333.629C167.521 334.112 166.882 334.496 166.139 334.78C165.4 335.059 164.565 335.199 163.632 335.199C162.334 335.199 161.174 334.905 160.152 334.318C159.134 333.731 158.329 332.881 157.737 331.768C157.15 330.656 156.856 329.309 156.856 327.727C156.856 326.141 157.154 324.792 157.751 323.679C158.348 322.566 159.157 321.719 160.18 321.136C161.203 320.549 162.353 320.256 163.632 320.256C164.475 320.256 165.256 320.374 165.975 320.611C166.7 320.848 167.342 321.193 167.9 321.648C168.459 322.098 168.913 322.649 169.264 323.303C169.619 323.956 169.846 324.704 169.946 325.547ZM172.151 335V320.455H181.952V322.99H175.226V326.456H181.448V328.991H175.226V332.464H181.98V335H172.151ZM198.01 320.455H201.086V329.901C201.086 330.961 200.832 331.889 200.326 332.685C199.824 333.48 199.121 334.1 198.216 334.545C197.312 334.986 196.258 335.206 195.056 335.206C193.848 335.206 192.792 334.986 191.888 334.545C190.984 334.1 190.281 333.48 189.779 332.685C189.277 331.889 189.026 330.961 189.026 329.901V320.455H192.101V329.638C192.101 330.192 192.222 330.684 192.463 331.115C192.71 331.546 193.055 331.884 193.5 332.131C193.945 332.377 194.464 332.5 195.056 332.5C195.652 332.5 196.171 332.377 196.611 332.131C197.056 331.884 197.4 331.546 197.641 331.115C197.887 330.684 198.01 330.192 198.01 329.638V320.455ZM206.691 320.455V335H203.616V320.455H206.691ZM215.5 319.773L210.812 337.188H208.206L212.893 319.773H215.5ZM225.999 320.455H229.074V329.901C229.074 330.961 228.821 331.889 228.314 332.685C227.812 333.48 227.109 334.1 226.205 334.545C225.3 334.986 224.247 335.206 223.044 335.206C221.837 335.206 220.781 334.986 219.876 334.545C218.972 334.1 218.269 333.48 217.767 332.685C217.265 331.889 217.014 330.961 217.014 329.901V320.455H220.089V329.638C220.089 330.192 220.21 330.684 220.452 331.115C220.698 331.546 221.044 331.884 221.489 332.131C221.934 332.377 222.452 332.5 223.044 332.5C223.641 332.5 224.159 332.377 224.599 332.131C225.045 331.884 225.388 331.546 225.629 331.115C225.875 330.684 225.999 330.192 225.999 329.638V320.455ZM234.488 320.455L237.421 325.412H237.534L240.482 320.455H243.955L239.516 327.727L244.054 335H240.517L237.534 330.036H237.421L234.438 335H230.915L235.468 327.727L231 320.455H234.488Z" fill="#276EF1"/>
<path d="M93.624 342.542H98.146V366.07H93.624V342.542ZM96.888 352.13H102.328V355.87H96.888V352.13ZM73.394 345.84H91.89V349.376H73.394V345.84ZM82.642 350.498C84.1607 350.498 85.498 350.759 86.654 351.28C87.8327 351.779 88.7507 352.493 89.408 353.422C90.0653 354.329 90.394 355.371 90.394 356.55C90.394 357.751 90.0653 358.817 89.408 359.746C88.7507 360.653 87.8327 361.367 86.654 361.888C85.498 362.387 84.1607 362.636 82.642 362.636C81.146 362.636 79.8087 362.387 78.63 361.888C77.4513 361.367 76.5333 360.653 75.876 359.746C75.2187 358.817 74.89 357.751 74.89 356.55C74.89 355.371 75.2187 354.329 75.876 353.422C76.5333 352.493 77.4513 351.779 78.63 351.28C79.8087 350.759 81.146 350.498 82.642 350.498ZM82.642 353.932C81.6447 353.932 80.8287 354.159 80.194 354.612C79.5593 355.065 79.242 355.723 79.242 356.584C79.242 357.423 79.5593 358.069 80.194 358.522C80.8287 358.975 81.6447 359.202 82.642 359.202C83.662 359.202 84.478 358.975 85.09 358.522C85.7247 358.069 86.042 357.423 86.042 356.584C86.042 355.723 85.7247 355.065 85.09 354.612C84.478 354.159 83.662 353.932 82.642 353.932ZM80.398 342.508H84.886V347.54H80.398V342.508ZM77.848 369.844H99.268V373.482H77.848V369.844ZM77.848 364.302H82.404V371.408H77.848V364.302ZM108.173 343.868H128.097V347.472H108.173V343.868ZM104.671 354.714H133.197V358.352H104.671V354.714ZM116.639 357.264H121.127V363.86H116.639V357.264ZM125.377 343.868H129.831V346.384C129.831 347.744 129.786 349.24 129.695 350.872C129.627 352.481 129.344 354.317 128.845 356.38L124.425 355.972C124.901 353.932 125.173 352.164 125.241 350.668C125.332 349.149 125.377 347.721 125.377 346.384V343.868ZM107.527 362.772H129.899V374.026H125.377V366.342H107.527V362.772ZM139.145 343.12H159.103V346.554H139.145V343.12ZM136.017 355.428H164.339V358.93H136.017V355.428ZM146.557 352.606H151.079V357.094H146.557V352.606ZM156.689 343.12H161.177V345.126C161.177 346.214 161.154 347.506 161.109 349.002C161.063 350.498 160.859 352.221 160.497 354.17L156.043 353.932C156.36 352.005 156.541 350.328 156.587 348.9C156.655 347.472 156.689 346.214 156.689 345.126V343.12ZM158.083 348.016V351.076L138.805 351.892L138.295 348.424L158.083 348.016ZM139.179 360.562H160.939V368.654H143.701V371.408H139.213V365.526H156.485V363.86H139.179V360.562ZM139.213 370.15H161.789V373.55H139.213V370.15ZM168.178 345.466H183.24V366.342H168.178V345.466ZM178.786 349.036H172.632V362.806H178.786V349.036ZM187.32 342.542H191.876V374.026H187.32V342.542ZM190.89 354.408H196.432V358.114H190.89V354.408ZM211.39 371H205.787L214.324 346.273H221.061L229.585 371H223.983L217.789 351.923H217.596L211.39 371ZM211.04 361.281H224.273V365.362H211.04V361.281ZM237.789 346.273V371H232.561V346.273H237.789ZM265.083 352.368H273.379V356.006H265.083V352.368ZM256.515 344.922H260.153V349.512C260.153 351.484 259.983 353.399 259.643 355.258C259.303 357.117 258.781 358.851 258.079 360.46C257.376 362.069 256.481 363.486 255.393 364.71C254.327 365.934 253.058 366.92 251.585 367.668L248.763 364.064C250.1 363.429 251.245 362.602 252.197 361.582C253.171 360.562 253.976 359.406 254.611 358.114C255.268 356.799 255.744 355.417 256.039 353.966C256.356 352.493 256.515 351.008 256.515 349.512V344.922ZM257.433 344.922H261.037V349.512C261.037 350.985 261.184 352.447 261.479 353.898C261.773 355.326 262.215 356.663 262.805 357.91C263.417 359.157 264.199 360.267 265.151 361.242C266.103 362.194 267.236 362.965 268.551 363.554L265.831 367.158C264.357 366.433 263.088 365.481 262.023 364.302C260.957 363.101 260.085 361.729 259.405 360.188C258.747 358.647 258.249 356.969 257.909 355.156C257.591 353.343 257.433 351.461 257.433 349.512V344.922ZM271.101 342.474H275.623V374.06H271.101V342.474ZM302.072 342.474H306.594V374.06H302.072V342.474ZM282.012 344.99H286.5V352.674H293.028V344.99H297.516V366.716H282.012V344.99ZM286.5 356.176V363.112H293.028V356.176H286.5ZM323.455 344.344H327.365V346.622C327.365 347.982 327.173 349.308 326.787 350.6C326.425 351.869 325.881 353.071 325.155 354.204C324.43 355.337 323.535 356.369 322.469 357.298C321.427 358.205 320.225 358.987 318.865 359.644C317.505 360.301 316.009 360.789 314.377 361.106L312.439 357.332C313.845 357.083 315.125 356.709 316.281 356.21C317.46 355.689 318.491 355.065 319.375 354.34C320.259 353.615 321.007 352.833 321.619 351.994C322.231 351.133 322.685 350.249 322.979 349.342C323.297 348.413 323.455 347.506 323.455 346.622V344.344ZM324.339 344.344H328.283V346.622C328.283 347.529 328.431 348.447 328.725 349.376C329.043 350.305 329.496 351.201 330.085 352.062C330.697 352.901 331.445 353.671 332.329 354.374C333.213 355.077 334.233 355.689 335.389 356.21C336.545 356.709 337.849 357.083 339.299 357.332L337.361 361.106C335.729 360.789 334.233 360.301 332.873 359.644C331.513 358.987 330.301 358.205 329.235 357.298C328.193 356.391 327.297 355.371 326.549 354.238C325.824 353.105 325.269 351.892 324.883 350.6C324.521 349.308 324.339 347.982 324.339 346.622V344.344ZM311.759 366.478H340.285V370.184H311.759V366.478Z" fill="white"/>
</g>
<defs>
<linearGradient id="paint0_linear_1_9" x1="0" y1="0" x2="475.22" y2="731.107" gradientUnits="userSpaceOnUse">
<stop stop-color="#0F172A"/>
<stop offset="1" stop-color="#182B4A"/>
</linearGradient>
<clipPath id="clip0_1_9">
<rect width="800" height="520" fill="white"/>
</clipPath>
</defs>
</svg>
