<svg width="800" height="520" viewBox="0 0 800 520" fill="none" xmlns="http://www.w3.org/2000/svg">
<g clip-path="url(#clip0_5_16)">
<path d="M800 0H0V520H800V0Z" fill="url(#paint0_linear_5_16)"/>
<path d="M172 148H92C80.9543 148 72 156.954 72 168V248C72 259.046 80.9543 268 92 268H172C183.046 268 192 259.046 192 248V168C192 156.954 183.046 148 172 148Z" stroke="#266EF0" stroke-opacity="0.85" stroke-width="2"/>
<path d="M118.325 219H111.405L121.949 188.455H130.272L140.802 219H133.881L126.23 195.435H125.991L118.325 219ZM117.892 206.994H134.239V212.035H117.892V206.994ZM150.936 188.455V219H144.478V188.455H150.936Z" fill="#266EF0"/>
<path d="M73.2642 335V320.455H79.0028C80.1061 320.455 81.0459 320.665 81.8224 321.087C82.599 321.503 83.1908 322.083 83.598 322.827C84.0099 323.565 84.2159 324.418 84.2159 325.384C84.2159 326.349 84.0076 327.202 83.5909 327.94C83.1742 328.679 82.5705 329.254 81.7798 329.666C80.9938 330.078 80.0421 330.284 78.9247 330.284H75.267V327.82H78.4276C79.0194 327.82 79.5071 327.718 79.8906 327.514C80.2789 327.306 80.5677 327.019 80.7571 326.655C80.9512 326.286 81.0483 325.862 81.0483 325.384C81.0483 324.901 80.9512 324.479 80.7571 324.119C80.5677 323.755 80.2789 323.473 79.8906 323.274C79.5024 323.071 79.0099 322.969 78.4134 322.969H76.3395V335H73.2642ZM86.2134 335V320.455H91.9521C93.0505 320.455 93.988 320.651 94.7646 321.044C95.5458 321.432 96.14 321.984 96.5472 322.699C96.9592 323.409 97.1651 324.245 97.1651 325.206C97.1651 326.172 96.9568 327.003 96.5401 327.699C96.1235 328.39 95.5198 328.92 94.729 329.29C93.9431 329.659 92.9914 329.844 91.8739 329.844H88.0316V327.372H91.3768C91.9639 327.372 92.4516 327.292 92.8398 327.131C93.2281 326.97 93.5169 326.728 93.7063 326.406C93.9004 326.084 93.9975 325.684 93.9975 325.206C93.9975 324.723 93.9004 324.316 93.7063 323.984C93.5169 323.653 93.2257 323.402 92.8327 323.232C92.4445 323.056 91.9544 322.969 91.3626 322.969H89.2887V335H86.2134ZM94.0685 328.381L97.6836 335H94.2887L90.7518 328.381H94.0685ZM112.705 327.727C112.705 329.313 112.404 330.663 111.803 331.776C111.206 332.888 110.392 333.738 109.36 334.325C108.332 334.908 107.177 335.199 105.894 335.199C104.601 335.199 103.441 334.905 102.414 334.318C101.386 333.731 100.574 332.881 99.9776 331.768C99.381 330.656 99.0827 329.309 99.0827 327.727C99.0827 326.141 99.381 324.792 99.9776 323.679C100.574 322.566 101.386 321.719 102.414 321.136C103.441 320.549 104.601 320.256 105.894 320.256C107.177 320.256 108.332 320.549 109.36 321.136C110.392 321.719 111.206 322.566 111.803 323.679C112.404 324.792 112.705 326.141 112.705 327.727ZM109.587 327.727C109.587 326.7 109.433 325.833 109.125 325.128C108.822 324.422 108.394 323.887 107.84 323.523C107.286 323.158 106.637 322.976 105.894 322.976C105.15 322.976 104.502 323.158 103.948 323.523C103.394 323.887 102.963 324.422 102.655 325.128C102.352 325.833 102.201 326.7 102.201 327.727C102.201 328.755 102.352 329.621 102.655 330.327C102.963 331.032 103.394 331.567 103.948 331.932C104.502 332.296 105.15 332.479 105.894 332.479C106.637 332.479 107.286 332.296 107.84 331.932C108.394 331.567 108.822 331.032 109.125 330.327C109.433 329.621 109.587 328.755 109.587 327.727ZM114.983 335V320.455H120.722C121.825 320.455 122.765 320.665 123.541 321.087C124.318 321.503 124.91 322.083 125.317 322.827C125.729 323.565 125.935 324.418 125.935 325.384C125.935 326.349 125.726 327.202 125.31 327.94C124.893 328.679 124.289 329.254 123.499 329.666C122.713 330.078 121.761 330.284 120.643 330.284H116.986V327.82H120.146C120.738 327.82 121.226 327.718 121.609 327.514C121.998 327.306 122.286 327.019 122.476 326.655C122.67 326.286 122.767 325.862 122.767 325.384C122.767 324.901 122.67 324.479 122.476 324.119C122.286 323.755 121.998 323.473 121.609 323.274C121.221 323.071 120.729 322.969 120.132 322.969H118.058V335H114.983ZM141.299 327.727C141.299 329.313 140.998 330.663 140.397 331.776C139.8 332.888 138.986 333.738 137.953 334.325C136.926 334.908 135.771 335.199 134.488 335.199C133.195 335.199 132.035 334.905 131.007 334.318C129.98 333.731 129.168 332.881 128.571 331.768C127.975 330.656 127.676 329.309 127.676 327.727C127.676 326.141 127.975 324.792 128.571 323.679C129.168 322.566 129.98 321.719 131.007 321.136C132.035 320.549 133.195 320.256 134.488 320.256C135.771 320.256 136.926 320.549 137.953 321.136C138.986 321.719 139.8 322.566 140.397 323.679C140.998 324.792 141.299 326.141 141.299 327.727ZM138.181 327.727C138.181 326.7 138.027 325.833 137.719 325.128C137.416 324.422 136.988 323.887 136.434 323.523C135.88 323.158 135.231 322.976 134.488 322.976C133.744 322.976 133.096 323.158 132.542 323.523C131.988 323.887 131.557 324.422 131.249 325.128C130.946 325.833 130.794 326.7 130.794 327.727C130.794 328.755 130.946 329.621 131.249 330.327C131.557 331.032 131.988 331.567 132.542 331.932C133.096 332.296 133.744 332.479 134.488 332.479C135.231 332.479 135.88 332.296 136.434 331.932C136.988 331.567 137.416 331.032 137.719 330.327C138.027 329.621 138.181 328.755 138.181 327.727ZM151.467 324.638C151.411 324.065 151.167 323.62 150.736 323.303C150.305 322.985 149.72 322.827 148.982 322.827C148.48 322.827 148.056 322.898 147.71 323.04C147.365 323.177 147.099 323.369 146.915 323.615C146.735 323.861 146.645 324.141 146.645 324.453C146.635 324.714 146.69 324.941 146.808 325.135C146.931 325.329 147.099 325.497 147.312 325.639C147.526 325.777 147.772 325.897 148.051 326.001C148.33 326.101 148.629 326.186 148.946 326.257L150.253 326.57C150.887 326.712 151.47 326.901 152 327.138C152.53 327.375 152.99 327.666 153.378 328.011C153.766 328.357 154.067 328.764 154.28 329.233C154.498 329.702 154.609 330.239 154.614 330.845C154.609 331.735 154.382 332.507 153.932 333.161C153.487 333.809 152.843 334.313 152 334.673C151.162 335.028 150.151 335.206 148.967 335.206C147.793 335.206 146.77 335.026 145.899 334.666C145.033 334.306 144.356 333.774 143.868 333.068C143.385 332.358 143.132 331.48 143.108 330.433H146.084C146.117 330.921 146.257 331.328 146.503 331.655C146.754 331.977 147.088 332.221 147.504 332.386C147.926 332.547 148.402 332.628 148.932 332.628C149.453 332.628 149.905 332.552 150.288 332.401C150.677 332.249 150.977 332.038 151.19 331.768C151.403 331.499 151.51 331.188 151.51 330.838C151.51 330.511 151.413 330.237 151.219 330.014C151.029 329.792 150.75 329.602 150.381 329.446C150.016 329.29 149.569 329.148 149.038 329.02L147.455 328.622C146.228 328.324 145.26 327.857 144.55 327.223C143.839 326.589 143.487 325.734 143.491 324.659C143.487 323.778 143.721 323.009 144.195 322.351C144.673 321.693 145.329 321.179 146.162 320.81C146.995 320.44 147.942 320.256 149.003 320.256C150.082 320.256 151.025 320.44 151.83 320.81C152.639 321.179 153.269 321.693 153.719 322.351C154.169 323.009 154.401 323.771 154.415 324.638H151.467ZM158.857 335H155.562L160.583 320.455H164.546L169.56 335H166.265L162.621 323.778H162.508L158.857 335ZM158.651 329.283H166.435V331.683H158.651V329.283ZM171.311 335V320.455H174.386V332.464H180.622V335H171.311ZM186.734 322.99V320.455H198.68V322.99H194.227V335H191.187V322.99H186.734ZM200.647 335V320.455H210.448V322.99H203.722V326.456H209.944V328.991H203.722V332.464H210.477V335H200.647ZM212.893 320.455H216.686L220.691 330.227H220.862L224.868 320.455H228.66V335H225.677V325.533H225.556L221.792 334.929H219.761L215.997 325.497H215.876V335H212.893V320.455ZM231.194 335V320.455H236.933C238.036 320.455 238.976 320.665 239.752 321.087C240.529 321.503 241.121 322.083 241.528 322.827C241.94 323.565 242.146 324.418 242.146 325.384C242.146 326.349 241.937 327.202 241.521 327.94C241.104 328.679 240.5 329.254 239.71 329.666C238.924 330.078 237.972 330.284 236.854 330.284H233.197V327.82H236.357C236.949 327.82 237.437 327.718 237.82 327.514C238.209 327.306 238.497 327.019 238.687 326.655C238.881 326.286 238.978 325.862 238.978 325.384C238.978 324.901 238.881 324.479 238.687 324.119C238.497 323.755 238.209 323.473 237.82 323.274C237.432 323.071 236.94 322.969 236.343 322.969H234.269V335H231.194ZM244.143 335V320.455H247.218V332.464H253.454V335H244.143ZM258.369 335H255.074L260.095 320.455H264.058L269.072 335H265.777L262.133 323.778H262.02L258.369 335ZM258.163 329.283H265.947V331.683H258.163V329.283ZM268.491 322.99V320.455H280.438V322.99H275.984V335H272.945V322.99H268.491ZM282.405 335V320.455H292.206V322.99H285.48V326.456H291.702V328.991H285.48V332.464H292.234V335H282.405Z" fill="#266EF0"/>
<path d="M78.0341 371H72.7614L80.7955 347.727H87.1364L95.1591 371H89.8864L84.0568 353.045H83.875L78.0341 371ZM77.7045 361.852H90.1591V365.693H77.7045V361.852ZM102.881 347.727V371H97.9602V347.727H102.881ZM115.929 344.984H138.041V348.184H115.929V344.984ZM116.153 351.928H137.785V355.128H116.153V351.928ZM119.705 346.232H123.961V353.976H119.705V346.232ZM130.009 346.232H134.265V353.976H130.009V346.232ZM113.593 356.632H140.409V359.96H113.593V356.632ZM116.665 361.592H137.145V368.984H120.921V371.736H116.697V366.136H132.953V364.632H116.665V361.592ZM116.697 370.552H137.945V373.656H116.697V370.552ZM164.246 344.184H168.31V364.12H164.246V344.184ZM160.758 351.352H165.462V354.776H160.758V351.352ZM157.942 344.728H161.91V361.656H157.942V344.728ZM144.246 358.136H146.294C147.723 358.136 149.003 358.115 150.134 358.072C151.286 358.029 152.374 357.955 153.398 357.848C154.422 357.741 155.467 357.581 156.534 357.368L156.886 360.696C155.777 360.931 154.689 361.101 153.622 361.208C152.577 361.315 151.457 361.389 150.262 361.432C149.089 361.453 147.766 361.464 146.294 361.464H144.246V358.136ZM144.182 346.264H155.446V355.288H148.342V360.376H144.246V352.216H151.318V349.592H144.182V346.264ZM155.99 362.872H159.606V363.352C159.606 364.653 159.35 365.88 158.838 367.032C158.326 368.163 157.579 369.187 156.598 370.104C155.638 371 154.454 371.757 153.046 372.376C151.638 373.016 150.017 373.475 148.182 373.752L146.55 370.456C147.83 370.285 148.971 370.04 149.974 369.72C150.998 369.379 151.883 368.973 152.63 368.504C153.377 368.013 153.995 367.491 154.486 366.936C154.998 366.381 155.371 365.805 155.606 365.208C155.862 364.589 155.99 363.971 155.99 363.352V362.872ZM156.566 362.872H160.214V363.352C160.214 363.971 160.331 364.589 160.566 365.208C160.801 365.805 161.163 366.381 161.654 366.936C162.166 367.491 162.795 368.013 163.542 368.504C164.289 368.973 165.163 369.379 166.166 369.72C167.19 370.04 168.342 370.285 169.622 370.456L167.99 373.752C166.155 373.475 164.534 373.016 163.126 372.376C161.718 371.757 160.523 371 159.542 370.104C158.561 369.187 157.814 368.163 157.302 367.032C156.811 365.88 156.566 364.653 156.566 363.352V362.872ZM172.468 358.52H199.284V361.88H172.468V358.52ZM183.732 355.512H187.956V360.024H183.732V355.512ZM174.804 345.016H196.916V348.408H174.804V345.016ZM175.028 352.856H196.66V356.216H175.028V352.856ZM178.58 346.232H182.836V355.064H178.58V346.232ZM188.884 346.232H193.14V355.064H188.884V346.232ZM175.604 363.832H196.084V373.528H175.604V363.832ZM191.924 367.16H179.764V370.168H191.924V367.16ZM212.415 345.912H230.975V349.272H212.415V345.912ZM209.343 358.52H236.159V361.976H209.343V358.52ZM220.447 360.952H224.735V373.848H220.447V360.952ZM228.799 345.912H232.991V348.536C232.991 349.603 232.97 350.733 232.927 351.928C232.906 353.123 232.821 354.435 232.671 355.864C232.522 357.272 232.245 358.851 231.839 360.6L227.679 360.088C228.234 357.635 228.554 355.491 228.639 353.656C228.746 351.8 228.799 350.093 228.799 348.536V345.912ZM250.013 361.176H254.269V365.56H250.013V361.176ZM238.749 358.776H265.565V362.168H238.749V358.776ZM241.725 364.664H262.333V373.816H258.077V368.024H241.725V364.664ZM250.013 344.216H254.269V348.568H250.013V344.216ZM249.757 348.92H253.501V349.496C253.501 350.627 253.234 351.661 252.701 352.6C252.189 353.539 251.41 354.371 250.365 355.096C249.319 355.821 248.029 356.408 246.493 356.856C244.957 357.304 243.175 357.603 241.149 357.752L239.901 354.552C241.693 354.445 243.207 354.232 244.445 353.912C245.703 353.592 246.717 353.197 247.485 352.728C248.274 352.259 248.85 351.747 249.213 351.192C249.575 350.637 249.757 350.072 249.757 349.496V348.92ZM250.781 348.92H254.525V349.496C254.525 350.072 254.706 350.637 255.069 351.192C255.431 351.747 255.997 352.259 256.765 352.728C257.554 353.197 258.567 353.592 259.805 353.912C261.063 354.232 262.589 354.445 264.381 354.552L263.133 357.752C261.106 357.603 259.325 357.304 257.789 356.856C256.253 356.408 254.962 355.821 253.917 355.096C252.871 354.371 252.082 353.539 251.549 352.6C251.037 351.661 250.781 350.627 250.781 349.496V348.92ZM241.309 346.904H262.973V350.168H241.309V346.904ZM297.001 344.184H301.065V373.816H297.001V344.184ZM287.241 354.328H292.169V357.784H287.241V354.328ZM291.017 344.664H294.985V372.472H291.017V344.664ZM280.873 349.016H284.073V352.056C284.073 353.72 283.945 355.363 283.689 356.984C283.454 358.605 283.081 360.141 282.569 361.592C282.057 363.021 281.385 364.312 280.553 365.464C279.721 366.616 278.718 367.565 277.545 368.312L275.017 365.176C276.467 364.259 277.619 363.107 278.473 361.72C279.326 360.312 279.934 358.776 280.297 357.112C280.681 355.427 280.873 353.741 280.873 352.056V349.016ZM281.833 349.016H285.001V352.056C285.001 353.699 285.182 355.32 285.545 356.92C285.907 358.52 286.505 359.981 287.337 361.304C288.169 362.605 289.299 363.672 290.729 364.504L288.265 367.576C286.686 366.637 285.427 365.368 284.489 363.768C283.55 362.168 282.867 360.365 282.441 358.36C282.035 356.333 281.833 354.232 281.833 352.056V349.016ZM276.105 347.16H289.321V350.584H276.105V347.16ZM324.102 344.216H328.358V365.752H324.102V344.216ZM327.174 352.664H332.294V356.184H327.174V352.664ZM309.254 369.912H329.414V373.336H309.254V369.912ZM309.254 363.512H313.542V371.448H309.254V363.512ZM313.286 346.104C314.801 346.104 316.166 346.424 317.382 347.064C318.598 347.704 319.558 348.589 320.262 349.72C320.987 350.851 321.35 352.152 321.35 353.624C321.35 355.075 320.987 356.376 320.262 357.528C319.558 358.659 318.598 359.555 317.382 360.216C316.166 360.856 314.801 361.176 313.286 361.176C311.771 361.176 310.406 360.856 309.19 360.216C307.974 359.555 307.014 358.659 306.31 357.528C305.606 356.376 305.254 355.075 305.254 353.624C305.254 352.152 305.606 350.851 306.31 349.72C307.014 348.589 307.974 347.704 309.19 347.064C310.406 346.424 311.771 346.104 313.286 346.104ZM313.286 349.784C312.561 349.784 311.899 349.944 311.302 350.264C310.726 350.563 310.267 351 309.926 351.576C309.585 352.131 309.414 352.813 309.414 353.624C309.414 354.435 309.585 355.128 309.926 355.704C310.267 356.259 310.726 356.696 311.302 357.016C311.899 357.315 312.561 357.464 313.286 357.464C314.033 357.464 314.694 357.315 315.27 357.016C315.867 356.696 316.337 356.259 316.678 355.704C317.019 355.128 317.19 354.435 317.19 353.624C317.19 352.813 317.019 352.131 316.678 351.576C316.337 351 315.867 350.563 315.27 350.264C314.694 349.944 314.033 349.784 313.286 349.784Z" fill="white"/>
</g>
<defs>
<linearGradient id="paint0_linear_5_16" x1="0" y1="0" x2="475.22" y2="731.107" gradientUnits="userSpaceOnUse">
<stop stop-color="#0F172A"/>
<stop offset="1" stop-color="#16233D"/>
</linearGradient>
<clipPath id="clip0_5_16">
<rect width="800" height="520" fill="white"/>
</clipPath>
</defs>
</svg>
