<svg width="800" height="520" viewBox="0 0 800 520" fill="none" xmlns="http://www.w3.org/2000/svg">
<g clip-path="url(#clip0_5_23)">
<path d="M800 0H0V520H800V0Z" fill="url(#paint0_linear_5_23)"/>
<path d="M172 148H92C80.9543 148 72 156.954 72 168V248C72 259.046 80.9543 268 92 268H172C183.046 268 192 259.046 192 248V168C192 156.954 183.046 148 172 148Z" stroke="#3E9C7C" stroke-opacity="0.85" stroke-width="2"/>
<path d="M115.357 219H104.529V188.455H115.446C118.519 188.455 121.164 189.066 123.381 190.289C125.598 191.502 127.304 193.247 128.497 195.524C129.7 197.801 130.302 200.526 130.302 203.697C130.302 206.879 129.7 209.614 128.497 211.901C127.304 214.187 125.589 215.942 123.351 217.165C121.124 218.388 118.459 219 115.357 219ZM110.987 213.467H115.089C116.998 213.467 118.603 213.129 119.906 212.452C121.218 211.766 122.203 210.707 122.859 209.276C123.525 207.834 123.858 205.974 123.858 203.697C123.858 201.44 123.525 199.596 122.859 198.164C122.203 196.732 121.223 195.678 119.921 195.002C118.618 194.326 117.013 193.988 115.103 193.988H110.987V213.467ZM138.628 219H131.707L142.252 188.455H150.574L161.104 219H154.184L146.533 195.435H146.294L138.628 219ZM138.195 206.994H154.542V212.035H138.195V206.994Z" fill="#3E9C7C"/>
<path d="M75.7713 335H72.4759L77.4972 320.455H81.4602L86.4744 335H83.179L79.5355 323.778H79.4219L75.7713 335ZM75.5653 329.283H83.3494V331.683H75.5653V329.283ZM93.3814 335H88.2251V320.455H93.424C94.8871 320.455 96.1465 320.746 97.2024 321.328C98.2583 321.906 99.0703 322.737 99.6385 323.821C100.211 324.905 100.498 326.203 100.498 327.713C100.498 329.228 100.211 330.53 99.6385 331.619C99.0703 332.708 98.2536 333.544 97.1882 334.126C96.1276 334.709 94.8587 335 93.3814 335ZM91.3004 332.365H93.2536C94.1626 332.365 94.9273 332.204 95.5476 331.882C96.1726 331.555 96.6413 331.051 96.9538 330.369C97.2711 329.683 97.4297 328.797 97.4297 327.713C97.4297 326.638 97.2711 325.76 96.9538 325.078C96.6413 324.396 96.175 323.894 95.5547 323.572C94.9344 323.25 94.1697 323.089 93.2607 323.089H91.3004V332.365ZM102.776 320.455H106.569L110.574 330.227H110.745L114.75 320.455H118.543V335H115.56V325.533H115.439L111.675 334.929H109.644L105.88 325.497H105.759V335H102.776V320.455ZM124.152 320.455V335H121.077V320.455H124.152ZM138.848 320.455V335H136.192L129.864 325.845H129.757V335H126.682V320.455H129.381L135.659 329.602H135.787V320.455H138.848ZM153.909 324.638C153.852 324.065 153.608 323.62 153.177 323.303C152.746 322.985 152.162 322.827 151.423 322.827C150.921 322.827 150.497 322.898 150.152 323.04C149.806 323.177 149.541 323.369 149.356 323.615C149.176 323.861 149.086 324.141 149.086 324.453C149.077 324.714 149.131 324.941 149.25 325.135C149.373 325.329 149.541 325.497 149.754 325.639C149.967 325.777 150.213 325.897 150.493 326.001C150.772 326.101 151.07 326.186 151.387 326.257L152.694 326.57C153.329 326.712 153.911 326.901 154.441 327.138C154.972 327.375 155.431 327.666 155.819 328.011C156.208 328.357 156.508 328.764 156.721 329.233C156.939 329.702 157.05 330.239 157.055 330.845C157.05 331.735 156.823 332.507 156.373 333.161C155.928 333.809 155.284 334.313 154.441 334.673C153.603 335.028 152.592 335.206 151.409 335.206C150.234 335.206 149.212 335.026 148.341 334.666C147.474 334.306 146.797 333.774 146.309 333.068C145.826 332.358 145.573 331.48 145.549 330.433H148.525C148.558 330.921 148.698 331.328 148.944 331.655C149.195 331.977 149.529 332.221 149.946 332.386C150.367 332.547 150.843 332.628 151.373 332.628C151.894 332.628 152.346 332.552 152.73 332.401C153.118 332.249 153.419 332.038 153.632 331.768C153.845 331.499 153.951 331.188 153.951 330.838C153.951 330.511 153.854 330.237 153.66 330.014C153.471 329.792 153.191 329.602 152.822 329.446C152.458 329.29 152.01 329.148 151.48 329.02L149.896 328.622C148.67 328.324 147.701 327.857 146.991 327.223C146.281 326.589 145.928 325.734 145.933 324.659C145.928 323.778 146.163 323.009 146.636 322.351C147.114 321.693 147.77 321.179 148.603 320.81C149.437 320.44 150.384 320.256 151.444 320.256C152.524 320.256 153.466 320.44 154.271 320.81C155.081 321.179 155.71 321.693 156.16 322.351C156.61 323.009 156.842 323.771 156.856 324.638H153.909ZM158.271 320.455H161.716L165.033 326.719H165.175L168.491 320.455H171.936L166.631 329.858V335H163.577V329.858L158.271 320.455ZM181.506 324.638C181.45 324.065 181.206 323.62 180.775 323.303C180.344 322.985 179.759 322.827 179.021 322.827C178.519 322.827 178.095 322.898 177.749 323.04C177.404 323.177 177.138 323.369 176.954 323.615C176.774 323.861 176.684 324.141 176.684 324.453C176.674 324.714 176.729 324.941 176.847 325.135C176.97 325.329 177.138 325.497 177.352 325.639C177.565 325.777 177.811 325.897 178.09 326.001C178.37 326.101 178.668 326.186 178.985 326.257L180.292 326.57C180.926 326.712 181.509 326.901 182.039 327.138C182.569 327.375 183.029 327.666 183.417 328.011C183.805 328.357 184.106 328.764 184.319 329.233C184.537 329.702 184.648 330.239 184.653 330.845C184.648 331.735 184.421 332.507 183.971 333.161C183.526 333.809 182.882 334.313 182.039 334.673C181.201 335.028 180.19 335.206 179.006 335.206C177.832 335.206 176.809 335.026 175.938 334.666C175.072 334.306 174.395 333.774 173.907 333.068C173.424 332.358 173.171 331.48 173.147 330.433H176.123C176.156 330.921 176.296 331.328 176.542 331.655C176.793 331.977 177.127 332.221 177.543 332.386C177.965 332.547 178.441 332.628 178.971 332.628C179.492 332.628 179.944 332.552 180.327 332.401C180.716 332.249 181.016 332.038 181.229 331.768C181.442 331.499 181.549 331.188 181.549 330.838C181.549 330.511 181.452 330.237 181.258 330.014C181.068 329.792 180.789 329.602 180.42 329.446C180.055 329.29 179.608 329.148 179.077 329.02L177.494 328.622C176.267 328.324 175.299 327.857 174.589 327.223C173.879 326.589 173.526 325.734 173.531 324.659C173.526 323.778 173.76 323.009 174.234 322.351C174.712 321.693 175.368 321.179 176.201 320.81C177.034 320.44 177.981 320.256 179.042 320.256C180.121 320.256 181.064 320.44 181.869 320.81C182.678 321.179 183.308 321.693 183.758 322.351C184.208 323.009 184.44 323.771 184.454 324.638H181.506ZM186.167 322.99V320.455H198.113V322.99H193.66V335H190.62V322.99H186.167ZM200.081 335V320.455H209.882V322.99H203.156V326.456H209.377V328.991H203.156V332.464H209.91V335H200.081ZM212.327 320.455H216.119L220.125 330.227H220.295L224.301 320.455H228.094V335H225.111V325.533H224.99L221.226 334.929H219.195L215.43 325.497H215.31V335H212.327V320.455Z" fill="#3E9C7C"/>
<path d="M82.9148 371H74.1491V346.273H82.9872C85.4744 346.273 87.6155 346.768 89.4105 347.758C91.2055 348.74 92.5859 350.152 93.5518 351.996C94.5258 353.839 95.0128 356.045 95.0128 358.612C95.0128 361.188 94.5258 363.402 93.5518 365.253C92.5859 367.104 91.1974 368.525 89.3864 369.515C87.5833 370.505 85.4261 371 82.9148 371ZM79.3771 366.521H82.6974C84.2429 366.521 85.5429 366.247 86.5973 365.7C87.6598 365.144 88.4567 364.287 88.9879 363.128C89.5272 361.961 89.7969 360.455 89.7969 358.612C89.7969 356.785 89.5272 355.292 88.9879 354.133C88.4567 352.974 87.6638 352.121 86.6094 351.573C85.5549 351.026 84.255 350.752 82.7095 350.752H79.3771V366.521ZM98.7889 371V352.455H103.775V355.69H103.969C104.307 354.539 104.874 353.67 105.671 353.082C106.468 352.487 107.385 352.189 108.424 352.189C108.681 352.189 108.959 352.205 109.257 352.237C109.555 352.269 109.816 352.314 110.042 352.37V356.934C109.8 356.862 109.466 356.797 109.04 356.741C108.613 356.684 108.223 356.656 107.868 356.656C107.112 356.656 106.436 356.821 105.84 357.151C105.252 357.473 104.786 357.924 104.439 358.504C104.101 359.083 103.932 359.751 103.932 360.508V371H98.7889ZM124.594 363.104V352.455H129.737V371H124.799V367.631H124.606C124.187 368.718 123.491 369.591 122.517 370.251C121.551 370.911 120.372 371.241 118.979 371.241C117.74 371.241 116.649 370.96 115.707 370.396C114.766 369.833 114.029 369.032 113.498 367.994C112.975 366.955 112.709 365.712 112.701 364.263V352.455H117.844V363.345C117.853 364.44 118.146 365.305 118.726 365.941C119.305 366.577 120.082 366.895 121.056 366.895C121.676 366.895 122.255 366.754 122.795 366.472C123.334 366.183 123.769 365.756 124.099 365.192C124.437 364.629 124.602 363.933 124.594 363.104ZM142.206 378.341C140.54 378.341 139.112 378.112 137.92 377.653C136.737 377.202 135.795 376.586 135.095 375.805C134.395 375.025 133.94 374.147 133.731 373.173L138.488 372.533C138.633 372.904 138.862 373.25 139.176 373.572C139.49 373.894 139.904 374.151 140.42 374.344C140.943 374.546 141.579 374.646 142.327 374.646C143.446 374.646 144.368 374.373 145.092 373.825C145.825 373.286 146.191 372.38 146.191 371.109V367.716H145.974C145.748 368.231 145.41 368.718 144.959 369.177C144.509 369.636 143.929 370.01 143.221 370.3C142.512 370.589 141.667 370.734 140.685 370.734C139.293 370.734 138.025 370.412 136.882 369.768C135.747 369.116 134.841 368.122 134.165 366.786C133.497 365.442 133.163 363.744 133.163 361.691C133.163 359.59 133.505 357.835 134.189 356.427C134.874 355.018 135.783 353.964 136.918 353.263C138.061 352.563 139.313 352.213 140.673 352.213C141.711 352.213 142.581 352.39 143.281 352.744C143.981 353.09 144.545 353.525 144.971 354.048C145.406 354.563 145.74 355.071 145.974 355.57H146.167V352.455H151.274V371.181C151.274 372.759 150.888 374.079 150.115 375.141C149.342 376.204 148.272 377.001 146.903 377.532C145.543 378.071 143.977 378.341 142.206 378.341ZM142.315 366.871C143.144 366.871 143.845 366.665 144.416 366.255C144.996 365.836 145.438 365.241 145.744 364.468C146.058 363.687 146.215 362.754 146.215 361.667C146.215 360.58 146.062 359.638 145.756 358.842C145.45 358.037 145.008 357.413 144.428 356.97C143.849 356.527 143.144 356.306 142.315 356.306C141.47 356.306 140.758 356.536 140.178 356.994C139.599 357.445 139.16 358.073 138.862 358.878C138.564 359.683 138.415 360.612 138.415 361.667C138.415 362.737 138.564 363.663 138.862 364.444C139.168 365.217 139.607 365.816 140.178 366.243C140.758 366.661 141.47 366.871 142.315 366.871ZM158.373 371.314C157.577 371.314 156.892 371.032 156.321 370.469C155.757 369.897 155.476 369.213 155.476 368.416C155.476 367.627 155.757 366.951 156.321 366.388C156.892 365.824 157.577 365.543 158.373 365.543C159.146 365.543 159.822 365.824 160.402 366.388C160.981 366.951 161.271 367.627 161.271 368.416C161.271 368.947 161.134 369.434 160.861 369.877C160.595 370.312 160.245 370.662 159.81 370.928C159.376 371.185 158.897 371.314 158.373 371.314ZM169.853 371H164.25L172.787 346.273H179.524L188.048 371H182.446L176.252 351.923H176.059L169.853 371ZM169.502 361.281H182.735V365.362H169.502V361.281ZM196.252 346.273V371H191.024V346.273H196.252ZM212.685 371H207.082L215.619 346.273H222.356L230.88 371H225.278L219.084 351.923H218.891L212.685 371ZM212.335 361.281H225.567V365.362H212.335V361.281ZM239.73 371.302C238.321 371.302 237.046 370.94 235.903 370.215C234.768 369.483 233.866 368.408 233.198 366.991C232.538 365.567 232.208 363.82 232.208 361.751C232.208 359.626 232.55 357.86 233.234 356.451C233.919 355.034 234.828 353.976 235.963 353.276C237.106 352.567 238.358 352.213 239.718 352.213C240.756 352.213 241.622 352.39 242.314 352.744C243.014 353.09 243.578 353.525 244.004 354.048C244.439 354.563 244.769 355.071 244.994 355.57H245.151V346.273H250.283V371H245.212V368.03H244.994C244.753 368.545 244.411 369.056 243.968 369.563C243.533 370.062 242.966 370.477 242.266 370.807C241.573 371.137 240.728 371.302 239.73 371.302ZM241.36 367.209C242.189 367.209 242.889 366.983 243.461 366.533C244.04 366.074 244.483 365.434 244.789 364.613C245.103 363.792 245.26 362.83 245.26 361.727C245.26 360.625 245.107 359.667 244.801 358.854C244.495 358.041 244.053 357.413 243.473 356.97C242.893 356.527 242.189 356.306 241.36 356.306C240.515 356.306 239.803 356.536 239.223 356.994C238.643 357.453 238.205 358.089 237.907 358.902C237.609 359.715 237.46 360.657 237.46 361.727C237.46 362.806 237.609 363.76 237.907 364.589C238.213 365.41 238.652 366.054 239.223 366.521C239.803 366.979 240.515 367.209 241.36 367.209ZM254.512 371V352.455H259.414V355.727H259.631C260.017 354.64 260.661 353.783 261.563 353.155C262.464 352.527 263.543 352.213 264.798 352.213C266.07 352.213 267.153 352.531 268.046 353.167C268.94 353.795 269.535 354.648 269.833 355.727H270.026C270.405 354.664 271.089 353.815 272.079 353.179C273.077 352.535 274.256 352.213 275.617 352.213C277.347 352.213 278.752 352.764 279.83 353.867C280.917 354.962 281.46 356.515 281.46 358.528V371H276.329V359.542C276.329 358.512 276.055 357.739 275.508 357.224C274.961 356.709 274.276 356.451 273.455 356.451C272.522 356.451 271.793 356.749 271.27 357.344C270.747 357.932 270.485 358.709 270.485 359.675V371H265.499V359.433C265.499 358.524 265.237 357.799 264.714 357.26C264.199 356.721 263.519 356.451 262.673 356.451C262.102 356.451 261.587 356.596 261.128 356.886C260.677 357.167 260.319 357.566 260.053 358.081C259.788 358.588 259.655 359.184 259.655 359.868V371H254.512ZM285.523 371V352.455H290.667V371H285.523ZM288.107 350.064C287.342 350.064 286.686 349.81 286.139 349.303C285.6 348.788 285.33 348.172 285.33 347.456C285.33 346.748 285.6 346.14 286.139 345.633C286.686 345.118 287.342 344.86 288.107 344.86C288.872 344.86 289.524 345.118 290.063 345.633C290.61 346.14 290.884 346.748 290.884 347.456C290.884 348.172 290.61 348.788 290.063 349.303C289.524 349.81 288.872 350.064 288.107 350.064ZM299.93 360.278V371H294.787V352.455H299.689V355.727H299.906C300.317 354.648 301.005 353.795 301.971 353.167C302.937 352.531 304.108 352.213 305.484 352.213C306.772 352.213 307.895 352.495 308.853 353.058C309.811 353.622 310.555 354.427 311.087 355.473C311.618 356.511 311.884 357.751 311.884 359.192V371H306.74V360.109C306.748 358.974 306.458 358.089 305.871 357.453C305.283 356.809 304.474 356.487 303.444 356.487C302.752 356.487 302.14 356.636 301.609 356.934C301.085 357.232 300.675 357.666 300.377 358.238C300.087 358.801 299.938 359.482 299.93 360.278Z" fill="white"/>
</g>
<defs>
<linearGradient id="paint0_linear_5_23" x1="0" y1="0" x2="475.22" y2="731.107" gradientUnits="userSpaceOnUse">
<stop stop-color="#0F172A"/>
<stop offset="1" stop-color="#213D3A"/>
</linearGradient>
<clipPath id="clip0_5_23">
<rect width="800" height="520" fill="white"/>
</clipPath>
</defs>
</svg>
