<svg width="800" height="520" viewBox="0 0 800 520" fill="none" xmlns="http://www.w3.org/2000/svg">
<g clip-path="url(#clip0_5_30)">
<path d="M800 0H0V520H800V0Z" fill="url(#paint0_linear_5_30)"/>
<path d="M172 148H92C80.9543 148 72 156.954 72 168V248C72 259.046 80.9543 268 92 268H172C183.046 268 192 259.046 192 248V168C192 156.954 183.046 148 172 148Z" stroke="#3E9C7C" stroke-opacity="0.85" stroke-width="2"/>
<path d="M115.357 219H104.529V188.455H115.446C118.519 188.455 121.164 189.066 123.381 190.289C125.598 191.502 127.304 193.247 128.497 195.524C129.7 197.801 130.302 200.526 130.302 203.697C130.302 206.879 129.7 209.614 128.497 211.901C127.304 214.187 125.589 215.942 123.351 217.165C121.124 218.388 118.459 219 115.357 219ZM110.987 213.467H115.089C116.998 213.467 118.603 213.129 119.906 212.452C121.218 211.766 122.203 210.707 122.859 209.276C123.525 207.834 123.858 205.974 123.858 203.697C123.858 201.44 123.525 199.596 122.859 198.164C122.203 196.732 121.223 195.678 119.921 195.002C118.618 194.326 117.013 193.988 115.103 193.988H110.987V213.467ZM138.628 219H131.707L142.252 188.455H150.574L161.104 219H154.184L146.533 195.435H146.294L138.628 219ZM138.195 206.994H154.542V212.035H138.195V206.994Z" fill="#3E9C7C"/>
<path d="M75.7713 335H72.4759L77.4972 320.455H81.4602L86.4744 335H83.179L79.5355 323.778H79.4219L75.7713 335ZM75.5653 329.283H83.3494V331.683H75.5653V329.283ZM91.3004 320.455V335H88.2251V320.455H91.3004ZM106.35 324.638C106.293 324.065 106.049 323.62 105.619 323.303C105.188 322.985 104.603 322.827 103.864 322.827C103.362 322.827 102.939 322.898 102.593 323.04C102.247 323.177 101.982 323.369 101.798 323.615C101.618 323.861 101.528 324.141 101.528 324.453C101.518 324.714 101.573 324.941 101.691 325.135C101.814 325.329 101.982 325.497 102.195 325.639C102.408 325.777 102.655 325.897 102.934 326.001C103.213 326.101 103.512 326.186 103.829 326.257L105.136 326.57C105.77 326.712 106.353 326.901 106.883 327.138C107.413 327.375 107.872 327.666 108.261 328.011C108.649 328.357 108.95 328.764 109.163 329.233C109.38 329.702 109.492 330.239 109.496 330.845C109.492 331.735 109.264 332.507 108.815 333.161C108.37 333.809 107.726 334.313 106.883 334.673C106.045 335.028 105.034 335.206 103.85 335.206C102.676 335.206 101.653 335.026 100.782 334.666C99.9155 334.306 99.2384 333.774 98.7507 333.068C98.2678 332.358 98.0144 331.48 97.9908 330.433H100.967C101 330.921 101.139 331.328 101.386 331.655C101.637 331.977 101.97 332.221 102.387 332.386C102.808 332.547 103.284 332.628 103.815 332.628C104.335 332.628 104.788 332.552 105.171 332.401C105.559 332.249 105.86 332.038 106.073 331.768C106.286 331.499 106.393 331.188 106.393 330.838C106.393 330.511 106.296 330.237 106.102 330.014C105.912 329.792 105.633 329.602 105.263 329.446C104.899 329.29 104.451 329.148 103.921 329.02L102.337 328.622C101.111 328.324 100.143 327.857 99.4325 327.223C98.7223 326.589 98.3696 325.734 98.3743 324.659C98.3696 323.778 98.6039 323.009 99.0774 322.351C99.5556 321.693 100.211 321.179 101.045 320.81C101.878 320.44 102.825 320.256 103.886 320.256C104.965 320.256 105.907 320.44 106.712 320.81C107.522 321.179 108.152 321.693 108.602 322.351C109.051 323.009 109.283 323.771 109.298 324.638H106.35ZM111.565 335V320.455H121.366V322.99H114.64V326.456H120.862V328.991H114.64V332.464H121.395V335H111.565ZM123.811 335V320.455H129.55C130.648 320.455 131.586 320.651 132.362 321.044C133.143 321.432 133.738 321.984 134.145 322.699C134.557 323.409 134.763 324.245 134.763 325.206C134.763 326.172 134.554 327.003 134.138 327.699C133.721 328.39 133.117 328.92 132.327 329.29C131.541 329.659 130.589 329.844 129.472 329.844H125.629V327.372H128.974C129.562 327.372 130.049 327.292 130.438 327.131C130.826 326.97 131.115 326.728 131.304 326.406C131.498 326.084 131.595 325.684 131.595 325.206C131.595 324.723 131.498 324.316 131.304 323.984C131.115 323.653 130.823 323.402 130.43 323.232C130.042 323.056 129.552 322.969 128.96 322.969H126.886V335H123.811ZM131.666 328.381L135.281 335H131.886L128.349 328.381H131.666ZM139.173 320.455L142.689 331.506H142.824L146.347 320.455H149.756L144.741 335H140.778L135.757 320.455H139.173ZM154.582 320.455V335H151.506V320.455H154.582ZM169.946 325.547H166.835C166.778 325.144 166.662 324.787 166.487 324.474C166.312 324.157 166.087 323.887 165.812 323.665C165.538 323.442 165.22 323.272 164.86 323.153C164.505 323.035 164.119 322.976 163.703 322.976C162.95 322.976 162.294 323.163 161.735 323.537C161.177 323.906 160.743 324.446 160.436 325.156C160.128 325.862 159.974 326.719 159.974 327.727C159.974 328.764 160.128 329.635 160.436 330.341C160.748 331.046 161.184 331.579 161.743 331.939C162.301 332.299 162.948 332.479 163.681 332.479C164.093 332.479 164.475 332.424 164.825 332.315C165.18 332.206 165.495 332.048 165.77 331.839C166.044 331.626 166.271 331.368 166.451 331.065C166.636 330.762 166.764 330.417 166.835 330.028L169.946 330.043C169.865 330.71 169.664 331.354 169.342 331.974C169.025 332.59 168.596 333.142 168.056 333.629C167.521 334.112 166.882 334.496 166.139 334.78C165.4 335.059 164.565 335.199 163.632 335.199C162.334 335.199 161.174 334.905 160.152 334.318C159.134 333.731 158.329 332.881 157.737 331.768C157.15 330.656 156.856 329.309 156.856 327.727C156.856 326.141 157.154 324.792 157.751 323.679C158.348 322.566 159.157 321.719 160.18 321.136C161.203 320.549 162.353 320.256 163.632 320.256C164.475 320.256 165.256 320.374 165.975 320.611C166.7 320.848 167.342 321.193 167.9 321.648C168.459 322.098 168.913 322.649 169.264 323.303C169.619 323.956 169.846 324.704 169.946 325.547ZM172.151 335V320.455H181.952V322.99H175.226V326.456H181.448V328.991H175.226V332.464H181.98V335H172.151Z" fill="#3E9C7C"/>
<path d="M84.1989 371H74.402V343.364H84.2798C87.0597 343.364 89.4527 343.917 91.4588 345.023C93.465 346.121 95.0078 347.7 96.0874 349.76C97.1759 351.82 97.7202 354.285 97.7202 357.155C97.7202 360.034 97.1759 362.508 96.0874 364.577C95.0078 366.646 93.456 368.234 91.4318 369.34C89.4167 370.447 87.0057 371 84.1989 371ZM80.245 365.994H83.956C85.6832 365.994 87.1361 365.688 88.3146 365.076C89.5021 364.455 90.3928 363.497 90.9865 362.202C91.5893 360.897 91.8906 359.215 91.8906 357.155C91.8906 355.113 91.5893 353.444 90.9865 352.148C90.3928 350.853 89.5066 349.899 88.3281 349.288C87.1496 348.676 85.6967 348.37 83.9695 348.37H80.245V365.994ZM101.941 371V350.273H107.514V353.889H107.73C108.107 352.603 108.742 351.631 109.632 350.974C110.523 350.309 111.548 349.976 112.709 349.976C112.997 349.976 113.307 349.994 113.64 350.03C113.973 350.066 114.265 350.115 114.517 350.178V355.279C114.247 355.198 113.874 355.126 113.397 355.063C112.92 355 112.484 354.969 112.088 354.969C111.243 354.969 110.487 355.153 109.821 355.522C109.164 355.882 108.643 356.386 108.256 357.033C107.878 357.681 107.689 358.428 107.689 359.273V371H101.941ZM130.781 362.175V350.273H136.53V371H131.011V367.235H130.795C130.327 368.45 129.549 369.426 128.46 370.163C127.381 370.901 126.063 371.27 124.506 371.27C123.121 371.27 121.902 370.955 120.849 370.325C119.797 369.696 118.974 368.8 118.38 367.64C117.795 366.479 117.498 365.089 117.489 363.47V350.273H123.238V362.445C123.247 363.668 123.575 364.635 124.223 365.346C124.871 366.057 125.739 366.412 126.827 366.412C127.52 366.412 128.168 366.254 128.771 365.94C129.373 365.616 129.859 365.139 130.228 364.509C130.606 363.879 130.79 363.101 130.781 362.175ZM150.466 379.205C148.604 379.205 147.007 378.948 145.676 378.435C144.353 377.932 143.301 377.243 142.518 376.371C141.735 375.498 141.227 374.518 140.993 373.429L146.31 372.714C146.472 373.128 146.728 373.514 147.079 373.874C147.43 374.234 147.893 374.522 148.469 374.738C149.054 374.963 149.764 375.075 150.601 375.075C151.852 375.075 152.882 374.769 153.691 374.158C154.51 373.555 154.919 372.543 154.919 371.121V367.33H154.676C154.424 367.905 154.047 368.45 153.543 368.962C153.039 369.475 152.391 369.893 151.6 370.217C150.808 370.541 149.863 370.703 148.766 370.703C147.209 370.703 145.793 370.343 144.515 369.624C143.247 368.895 142.235 367.784 141.479 366.29C140.732 364.788 140.359 362.89 140.359 360.596C140.359 358.248 140.741 356.287 141.506 354.712C142.271 353.138 143.287 351.96 144.556 351.177C145.833 350.394 147.232 350.003 148.752 350.003C149.913 350.003 150.884 350.201 151.667 350.597C152.45 350.983 153.079 351.469 153.556 352.054C154.042 352.63 154.415 353.196 154.676 353.754H154.892V350.273H160.6V371.202C160.6 372.966 160.169 374.441 159.305 375.629C158.441 376.816 157.245 377.707 155.715 378.3C154.195 378.903 152.445 379.205 150.466 379.205ZM150.588 366.385C151.514 366.385 152.297 366.156 152.936 365.697C153.583 365.229 154.078 364.563 154.42 363.7C154.771 362.827 154.946 361.783 154.946 360.569C154.946 359.354 154.775 358.302 154.433 357.411C154.092 356.512 153.597 355.814 152.949 355.32C152.301 354.825 151.514 354.577 150.588 354.577C149.643 354.577 148.847 354.834 148.199 355.347C147.551 355.85 147.061 356.552 146.728 357.452C146.395 358.351 146.229 359.39 146.229 360.569C146.229 361.765 146.395 362.8 146.728 363.673C147.07 364.536 147.56 365.206 148.199 365.683C148.847 366.151 149.643 366.385 150.588 366.385ZM168.535 371.351C167.644 371.351 166.88 371.036 166.241 370.406C165.611 369.768 165.296 369.003 165.296 368.112C165.296 367.231 165.611 366.475 166.241 365.845C166.88 365.215 167.644 364.901 168.535 364.901C169.399 364.901 170.154 365.215 170.802 365.845C171.45 366.475 171.774 367.231 171.774 368.112C171.774 368.706 171.621 369.25 171.315 369.745C171.018 370.231 170.627 370.622 170.141 370.919C169.655 371.207 169.12 371.351 168.535 371.351ZM181.365 371H175.103L184.644 343.364H192.174L201.701 371H195.439L188.517 349.679H188.301L181.365 371ZM180.973 360.137H195.763V364.698H180.973V360.137ZM210.87 343.364V371H205.027V343.364H210.87Z" fill="white"/>
</g>
<defs>
<linearGradient id="paint0_linear_5_30" x1="0" y1="0" x2="475.22" y2="731.107" gradientUnits="userSpaceOnUse">
<stop stop-color="#0F172A"/>
<stop offset="1" stop-color="#213D3A"/>
</linearGradient>
<clipPath id="clip0_5_30">
<rect width="800" height="520" fill="white"/>
</clipPath>
</defs>
</svg>
