<svg width="800" height="520" viewBox="0 0 800 520" fill="none" xmlns="http://www.w3.org/2000/svg">
<g clip-path="url(#clip0_5_37)">
<path d="M800 0H0V520H800V0Z" fill="url(#paint0_linear_5_37)"/>
<path d="M172 148H92C80.9543 148 72 156.954 72 168V248C72 259.046 80.9543 268 92 268H172C183.046 268 192 259.046 192 248V168C192 156.954 183.046 148 172 148Z" stroke="#8DBA29" stroke-opacity="0.85" stroke-width="2"/>
<path d="M107.475 219.362C105.567 219.362 103.925 218.976 102.549 218.203C101.18 217.422 100.126 216.32 99.3855 214.895C98.6449 213.462 98.2747 211.768 98.2747 209.812C98.2747 207.904 98.6449 206.23 99.3855 204.789C100.126 203.348 101.168 202.225 102.513 201.42C103.865 200.616 105.451 200.213 107.27 200.213C108.493 200.213 109.632 200.41 110.687 200.805C111.749 201.191 112.675 201.775 113.464 202.555C114.26 203.336 114.88 204.318 115.323 205.501C115.766 206.677 115.987 208.053 115.987 209.631V211.043H100.327V207.856H111.145C111.145 207.115 110.984 206.459 110.662 205.888C110.34 205.316 109.894 204.87 109.322 204.548C108.759 204.218 108.103 204.053 107.354 204.053C106.573 204.053 105.881 204.234 105.278 204.596C104.682 204.95 104.215 205.429 103.877 206.033C103.539 206.628 103.366 207.292 103.358 208.025V211.055C103.358 211.973 103.527 212.766 103.865 213.434C104.211 214.102 104.698 214.617 105.326 214.979C105.954 215.342 106.698 215.523 107.559 215.523C108.131 215.523 108.654 215.442 109.129 215.281C109.604 215.12 110.01 214.879 110.349 214.557C110.687 214.235 110.944 213.84 111.121 213.374L115.878 213.688C115.637 214.83 115.142 215.829 114.393 216.682C113.653 217.527 112.695 218.187 111.52 218.662C110.353 219.129 109.004 219.362 107.475 219.362ZM123.702 219H118.1L126.636 194.273H133.373L141.898 219H136.295L130.101 199.923H129.908L123.702 219ZM123.352 209.281H136.585V213.362H123.352V209.281ZM149.776 194.273L154.762 202.7H154.955L159.966 194.273H165.87L158.324 206.636L166.039 219H160.026L154.955 210.56H154.762L149.691 219H143.703L151.442 206.636L143.847 194.273H149.776Z" fill="#8DBA29"/>
<path d="M73.2642 320.455H77.0568L81.0625 330.227H81.233L85.2386 320.455H89.0312V335H86.0483V325.533H85.9276L82.1634 334.929H80.1321L76.3679 325.497H76.2472V335H73.2642V320.455ZM94.0721 335H90.7766L95.7979 320.455H99.761L104.775 335H101.48L97.8363 323.778H97.7227L94.0721 335ZM93.8661 329.283H101.65V331.683H93.8661V329.283ZM118.692 320.455V335H116.036L109.708 325.845H109.601V335H106.526V320.455H109.225L115.503 329.602H115.631V320.455H118.692ZM130.217 320.455H133.293V329.901C133.293 330.961 133.039 331.889 132.533 332.685C132.031 333.48 131.328 334.1 130.423 334.545C129.519 334.986 128.465 335.206 127.263 335.206C126.055 335.206 125 334.986 124.095 334.545C123.191 334.1 122.488 333.48 121.986 332.685C121.484 331.889 121.233 330.961 121.233 329.901V320.455H124.308V329.638C124.308 330.192 124.429 330.684 124.67 331.115C124.917 331.546 125.262 331.884 125.707 332.131C126.152 332.377 126.671 332.5 127.263 332.5C127.859 332.5 128.378 332.377 128.818 332.131C129.263 331.884 129.607 331.546 129.848 331.115C130.094 330.684 130.217 330.192 130.217 329.638V320.455ZM138.33 335H135.034L140.056 320.455H144.019L149.033 335H145.738L142.094 323.778H141.98L138.33 335ZM138.124 329.283H145.908V331.683H138.124V329.283ZM150.784 335V320.455H153.859V332.464H160.095V335H150.784ZM166.76 335V320.455H172.499C173.597 320.455 174.535 320.651 175.311 321.044C176.093 321.432 176.687 321.984 177.094 322.699C177.506 323.409 177.712 324.245 177.712 325.206C177.712 326.172 177.504 327.003 177.087 327.699C176.67 328.39 176.067 328.92 175.276 329.29C174.49 329.659 173.538 329.844 172.421 329.844H168.578V327.372H171.924C172.511 327.372 172.998 327.292 173.387 327.131C173.775 326.97 174.064 326.728 174.253 326.406C174.447 326.084 174.544 325.684 174.544 325.206C174.544 324.723 174.447 324.316 174.253 323.984C174.064 323.653 173.773 323.402 173.38 323.232C172.991 323.056 172.501 322.969 171.909 322.969H169.836V335H166.76ZM174.615 328.381L178.23 335H174.836L171.299 328.381H174.615ZM179.885 335V320.455H189.686V322.99H182.961V326.456H189.182V328.991H182.961V332.464H189.715V335H179.885ZM197.288 335H192.131V320.455H197.33C198.793 320.455 200.053 320.746 201.109 321.328C202.165 321.906 202.977 322.737 203.545 323.821C204.118 324.905 204.404 326.203 204.404 327.713C204.404 329.228 204.118 330.53 203.545 331.619C202.977 332.708 202.16 333.544 201.094 334.126C200.034 334.709 198.765 335 197.288 335ZM195.207 332.365H197.16C198.069 332.365 198.834 332.204 199.454 331.882C200.079 331.555 200.548 331.051 200.86 330.369C201.177 329.683 201.336 328.797 201.336 327.713C201.336 326.638 201.177 325.76 200.86 325.078C200.548 324.396 200.081 323.894 199.461 323.572C198.841 323.25 198.076 323.089 197.167 323.089H195.207V332.365ZM206.682 335V320.455H216.483V322.99H209.757V326.456H215.979V328.991H209.757V332.464H216.512V335H206.682ZM226.819 324.638C226.762 324.065 226.518 323.62 226.087 323.303C225.656 322.985 225.072 322.827 224.333 322.827C223.831 322.827 223.407 322.898 223.062 323.04C222.716 323.177 222.451 323.369 222.266 323.615C222.086 323.861 221.996 324.141 221.996 324.453C221.987 324.714 222.041 324.941 222.16 325.135C222.283 325.329 222.451 325.497 222.664 325.639C222.877 325.777 223.123 325.897 223.403 326.001C223.682 326.101 223.98 326.186 224.298 326.257L225.604 326.57C226.239 326.712 226.821 326.901 227.352 327.138C227.882 327.375 228.341 327.666 228.729 328.011C229.118 328.357 229.418 328.764 229.631 329.233C229.849 329.702 229.96 330.239 229.965 330.845C229.96 331.735 229.733 332.507 229.283 333.161C228.838 333.809 228.194 334.313 227.352 334.673C226.513 335.028 225.503 335.206 224.319 335.206C223.145 335.206 222.122 335.026 221.251 334.666C220.384 334.306 219.707 333.774 219.219 333.068C218.737 332.358 218.483 331.48 218.46 330.433H221.435C221.469 330.921 221.608 331.328 221.854 331.655C222.105 331.977 222.439 332.221 222.856 332.386C223.277 332.547 223.753 332.628 224.283 332.628C224.804 332.628 225.256 332.552 225.64 332.401C226.028 332.249 226.329 332.038 226.542 331.768C226.755 331.499 226.862 331.188 226.862 330.838C226.862 330.511 226.764 330.237 226.57 330.014C226.381 329.792 226.102 329.602 225.732 329.446C225.368 329.29 224.92 329.148 224.39 329.02L222.806 328.622C221.58 328.324 220.612 327.857 219.901 327.223C219.191 326.589 218.838 325.734 218.843 324.659C218.838 323.778 219.073 323.009 219.546 322.351C220.024 321.693 220.68 321.179 221.513 320.81C222.347 320.44 223.294 320.256 224.354 320.256C225.434 320.256 226.376 320.44 227.181 320.81C227.991 321.179 228.621 321.693 229.07 322.351C229.52 323.009 229.752 323.771 229.766 324.638H226.819ZM235.109 320.455V335H232.034V320.455H235.109ZM247.284 325.156C247.185 324.811 247.045 324.505 246.865 324.24C246.685 323.97 246.465 323.743 246.205 323.558C245.949 323.369 245.655 323.224 245.324 323.125C244.997 323.026 244.635 322.976 244.237 322.976C243.494 322.976 242.84 323.161 242.277 323.53C241.718 323.899 241.283 324.437 240.97 325.142C240.658 325.843 240.501 326.7 240.501 327.713C240.501 328.726 240.655 329.588 240.963 330.298C241.271 331.009 241.706 331.551 242.27 331.925C242.833 332.294 243.499 332.479 244.266 332.479C244.962 332.479 245.556 332.356 246.048 332.109C246.545 331.858 246.924 331.506 247.185 331.051C247.45 330.597 247.582 330.059 247.582 329.439L248.207 329.531H244.457V327.216H250.544V329.048C250.544 330.327 250.274 331.425 249.734 332.344C249.195 333.258 248.451 333.963 247.504 334.46C246.557 334.953 245.473 335.199 244.251 335.199C242.888 335.199 241.69 334.898 240.658 334.297C239.625 333.691 238.821 332.831 238.243 331.719C237.67 330.601 237.384 329.276 237.384 327.741C237.384 326.562 237.554 325.511 237.895 324.588C238.241 323.66 238.723 322.874 239.344 322.23C239.964 321.586 240.686 321.096 241.51 320.76C242.334 320.424 243.226 320.256 244.188 320.256C245.011 320.256 245.778 320.376 246.489 320.618C247.199 320.855 247.829 321.191 248.378 321.626C248.932 322.062 249.384 322.58 249.734 323.182C250.085 323.778 250.31 324.437 250.409 325.156H247.284ZM265.02 320.455V335H262.364L256.036 325.845H255.929V335H252.854V320.455H255.553L261.831 329.602H261.959V320.455H265.02Z" fill="#8DBA29"/>
<path d="M81.8864 371.341C80.0909 371.341 78.5455 370.977 77.25 370.25C75.9621 369.515 74.9697 368.477 74.2727 367.136C73.5758 365.788 73.2273 364.193 73.2273 362.352C73.2273 360.557 73.5758 358.981 74.2727 357.625C74.9697 356.269 75.9508 355.212 77.2159 354.455C78.4886 353.697 79.9811 353.318 81.6932 353.318C82.8447 353.318 83.9167 353.504 84.9091 353.875C85.9091 354.239 86.7803 354.788 87.5227 355.523C88.2727 356.258 88.8561 357.182 89.2727 358.295C89.6894 359.402 89.8977 360.697 89.8977 362.182V363.511H75.1591V360.511H85.3409C85.3409 359.814 85.1894 359.197 84.8864 358.659C84.5833 358.121 84.1629 357.701 83.625 357.398C83.0947 357.087 82.4773 356.932 81.7727 356.932C81.0379 356.932 80.3864 357.102 79.8182 357.443C79.2576 357.777 78.8182 358.227 78.5 358.795C78.1818 359.356 78.0189 359.981 78.0114 360.67V363.523C78.0114 364.386 78.1705 365.133 78.4886 365.761C78.8144 366.39 79.2727 366.875 79.8636 367.216C80.4545 367.557 81.1553 367.727 81.9659 367.727C82.5038 367.727 82.9962 367.652 83.4432 367.5C83.8902 367.348 84.2727 367.121 84.5909 366.818C84.9091 366.515 85.1515 366.144 85.3182 365.705L89.7955 366C89.5682 367.076 89.1023 368.015 88.3977 368.818C87.7008 369.614 86.7992 370.235 85.6932 370.682C84.5947 371.121 83.3258 371.341 81.8864 371.341ZM97.1591 371H91.8864L99.9205 347.727H106.261L114.284 371H109.011L103.182 353.045H103L97.1591 371ZM96.8295 361.852H109.284V365.693H96.8295V361.852ZM121.699 347.727L126.392 355.659H126.574L131.29 347.727H136.847L129.744 359.364L137.006 371H131.347L126.574 363.057H126.392L121.619 371H115.983L123.267 359.364L116.119 347.727H121.699ZM148.21 371H139.96V347.727H148.278C150.619 347.727 152.634 348.193 154.324 349.125C156.013 350.049 157.313 351.379 158.222 353.114C159.138 354.848 159.597 356.924 159.597 359.341C159.597 361.765 159.138 363.848 158.222 365.591C157.313 367.333 156.006 368.67 154.301 369.602C152.604 370.534 150.574 371 148.21 371ZM144.881 366.784H148.006C149.46 366.784 150.684 366.527 151.676 366.011C152.676 365.489 153.426 364.682 153.926 363.591C154.434 362.492 154.688 361.076 154.688 359.341C154.688 357.621 154.434 356.216 153.926 355.125C153.426 354.034 152.68 353.231 151.688 352.716C150.695 352.201 149.472 351.943 148.017 351.943H144.881V366.784ZM166.761 347.727L171.455 355.659H171.636L176.352 347.727H181.909L174.807 359.364L182.068 371H176.409L171.636 363.057H171.455L166.682 371H161.045L168.33 359.364L161.182 347.727H166.761ZM213.094 344.184H217.158V373.816H213.094V344.184ZM209.542 355.512H214.47V358.904H209.542V355.512ZM206.63 344.664H210.598V372.504H206.63V344.664ZM192.55 347.224H204.23V366.424H192.55V347.224ZM200.294 350.552H196.518V363.128H200.294V350.552ZM224.388 353.528H244.964V356.92H224.388V353.528ZM224.388 345.528H228.644V355.032H224.388V345.528ZM221.156 360.152H247.972V363.576H221.156V360.152ZM227.236 361.368H231.492V373.848H227.236V361.368ZM237.604 361.368H241.828V373.848H237.604V361.368ZM271.105 344.216H275.361V359H271.105V344.216ZM265.185 350.072H272.705V353.464H265.185V350.072ZM258.785 344.984C260.279 344.984 261.612 345.283 262.785 345.88C263.959 346.456 264.887 347.256 265.569 348.28C266.252 349.304 266.593 350.488 266.593 351.832C266.593 353.155 266.252 354.328 265.569 355.352C264.887 356.376 263.959 357.187 262.785 357.784C261.612 358.36 260.279 358.648 258.785 358.648C257.292 358.648 255.948 358.36 254.753 357.784C253.58 357.187 252.652 356.376 251.969 355.352C251.287 354.328 250.945 353.155 250.945 351.832C250.945 350.488 251.287 349.304 251.969 348.28C252.652 347.256 253.58 346.456 254.753 345.88C255.948 345.283 257.292 344.984 258.785 344.984ZM258.785 348.44C258.06 348.44 257.409 348.579 256.833 348.856C256.257 349.112 255.809 349.496 255.489 350.008C255.169 350.499 255.009 351.096 255.009 351.8C255.009 352.525 255.169 353.144 255.489 353.656C255.809 354.168 256.257 354.563 256.833 354.84C257.409 355.096 258.049 355.224 258.753 355.224C259.5 355.224 260.151 355.096 260.705 354.84C261.26 354.563 261.697 354.168 262.017 353.656C262.337 353.144 262.497 352.525 262.497 351.8C262.497 351.096 262.337 350.499 262.017 350.008C261.697 349.496 261.26 349.112 260.705 348.856C260.151 348.579 259.511 348.44 258.785 348.44ZM255.777 360.248H275.361V368.344H260.033V371.96H255.841V365.272H271.169V363.544H255.777V360.248ZM255.841 370.2H276.225V373.528H255.841V370.2ZM307.821 344.152H312.109V373.88H307.821V344.152ZM289.037 363.512H291.661C293.41 363.512 295.064 363.491 296.621 363.448C298.178 363.384 299.704 363.288 301.197 363.16C302.69 363.011 304.216 362.797 305.773 362.52L306.221 365.944C303.832 366.371 301.474 366.659 299.149 366.808C296.845 366.936 294.349 367 291.661 367H289.037V363.512ZM288.973 346.68H302.957V358.168H293.357V364.824H289.037V354.808H298.637V350.104H288.973V346.68ZM337.195 344.184H341.451V373.912H337.195V344.184ZM318.667 363.32H321.227C323.296 363.32 325.109 363.299 326.667 363.256C328.245 363.213 329.685 363.128 330.987 363C332.309 362.872 333.632 362.68 334.955 362.424L335.339 365.944C333.995 366.2 332.64 366.403 331.275 366.552C329.931 366.68 328.448 366.765 326.827 366.808C325.205 366.829 323.339 366.84 321.227 366.84H318.667V363.32ZM318.667 346.808H332.939V350.264H322.891V364.664H318.667V346.808ZM352.936 348.888H356.296V352.216C356.296 353.859 356.115 355.501 355.752 357.144C355.411 358.787 354.899 360.333 354.216 361.784C353.533 363.213 352.669 364.493 351.624 365.624C350.6 366.755 349.405 367.64 348.04 368.28L345.64 364.92C346.877 364.344 347.944 363.587 348.84 362.648C349.757 361.709 350.515 360.664 351.112 359.512C351.731 358.36 352.189 357.165 352.488 355.928C352.787 354.669 352.936 353.432 352.936 352.216V348.888ZM353.832 348.888H357.192V352.216C357.192 353.325 357.341 354.467 357.64 355.64C357.939 356.813 358.376 357.944 358.952 359.032C359.549 360.12 360.296 361.112 361.192 362.008C362.109 362.883 363.176 363.597 364.392 364.152L362.024 367.544C360.659 366.904 359.464 366.051 358.44 364.984C357.437 363.896 356.584 362.669 355.88 361.304C355.197 359.917 354.685 358.456 354.344 356.92C354.003 355.363 353.832 353.795 353.832 352.216V348.888ZM346.792 347.032H363.08V350.552H346.792V347.032ZM365.224 344.216H369.512V373.848H365.224V344.216ZM368.584 355.512H373.8V359H368.584V355.512ZM396.102 344.216H400.358V365.496H396.102V344.216ZM380.614 369.912H401.126V373.336H380.614V369.912ZM380.614 363.384H384.87V371.32H380.614V363.384ZM384.23 346.104C385.744 346.104 387.11 346.424 388.326 347.064C389.542 347.704 390.502 348.589 391.206 349.72C391.931 350.851 392.294 352.152 392.294 353.624C392.294 355.053 391.931 356.344 391.206 357.496C390.502 358.627 389.542 359.523 388.326 360.184C387.11 360.824 385.744 361.144 384.23 361.144C382.715 361.144 381.35 360.824 380.134 360.184C378.918 359.523 377.947 358.627 377.222 357.496C376.518 356.344 376.166 355.053 376.166 353.624C376.166 352.152 376.518 350.851 377.222 349.72C377.947 348.589 378.918 347.704 380.134 347.064C381.35 346.424 382.715 346.104 384.23 346.104ZM384.23 349.752C383.504 349.752 382.843 349.912 382.246 350.232C381.648 350.531 381.179 350.968 380.838 351.544C380.496 352.099 380.326 352.792 380.326 353.624C380.326 354.413 380.496 355.096 380.838 355.672C381.179 356.227 381.648 356.664 382.246 356.984C382.843 357.283 383.504 357.432 384.23 357.432C384.955 357.432 385.616 357.283 386.214 356.984C386.811 356.664 387.28 356.227 387.622 355.672C387.963 355.096 388.134 354.413 388.134 353.624C388.134 352.792 387.963 352.099 387.622 351.544C387.28 350.968 386.811 350.531 386.214 350.232C385.616 349.912 384.955 349.752 384.23 349.752Z" fill="white"/>
</g>
<defs>
<linearGradient id="paint0_linear_5_37" x1="0" y1="0" x2="475.22" y2="731.107" gradientUnits="userSpaceOnUse">
<stop stop-color="#0F172A"/>
<stop offset="1" stop-color="#1C3D19"/>
</linearGradient>
<clipPath id="clip0_5_37">
<rect width="800" height="520" fill="white"/>
</clipPath>
</defs>
</svg>
