<svg width="800" height="520" viewBox="0 0 800 520" fill="none" xmlns="http://www.w3.org/2000/svg">
<g clip-path="url(#clip0_5_44)">
<path d="M800 0H0V520H800V0Z" fill="url(#paint0_linear_5_44)"/>
<path d="M172 148H92C80.9543 148 72 156.954 72 168V248C72 259.046 80.9543 268 92 268H172C183.046 268 192 259.046 192 248V168C192 156.954 183.046 148 172 148Z" stroke="#3432AA" stroke-opacity="0.85" stroke-width="2"/>
<path d="M106.518 219V188.455H127.1V193.779H112.976V201.058H126.042V206.382H112.976V213.675H127.16V219H106.518ZM143.063 219H132.235V188.455H143.153C146.225 188.455 148.87 189.066 151.087 190.289C153.305 191.502 155.01 193.247 156.203 195.524C157.406 197.801 158.008 200.526 158.008 203.697C158.008 206.879 157.406 209.614 156.203 211.901C155.01 214.187 153.295 215.942 151.057 217.165C148.83 218.388 146.165 219 143.063 219ZM138.693 213.467H142.795C144.704 213.467 146.309 213.129 147.612 212.452C148.925 211.766 149.909 210.707 150.565 209.276C151.231 207.834 151.564 205.974 151.564 203.697C151.564 201.44 151.231 199.596 150.565 198.164C149.909 196.732 148.93 195.678 147.627 195.002C146.324 194.326 144.719 193.988 142.809 193.988H138.693V213.467Z" fill="#3432AA"/>
<path d="M81.1548 324.638C81.098 324.065 80.8542 323.62 80.4233 323.303C79.9924 322.985 79.4077 322.827 78.669 322.827C78.1671 322.827 77.7434 322.898 77.3977 323.04C77.0521 323.177 76.7869 323.369 76.6023 323.615C76.4223 323.861 76.3324 324.141 76.3324 324.453C76.3229 324.714 76.3774 324.941 76.4957 325.135C76.6188 325.329 76.7869 325.497 77 325.639C77.2131 325.777 77.4593 325.897 77.7386 326.001C78.018 326.101 78.3163 326.186 78.6335 326.257L79.9403 326.57C80.5748 326.712 81.1572 326.901 81.6875 327.138C82.2178 327.375 82.6771 327.666 83.0653 328.011C83.4536 328.357 83.7543 328.764 83.9673 329.233C84.1851 329.702 84.2964 330.239 84.3011 330.845C84.2964 331.735 84.0691 332.507 83.6193 333.161C83.1742 333.809 82.5303 334.313 81.6875 334.673C80.8494 335.028 79.8385 335.206 78.6548 335.206C77.4806 335.206 76.4579 335.026 75.5866 334.666C74.7202 334.306 74.0431 333.774 73.5554 333.068C73.0724 332.358 72.8191 331.48 72.7955 330.433H75.7713C75.8045 330.921 75.9441 331.328 76.1903 331.655C76.4413 331.977 76.7751 332.221 77.1918 332.386C77.6132 332.547 78.089 332.628 78.6193 332.628C79.1402 332.628 79.5923 332.552 79.9759 332.401C80.3641 332.249 80.6648 332.038 80.8778 331.768C81.0909 331.499 81.1974 331.188 81.1974 330.838C81.1974 330.511 81.1004 330.237 80.9062 330.014C80.7169 329.792 80.4375 329.602 80.0682 329.446C79.7036 329.29 79.2562 329.148 78.7259 329.02L77.142 328.622C75.9157 328.324 74.9474 327.857 74.2372 327.223C73.527 326.589 73.1742 325.734 73.179 324.659C73.1742 323.778 73.4086 323.009 73.8821 322.351C74.3603 321.693 75.0161 321.179 75.8494 320.81C76.6828 320.44 77.6297 320.256 78.6903 320.256C79.7699 320.256 80.7121 320.44 81.517 320.81C82.3267 321.179 82.9564 321.693 83.4062 322.351C83.8561 323.009 84.0881 323.771 84.1023 324.638H81.1548ZM86.3697 335V320.455H96.1708V322.99H89.445V326.456H95.6665V328.991H89.445V332.464H96.1992V335H86.3697ZM98.6158 335V320.455H104.354C105.453 320.455 106.39 320.651 107.167 321.044C107.948 321.432 108.542 321.984 108.95 322.699C109.362 323.409 109.567 324.245 109.567 325.206C109.567 326.172 109.359 327.003 108.942 327.699C108.526 328.39 107.922 328.92 107.131 329.29C106.345 329.659 105.394 329.844 104.276 329.844H100.434V327.372H103.779C104.366 327.372 104.854 327.292 105.242 327.131C105.63 326.97 105.919 326.728 106.109 326.406C106.303 326.084 106.4 325.684 106.4 325.206C106.4 324.723 106.303 324.316 106.109 323.984C105.919 323.653 105.628 323.402 105.235 323.232C104.847 323.056 104.357 322.969 103.765 322.969H101.691V335H98.6158ZM106.471 328.381L110.086 335H106.691L103.154 328.381H106.471ZM113.978 320.455L117.494 331.506H117.629L121.151 320.455H124.56L119.546 335H115.583L110.562 320.455H113.978ZM129.386 320.455V335H126.311V320.455H129.386ZM144.75 325.547H141.64C141.583 325.144 141.467 324.787 141.292 324.474C141.116 324.157 140.891 323.887 140.617 323.665C140.342 323.442 140.025 323.272 139.665 323.153C139.31 323.035 138.924 322.976 138.507 322.976C137.755 322.976 137.099 323.163 136.54 323.537C135.981 323.906 135.548 324.446 135.24 325.156C134.933 325.862 134.779 326.719 134.779 327.727C134.779 328.764 134.933 329.635 135.24 330.341C135.553 331.046 135.989 331.579 136.547 331.939C137.106 332.299 137.752 332.479 138.486 332.479C138.898 332.479 139.279 332.424 139.63 332.315C139.985 332.206 140.3 332.048 140.574 331.839C140.849 331.626 141.076 331.368 141.256 331.065C141.441 330.762 141.569 330.417 141.64 330.028L144.75 330.043C144.67 330.71 144.469 331.354 144.147 331.974C143.829 332.59 143.401 333.142 142.861 333.629C142.326 334.112 141.687 334.496 140.944 334.78C140.205 335.059 139.369 335.199 138.436 335.199C137.139 335.199 135.979 334.905 134.956 334.318C133.938 333.731 133.133 332.881 132.542 331.768C131.954 330.656 131.661 329.309 131.661 327.727C131.661 326.141 131.959 324.792 132.556 323.679C133.152 322.566 133.962 321.719 134.985 321.136C136.007 320.549 137.158 320.256 138.436 320.256C139.279 320.256 140.06 320.374 140.78 320.611C141.505 320.848 142.146 321.193 142.705 321.648C143.264 322.098 143.718 322.649 144.069 323.303C144.424 323.956 144.651 324.704 144.75 325.547ZM146.956 335V320.455H156.757V322.99H150.031V326.456H156.252V328.991H150.031V332.464H156.785V335H146.956ZM163.831 335V320.455H169.569C170.672 320.455 171.612 320.665 172.389 321.087C173.165 321.503 173.757 322.083 174.164 322.827C174.576 323.565 174.782 324.418 174.782 325.384C174.782 326.349 174.574 327.202 174.157 327.94C173.741 328.679 173.137 329.254 172.346 329.666C171.56 330.078 170.609 330.284 169.491 330.284H165.833V327.82H168.994C169.586 327.82 170.074 327.718 170.457 327.514C170.845 327.306 171.134 327.019 171.324 326.655C171.518 326.286 171.615 325.862 171.615 325.384C171.615 324.901 171.518 324.479 171.324 324.119C171.134 323.755 170.845 323.473 170.457 323.274C170.069 323.071 169.576 322.969 168.98 322.969H166.906V335H163.831ZM176.78 335V320.455H179.855V332.464H186.091V335H176.78ZM191.006 335H187.71L192.732 320.455H196.695L201.709 335H198.413L194.77 323.778H194.656L191.006 335ZM190.8 329.283H198.584V331.683H190.8V329.283ZM201.128 322.99V320.455H213.074V322.99H208.621V335H205.581V322.99H201.128ZM215.042 335V320.455H224.672V322.99H218.117V326.456H224.033V328.991H218.117V335H215.042ZM240.107 327.727C240.107 329.313 239.807 330.663 239.205 331.776C238.609 332.888 237.794 333.738 236.762 334.325C235.735 334.908 234.579 335.199 233.296 335.199C232.004 335.199 230.844 334.905 229.816 334.318C228.789 333.731 227.977 332.881 227.38 331.768C226.783 330.656 226.485 329.309 226.485 327.727C226.485 326.141 226.783 324.792 227.38 323.679C227.977 322.566 228.789 321.719 229.816 321.136C230.844 320.549 232.004 320.256 233.296 320.256C234.579 320.256 235.735 320.549 236.762 321.136C237.794 321.719 238.609 322.566 239.205 323.679C239.807 324.792 240.107 326.141 240.107 327.727ZM236.989 327.727C236.989 326.7 236.835 325.833 236.528 325.128C236.225 324.422 235.796 323.887 235.242 323.523C234.688 323.158 234.04 322.976 233.296 322.976C232.553 322.976 231.904 323.158 231.35 323.523C230.796 323.887 230.365 324.422 230.058 325.128C229.754 325.833 229.603 326.7 229.603 327.727C229.603 328.755 229.754 329.621 230.058 330.327C230.365 331.032 230.796 331.567 231.35 331.932C231.904 332.296 232.553 332.479 233.296 332.479C234.04 332.479 234.688 332.296 235.242 331.932C235.796 331.567 236.225 331.032 236.528 330.327C236.835 329.621 236.989 328.755 236.989 327.727ZM242.385 335V320.455H248.124C249.222 320.455 250.16 320.651 250.936 321.044C251.718 321.432 252.312 321.984 252.719 322.699C253.131 323.409 253.337 324.245 253.337 325.206C253.337 326.172 253.129 327.003 252.712 327.699C252.295 328.39 251.692 328.92 250.901 329.29C250.115 329.659 249.163 329.844 248.046 329.844H244.203V327.372H247.549C248.136 327.372 248.623 327.292 249.012 327.131C249.4 326.97 249.689 326.728 249.878 326.406C250.072 326.084 250.169 325.684 250.169 325.206C250.169 324.723 250.072 324.316 249.878 323.984C249.689 323.653 249.398 323.402 249.005 323.232C248.616 323.056 248.126 322.969 247.534 322.969H245.461V335H242.385ZM250.24 328.381L253.855 335H250.461L246.924 328.381H250.24ZM255.51 320.455H259.303L263.309 330.227H263.479L267.485 320.455H271.277V335H268.294V325.533H268.174L264.409 334.929H262.378L258.614 325.497H258.493V335H255.51V320.455Z" fill="#3432AA"/>
<path d="M74.1491 371V346.273H90.8111V350.583H79.3771V356.475H89.9538V360.786H79.3771V366.69H90.8594V371H74.1491ZM103.733 371H94.9675V346.273H103.806C106.293 346.273 108.434 346.768 110.229 347.758C112.024 348.74 113.404 350.152 114.37 351.996C115.344 353.839 115.831 356.045 115.831 358.612C115.831 361.188 115.344 363.402 114.37 365.253C113.404 367.104 112.016 368.525 110.205 369.515C108.402 370.505 106.244 371 103.733 371ZM100.195 366.521H103.516C105.061 366.521 106.361 366.247 107.416 365.7C108.478 365.144 109.275 364.287 109.806 363.128C110.346 361.961 110.615 360.455 110.615 358.612C110.615 356.785 110.346 355.292 109.806 354.133C109.275 352.974 108.482 352.121 107.428 351.573C106.373 351.026 105.073 350.752 103.528 350.752H100.195V366.521ZM133.118 353.384C133.021 352.41 132.607 351.654 131.874 351.114C131.142 350.575 130.148 350.305 128.892 350.305C128.039 350.305 127.318 350.426 126.731 350.668C126.143 350.901 125.692 351.227 125.379 351.646C125.073 352.064 124.92 352.539 124.92 353.07C124.904 353.513 124.996 353.899 125.197 354.229C125.407 354.559 125.692 354.845 126.055 355.087C126.417 355.32 126.835 355.525 127.31 355.702C127.785 355.871 128.292 356.016 128.832 356.137L131.053 356.668C132.132 356.91 133.122 357.232 134.023 357.634C134.925 358.037 135.706 358.532 136.366 359.119C137.026 359.707 137.537 360.399 137.899 361.196C138.269 361.993 138.459 362.906 138.467 363.937C138.459 365.45 138.072 366.762 137.308 367.873C136.551 368.976 135.456 369.833 134.023 370.445C132.599 371.048 130.88 371.35 128.868 371.35C126.872 371.35 125.133 371.044 123.652 370.433C122.179 369.821 121.028 368.915 120.199 367.716C119.378 366.509 118.947 365.015 118.907 363.237H123.966C124.022 364.066 124.26 364.758 124.678 365.313C125.105 365.861 125.672 366.275 126.381 366.557C127.097 366.83 127.906 366.967 128.808 366.967C129.693 366.967 130.462 366.839 131.114 366.581C131.774 366.323 132.285 365.965 132.647 365.506C133.009 365.048 133.19 364.52 133.19 363.925C133.19 363.369 133.025 362.902 132.695 362.524C132.373 362.146 131.898 361.824 131.271 361.558C130.651 361.293 129.89 361.051 128.989 360.834L126.296 360.158C124.211 359.651 122.565 358.858 121.358 357.779C120.151 356.701 119.551 355.248 119.559 353.42C119.551 351.923 119.949 350.615 120.754 349.496C121.567 348.378 122.682 347.504 124.099 346.876C125.515 346.249 127.125 345.935 128.928 345.935C130.763 345.935 132.365 346.249 133.734 346.876C135.11 347.504 136.181 348.378 136.945 349.496C137.71 350.615 138.104 351.911 138.129 353.384H133.118ZM141.983 371V346.273H151.739C153.614 346.273 155.212 346.631 156.532 347.347C157.852 348.056 158.858 349.042 159.551 350.305C160.251 351.561 160.601 353.01 160.601 354.652C160.601 356.294 160.247 357.743 159.539 358.999C158.83 360.254 157.804 361.232 156.46 361.933C155.124 362.633 153.506 362.983 151.606 362.983H145.388V358.793H150.761C151.767 358.793 152.596 358.62 153.248 358.274C153.908 357.92 154.399 357.433 154.721 356.813C155.051 356.185 155.216 355.465 155.216 354.652C155.216 353.831 155.051 353.115 154.721 352.503C154.399 351.883 153.908 351.404 153.248 351.066C152.588 350.72 151.751 350.547 150.737 350.547H147.211V371H141.983ZM173.559 343.358H197.053V346.758H173.559V343.358ZM173.797 350.736H196.781V354.136H173.797V350.736ZM177.571 344.684H182.093V352.912H177.571V344.684ZM188.519 344.684H193.041V352.912H188.519V344.684ZM171.077 355.734H199.569V359.27H171.077V355.734ZM174.341 361.004H196.101V368.858H178.863V371.782H174.375V365.832H191.647V364.234H174.341V361.004ZM174.375 370.524H196.951V373.822H174.375V370.524ZM224.896 342.508H229.214V363.69H224.896V342.508ZM221.19 350.124H226.188V353.762H221.19V350.124ZM218.198 343.086H222.414V361.072H218.198V343.086ZM203.646 357.332H205.822C207.341 357.332 208.701 357.309 209.902 357.264C211.126 357.219 212.282 357.139 213.37 357.026C214.458 356.913 215.569 356.743 216.702 356.516L217.076 360.052C215.897 360.301 214.741 360.483 213.608 360.596C212.497 360.709 211.307 360.789 210.038 360.834C208.791 360.857 207.386 360.868 205.822 360.868H203.646V357.332ZM203.578 344.718H215.546V354.306H207.998V359.712H203.646V351.042H211.16V348.254H203.578V344.718ZM216.124 362.364H219.966V362.874C219.966 364.257 219.694 365.56 219.15 366.784C218.606 367.985 217.813 369.073 216.77 370.048C215.75 371 214.492 371.805 212.996 372.462C211.5 373.142 209.777 373.629 207.828 373.924L206.094 370.422C207.454 370.241 208.667 369.98 209.732 369.64C210.82 369.277 211.761 368.847 212.554 368.348C213.347 367.827 214.005 367.271 214.526 366.682C215.07 366.093 215.467 365.481 215.716 364.846C215.988 364.189 216.124 363.531 216.124 362.874V362.364ZM216.736 362.364H220.612V362.874C220.612 363.531 220.737 364.189 220.986 364.846C221.235 365.481 221.621 366.093 222.142 366.682C222.686 367.271 223.355 367.827 224.148 368.348C224.941 368.847 225.871 369.277 226.936 369.64C228.024 369.98 229.248 370.241 230.608 370.422L228.874 373.924C226.925 373.629 225.202 373.142 223.706 372.462C222.21 371.805 220.941 371 219.898 370.048C218.855 369.073 218.062 367.985 217.518 366.784C216.997 365.56 216.736 364.257 216.736 362.874V362.364ZM233.631 357.74H262.123V361.31H233.631V357.74ZM245.599 354.544H250.087V359.338H245.599V354.544ZM236.113 343.392H259.607V346.996H236.113V343.392ZM236.351 351.722H259.335V355.292H236.351V351.722ZM240.125 344.684H244.647V354.068H240.125V344.684ZM251.073 344.684H255.595V354.068H251.073V344.684ZM236.963 363.384H258.723V373.686H236.963V363.384ZM254.303 366.92H241.383V370.116H254.303V366.92Z" fill="white"/>
</g>
<defs>
<linearGradient id="paint0_linear_5_44" x1="0" y1="0" x2="475.22" y2="731.107" gradientUnits="userSpaceOnUse">
<stop stop-color="#0F172A"/>
<stop offset="1" stop-color="#1C1E3D"/>
</linearGradient>
<clipPath id="clip0_5_44">
<rect width="800" height="520" fill="white"/>
</clipPath>
</defs>
</svg>
