<svg width="800" height="520" viewBox="0 0 800 520" fill="none" xmlns="http://www.w3.org/2000/svg">
<g clip-path="url(#clip0_5_2)">
<path d="M800 0H0V520H800V0Z" fill="url(#paint0_linear_5_2)"/>
<path d="M172 148H92C80.9543 148 72 156.954 72 168V248C72 259.046 80.9543 268 92 268H172C183.046 268 192 259.046 192 248V168C192 156.954 183.046 148 172 148Z" stroke="#31A6E0" stroke-opacity="0.85" stroke-width="2"/>
<path d="M103.709 219V188.455H110.167V201.058H123.277V188.455H129.72V219H123.277V206.382H110.167V219H103.709ZM145.873 219H135.044V188.455H145.962C149.035 188.455 151.679 189.066 153.897 190.289C156.114 191.502 157.819 193.247 159.013 195.524C160.216 197.801 160.817 200.526 160.817 203.697C160.817 206.879 160.216 209.614 159.013 211.901C157.819 214.187 156.104 215.942 153.867 217.165C151.64 218.388 148.975 219 145.873 219ZM141.503 213.467H145.604C147.513 213.467 149.119 213.129 150.422 212.452C151.734 211.766 152.718 210.707 153.375 209.276C154.041 207.834 154.374 205.974 154.374 203.697C154.374 201.44 154.041 199.596 153.375 198.164C152.718 196.732 151.739 195.678 150.437 195.002C149.134 194.326 147.528 193.988 145.619 193.988H141.503V213.467Z" fill="#31A6E0"/>
<path d="M73.2642 335V320.455H79.0028C80.1013 320.455 81.0388 320.651 81.8153 321.044C82.5966 321.432 83.1908 321.984 83.598 322.699C84.0099 323.409 84.2159 324.245 84.2159 325.206C84.2159 326.172 84.0076 327.003 83.5909 327.699C83.1742 328.39 82.5705 328.92 81.7798 329.29C80.9938 329.659 80.0421 329.844 78.9247 329.844H75.0824V327.372H78.4276C79.0147 327.372 79.5024 327.292 79.8906 327.131C80.2789 326.97 80.5677 326.728 80.7571 326.406C80.9512 326.084 81.0483 325.684 81.0483 325.206C81.0483 324.723 80.9512 324.316 80.7571 323.984C80.5677 323.653 80.2765 323.402 79.8835 323.232C79.4953 323.056 79.0052 322.969 78.4134 322.969H76.3395V335H73.2642ZM81.1193 328.381L84.7344 335H81.3395L77.8026 328.381H81.1193ZM86.3892 335V320.455H96.1903V322.99H89.4645V326.456H95.6861V328.991H89.4645V332.464H96.2188V335H86.3892ZM106.526 324.638C106.469 324.065 106.225 323.62 105.794 323.303C105.364 322.985 104.779 322.827 104.04 322.827C103.538 322.827 103.114 322.898 102.769 323.04C102.423 323.177 102.158 323.369 101.973 323.615C101.793 323.861 101.703 324.141 101.703 324.453C101.694 324.714 101.748 324.941 101.867 325.135C101.99 325.329 102.158 325.497 102.371 325.639C102.584 325.777 102.83 325.897 103.11 326.001C103.389 326.101 103.687 326.186 104.005 326.257L105.311 326.57C105.946 326.712 106.528 326.901 107.059 327.138C107.589 327.375 108.048 327.666 108.436 328.011C108.825 328.357 109.125 328.764 109.338 329.233C109.556 329.702 109.667 330.239 109.672 330.845C109.667 331.735 109.44 332.507 108.99 333.161C108.545 333.809 107.901 334.313 107.059 334.673C106.221 335.028 105.21 335.206 104.026 335.206C102.852 335.206 101.829 335.026 100.958 334.666C100.091 334.306 99.4142 333.774 98.9265 333.068C98.4435 332.358 98.1902 331.48 98.1665 330.433H101.142C101.176 330.921 101.315 331.328 101.561 331.655C101.812 331.977 102.146 332.221 102.563 332.386C102.984 332.547 103.46 332.628 103.99 332.628C104.511 332.628 104.963 332.552 105.347 332.401C105.735 332.249 106.036 332.038 106.249 331.768C106.462 331.499 106.569 331.188 106.569 330.838C106.569 330.511 106.471 330.237 106.277 330.014C106.088 329.792 105.809 329.602 105.439 329.446C105.075 329.29 104.627 329.148 104.097 329.02L102.513 328.622C101.287 328.324 100.319 327.857 99.6083 327.223C98.8981 326.589 98.5453 325.734 98.5501 324.659C98.5453 323.778 98.7797 323.009 99.2532 322.351C99.7314 321.693 100.387 321.179 101.221 320.81C102.054 320.44 103.001 320.256 104.061 320.256C105.141 320.256 106.083 320.44 106.888 320.81C107.698 321.179 108.328 321.693 108.777 322.351C109.227 323.009 109.459 323.771 109.473 324.638H106.526ZM111.741 335V320.455H121.542V322.99H114.816V326.456H121.038V328.991H114.816V332.464H121.57V335H111.741ZM126.494 335H123.199L128.22 320.455H132.183L137.197 335H133.902L130.258 323.778H130.145L126.494 335ZM126.288 329.283H134.072V331.683H126.288V329.283ZM138.948 335V320.455H144.686C145.785 320.455 146.722 320.651 147.499 321.044C148.28 321.432 148.874 321.984 149.282 322.699C149.694 323.409 149.9 324.245 149.9 325.206C149.9 326.172 149.691 327.003 149.275 327.699C148.858 328.39 148.254 328.92 147.463 329.29C146.677 329.659 145.726 329.844 144.608 329.844H140.766V327.372H144.111C144.698 327.372 145.186 327.292 145.574 327.131C145.962 326.97 146.251 326.728 146.441 326.406C146.635 326.084 146.732 325.684 146.732 325.206C146.732 324.723 146.635 324.316 146.441 323.984C146.251 323.653 145.96 323.402 145.567 323.232C145.179 323.056 144.689 322.969 144.097 322.969H142.023V335H138.948ZM146.803 328.381L150.418 335H147.023L143.486 328.381H146.803ZM164.907 325.547H161.796C161.739 325.144 161.623 324.787 161.448 324.474C161.273 324.157 161.048 323.887 160.773 323.665C160.498 323.442 160.181 323.272 159.821 323.153C159.466 323.035 159.08 322.976 158.664 322.976C157.911 322.976 157.255 323.163 156.696 323.537C156.138 323.906 155.704 324.446 155.397 325.156C155.089 325.862 154.935 326.719 154.935 327.727C154.935 328.764 155.089 329.635 155.397 330.341C155.709 331.046 156.145 331.579 156.703 331.939C157.262 332.299 157.908 332.479 158.642 332.479C159.054 332.479 159.435 332.424 159.786 332.315C160.141 332.206 160.456 332.048 160.73 331.839C161.005 331.626 161.232 331.368 161.412 331.065C161.597 330.762 161.725 330.417 161.796 330.028L164.907 330.043C164.826 330.71 164.625 331.354 164.303 331.974C163.986 332.59 163.557 333.142 163.017 333.629C162.482 334.112 161.843 334.496 161.1 334.78C160.361 335.059 159.525 335.199 158.593 335.199C157.295 335.199 156.135 334.905 155.113 334.318C154.095 333.731 153.29 332.881 152.698 331.768C152.111 330.656 151.817 329.309 151.817 327.727C151.817 326.141 152.115 324.792 152.712 323.679C153.309 322.566 154.118 321.719 155.141 321.136C156.164 320.549 157.314 320.256 158.593 320.256C159.435 320.256 160.217 320.374 160.936 320.611C161.661 320.848 162.302 321.193 162.861 321.648C163.42 322.098 163.874 322.649 164.225 323.303C164.58 323.956 164.807 324.704 164.907 325.547ZM167.112 335V320.455H170.187V326.456H176.43V320.455H179.498V335H176.43V328.991H170.187V335H167.112ZM199.496 325.547H196.386C196.329 325.144 196.213 324.787 196.038 324.474C195.862 324.157 195.638 323.887 195.363 323.665C195.088 323.442 194.771 323.272 194.411 323.153C194.056 323.035 193.67 322.976 193.254 322.976C192.501 322.976 191.845 323.163 191.286 323.537C190.728 323.906 190.294 324.446 189.987 325.156C189.679 325.862 189.525 326.719 189.525 327.727C189.525 328.764 189.679 329.635 189.987 330.341C190.299 331.046 190.735 331.579 191.293 331.939C191.852 332.299 192.498 332.479 193.232 332.479C193.644 332.479 194.025 332.424 194.376 332.315C194.731 332.206 195.046 332.048 195.32 331.839C195.595 331.626 195.822 331.368 196.002 331.065C196.187 330.762 196.315 330.417 196.386 330.028L199.496 330.043C199.416 330.71 199.215 331.354 198.893 331.974C198.576 332.59 198.147 333.142 197.607 333.629C197.072 334.112 196.433 334.496 195.69 334.78C194.951 335.059 194.115 335.199 193.183 335.199C191.885 335.199 190.725 334.905 189.702 334.318C188.684 333.731 187.879 332.881 187.288 331.768C186.701 330.656 186.407 329.309 186.407 327.727C186.407 326.141 186.705 324.792 187.302 323.679C187.898 322.566 188.708 321.719 189.731 321.136C190.754 320.549 191.904 320.256 193.183 320.256C194.025 320.256 194.807 320.374 195.526 320.611C196.251 320.848 196.892 321.193 197.451 321.648C198.01 322.098 198.464 322.649 198.815 323.303C199.17 323.956 199.397 324.704 199.496 325.547ZM201.702 335V320.455H211.503V322.99H204.777V326.456H210.999V328.991H204.777V332.464H211.531V335H201.702ZM226.114 320.455V335H223.458L217.13 325.845H217.023V335H213.948V320.455H216.647L222.925 329.602H223.053V320.455H226.114ZM228.101 322.99V320.455H240.047V322.99H235.594V335H232.554V322.99H228.101ZM242.014 335V320.455H251.815V322.99H245.089V326.456H251.311V328.991H245.089V332.464H251.844V335H242.014ZM254.26 335V320.455H259.999C261.097 320.455 262.035 320.651 262.811 321.044C263.593 321.432 264.187 321.984 264.594 322.699C265.006 323.409 265.212 324.245 265.212 325.206C265.212 326.172 265.004 327.003 264.587 327.699C264.17 328.39 263.567 328.92 262.776 329.29C261.99 329.659 261.038 329.844 259.921 329.844H256.078V327.372H259.424C260.011 327.372 260.498 327.292 260.887 327.131C261.275 326.97 261.564 326.728 261.753 326.406C261.947 326.084 262.044 325.684 262.044 325.206C262.044 324.723 261.947 324.316 261.753 323.984C261.564 323.653 261.273 323.402 260.88 323.232C260.491 323.056 260.001 322.969 259.409 322.969H257.336V335H254.26ZM262.115 328.381L265.73 335H262.336L258.799 328.381H262.115Z" fill="#31A6E0"/>
<path d="M74.402 371V343.364H80.245V354.766H92.1065V343.364H97.9361V371H92.1065V359.584H80.245V371H74.402ZM112.55 371H102.754V343.364H112.631C115.411 343.364 117.804 343.917 119.81 345.023C121.817 346.121 123.359 347.7 124.439 349.76C125.527 351.82 126.072 354.285 126.072 357.155C126.072 360.034 125.527 362.508 124.439 364.577C123.359 366.646 121.808 368.234 119.783 369.34C117.768 370.447 115.357 371 112.55 371ZM108.597 365.994H112.308C114.035 365.994 115.488 365.688 116.666 365.076C117.854 364.455 118.744 363.497 119.338 362.202C119.941 360.897 120.242 359.215 120.242 357.155C120.242 355.113 119.941 353.444 119.338 352.148C118.744 350.853 117.858 349.899 116.68 349.288C115.501 348.676 114.048 348.37 112.321 348.37H108.597V365.994ZM130.4 371V343.364H141.303C143.391 343.364 145.172 343.737 146.647 344.484C148.132 345.221 149.261 346.269 150.034 347.628C150.817 348.977 151.208 350.565 151.208 352.391C151.208 354.227 150.812 355.805 150.021 357.128C149.229 358.441 148.082 359.449 146.58 360.151C145.086 360.852 143.278 361.203 141.155 361.203H133.855V356.507H140.21C141.326 356.507 142.253 356.354 142.99 356.048C143.728 355.742 144.277 355.284 144.637 354.672C145.005 354.06 145.19 353.3 145.19 352.391C145.19 351.474 145.005 350.7 144.637 350.07C144.277 349.441 143.723 348.964 142.977 348.64C142.239 348.307 141.308 348.141 140.183 348.141H136.243V371H130.4ZM145.325 358.423L152.193 371H145.743L139.023 358.423H145.325ZM179.722 353.039H173.811C173.703 352.274 173.483 351.595 173.15 351.001C172.817 350.399 172.39 349.886 171.868 349.463C171.346 349.04 170.744 348.716 170.06 348.491C169.385 348.267 168.652 348.154 167.86 348.154C166.43 348.154 165.184 348.509 164.122 349.22C163.061 349.922 162.238 350.947 161.653 352.297C161.068 353.637 160.776 355.266 160.776 357.182C160.776 359.152 161.068 360.807 161.653 362.148C162.247 363.488 163.074 364.5 164.136 365.184C165.197 365.868 166.425 366.21 167.82 366.21C168.602 366.21 169.327 366.106 169.992 365.899C170.667 365.692 171.265 365.391 171.787 364.995C172.309 364.59 172.741 364.1 173.083 363.524C173.433 362.948 173.676 362.292 173.811 361.554L179.722 361.581C179.569 362.849 179.186 364.073 178.575 365.251C177.972 366.421 177.158 367.469 176.132 368.396C175.116 369.313 173.901 370.042 172.489 370.582C171.085 371.112 169.498 371.378 167.725 371.378C165.26 371.378 163.056 370.82 161.113 369.705C159.179 368.589 157.65 366.974 156.525 364.86C155.41 362.746 154.852 360.187 154.852 357.182C154.852 354.168 155.419 351.604 156.552 349.49C157.686 347.376 159.224 345.766 161.167 344.659C163.11 343.544 165.296 342.986 167.725 342.986C169.327 342.986 170.811 343.211 172.178 343.661C173.555 344.11 174.774 344.767 175.835 345.631C176.897 346.485 177.761 347.533 178.426 348.775C179.101 350.016 179.533 351.438 179.722 353.039Z" fill="white"/>
</g>
<defs>
<linearGradient id="paint0_linear_5_2" x1="0" y1="0" x2="475.22" y2="731.107" gradientUnits="userSpaceOnUse">
<stop stop-color="#0F172A"/>
<stop offset="1" stop-color="#192D3D"/>
</linearGradient>
<clipPath id="clip0_5_2">
<rect width="800" height="520" fill="white"/>
</clipPath>
</defs>
</svg>
