<svg width="800" height="520" viewBox="0 0 800 520" fill="none" xmlns="http://www.w3.org/2000/svg">
<g clip-path="url(#clip0_5_51)">
<path d="M800 0H0V520H800V0Z" fill="url(#paint0_linear_5_51)"/>
<path d="M172 148H92C80.9543 148 72 156.954 72 168V248C72 259.046 80.9543 268 92 268H172C183.046 268 192 259.046 192 248V168C192 156.954 183.046 148 172 148Z" stroke="#0098D9" stroke-opacity="0.85" stroke-width="2"/>
<path d="M111.653 194.273V219H106.425V194.273H111.653ZM115.954 219V194.273H125.854C127.674 194.273 129.191 194.542 130.406 195.082C131.622 195.621 132.535 196.37 133.147 197.327C133.759 198.277 134.065 199.372 134.065 200.612C134.065 201.577 133.871 202.427 133.485 203.159C133.099 203.884 132.567 204.479 131.891 204.946C131.223 205.405 130.459 205.731 129.597 205.924V206.165C130.539 206.206 131.42 206.471 132.241 206.962C133.071 207.453 133.743 208.142 134.258 209.027C134.773 209.904 135.031 210.951 135.031 212.166C135.031 213.478 134.705 214.649 134.053 215.68C133.409 216.702 132.455 217.511 131.191 218.107C129.927 218.702 128.37 219 126.518 219H115.954ZM121.182 214.726H125.444C126.901 214.726 127.963 214.448 128.631 213.893C129.299 213.329 129.634 212.581 129.634 211.647C129.634 210.963 129.469 210.359 129.138 209.836C128.808 209.313 128.338 208.902 127.726 208.604C127.122 208.307 126.402 208.158 125.565 208.158H121.182V214.726ZM121.182 204.62H125.058C125.774 204.62 126.41 204.495 126.965 204.246C127.529 203.988 127.971 203.626 128.293 203.159C128.623 202.692 128.788 202.133 128.788 201.481C128.788 200.587 128.47 199.867 127.835 199.32C127.207 198.772 126.313 198.499 125.154 198.499H121.182V204.62ZM138.432 219V194.273H143.66V205.175H143.986L152.885 194.273H159.151L149.975 205.344L159.26 219H153.006L146.232 208.834L143.66 211.973V219H138.432Z" fill="#0098D9"/>
<path d="M73.2642 320.455H77.0568L81.0625 330.227H81.233L85.2386 320.455H89.0312V335H86.0483V325.533H85.9276L82.1634 334.929H80.1321L76.3679 325.497H76.2472V335H73.2642V320.455ZM104.931 327.727C104.931 329.313 104.631 330.663 104.029 331.776C103.433 332.888 102.618 333.738 101.586 334.325C100.559 334.908 99.4035 335.199 98.1204 335.199C96.8278 335.199 95.6677 334.905 94.6403 334.318C93.6128 333.731 92.8008 332.881 92.2042 331.768C91.6076 330.656 91.3093 329.309 91.3093 327.727C91.3093 326.141 91.6076 324.792 92.2042 323.679C92.8008 322.566 93.6128 321.719 94.6403 321.136C95.6677 320.549 96.8278 320.256 98.1204 320.256C99.4035 320.256 100.559 320.549 101.586 321.136C102.618 321.719 103.433 322.566 104.029 323.679C104.631 324.792 104.931 326.141 104.931 327.727ZM101.814 327.727C101.814 326.7 101.66 325.833 101.352 325.128C101.049 324.422 100.62 323.887 100.066 323.523C99.5124 323.158 98.8638 322.976 98.1204 322.976C97.377 322.976 96.7283 323.158 96.1744 323.523C95.6204 323.887 95.1895 324.422 94.8817 325.128C94.5787 325.833 94.4272 326.7 94.4272 327.727C94.4272 328.755 94.5787 329.621 94.8817 330.327C95.1895 331.032 95.6204 331.567 96.1744 331.932C96.7283 332.296 97.377 332.479 98.1204 332.479C98.8638 332.479 99.5124 332.296 100.066 331.932C100.62 331.567 101.049 331.032 101.352 330.327C101.66 329.621 101.814 328.755 101.814 327.727ZM107.21 335V320.455H113.033C114.103 320.455 114.996 320.613 115.711 320.93C116.426 321.248 116.963 321.688 117.323 322.251C117.683 322.81 117.863 323.454 117.863 324.183C117.863 324.751 117.749 325.251 117.522 325.682C117.295 326.108 116.982 326.458 116.585 326.733C116.192 327.003 115.742 327.195 115.235 327.308V327.45C115.789 327.474 116.308 327.63 116.79 327.919C117.278 328.208 117.674 328.613 117.977 329.134C118.28 329.65 118.431 330.265 118.431 330.98C118.431 331.752 118.239 332.441 117.856 333.047C117.477 333.648 116.916 334.124 116.173 334.474C115.429 334.825 114.513 335 113.424 335H107.21ZM110.285 332.486H112.792C113.649 332.486 114.274 332.322 114.667 331.996C115.06 331.664 115.256 331.224 115.256 330.675C115.256 330.272 115.159 329.917 114.965 329.609C114.771 329.302 114.494 329.06 114.134 328.885C113.779 328.71 113.355 328.622 112.863 328.622H110.285V332.486ZM110.285 326.541H112.565C112.986 326.541 113.36 326.468 113.687 326.321C114.018 326.17 114.279 325.956 114.468 325.682C114.662 325.407 114.759 325.078 114.759 324.695C114.759 324.169 114.572 323.745 114.198 323.423C113.829 323.101 113.303 322.94 112.621 322.94H110.285V326.541ZM123.507 320.455V335H120.432V320.455H123.507ZM126.038 335V320.455H129.113V332.464H135.349V335H126.038ZM137.385 335V320.455H147.186V322.99H140.461V326.456H146.682V328.991H140.461V332.464H147.215V335H137.385ZM157.336 320.455V335H154.26V320.455H157.336ZM165.022 335H159.866V320.455H165.065C166.528 320.455 167.787 320.746 168.843 321.328C169.899 321.906 170.711 322.737 171.279 323.821C171.852 324.905 172.138 326.203 172.138 327.713C172.138 329.228 171.852 330.53 171.279 331.619C170.711 332.708 169.894 333.544 168.829 334.126C167.768 334.709 166.499 335 165.022 335ZM162.941 332.365H164.894C165.803 332.365 166.568 332.204 167.188 331.882C167.813 331.555 168.282 331.051 168.594 330.369C168.912 329.683 169.07 328.797 169.07 327.713C169.07 326.638 168.912 325.76 168.594 325.078C168.282 324.396 167.816 323.894 167.195 323.572C166.575 323.25 165.81 323.089 164.901 323.089H162.941V332.365ZM186.936 324.638C186.879 324.065 186.635 323.62 186.205 323.303C185.774 322.985 185.189 322.827 184.45 322.827C183.948 322.827 183.525 322.898 183.179 323.04C182.833 323.177 182.568 323.369 182.384 323.615C182.204 323.861 182.114 324.141 182.114 324.453C182.104 324.714 182.159 324.941 182.277 325.135C182.4 325.329 182.568 325.497 182.781 325.639C182.994 325.777 183.241 325.897 183.52 326.001C183.799 326.101 184.098 326.186 184.415 326.257L185.722 326.57C186.356 326.712 186.938 326.901 187.469 327.138C187.999 327.375 188.458 327.666 188.847 328.011C189.235 328.357 189.536 328.764 189.749 329.233C189.966 329.702 190.078 330.239 190.082 330.845C190.078 331.735 189.85 332.507 189.401 333.161C188.955 333.809 188.312 334.313 187.469 334.673C186.631 335.028 185.62 335.206 184.436 335.206C183.262 335.206 182.239 335.026 181.368 334.666C180.501 334.306 179.824 333.774 179.337 333.068C178.854 332.358 178.6 331.48 178.577 330.433H181.553C181.586 330.921 181.725 331.328 181.972 331.655C182.223 331.977 182.556 332.221 182.973 332.386C183.394 332.547 183.87 332.628 184.401 332.628C184.921 332.628 185.374 332.552 185.757 332.401C186.145 332.249 186.446 332.038 186.659 331.768C186.872 331.499 186.979 331.188 186.979 330.838C186.979 330.511 186.882 330.237 186.688 330.014C186.498 329.792 186.219 329.602 185.849 329.446C185.485 329.29 185.037 329.148 184.507 329.02L182.923 328.622C181.697 328.324 180.729 327.857 180.018 327.223C179.308 326.589 178.955 325.734 178.96 324.659C178.955 323.778 179.19 323.009 179.663 322.351C180.142 321.693 180.797 321.179 181.631 320.81C182.464 320.44 183.411 320.256 184.472 320.256C185.551 320.256 186.493 320.44 187.298 320.81C188.108 321.179 188.738 321.693 189.188 322.351C189.637 323.009 189.869 323.771 189.884 324.638H186.936ZM192.151 335V320.455H201.952V322.99H195.226V326.456H201.448V328.991H195.226V332.464H201.98V335H192.151ZM204.397 335V320.455H210.136C211.234 320.455 212.172 320.651 212.948 321.044C213.729 321.432 214.324 321.984 214.731 322.699C215.143 323.409 215.349 324.245 215.349 325.206C215.349 326.172 215.14 327.003 214.724 327.699C214.307 328.39 213.703 328.92 212.913 329.29C212.127 329.659 211.175 329.844 210.058 329.844H206.215V327.372H209.56C210.147 327.372 210.635 327.292 211.023 327.131C211.412 326.97 211.701 326.728 211.89 326.406C212.084 326.084 212.181 325.684 212.181 325.206C212.181 324.723 212.084 324.316 211.89 323.984C211.701 323.653 211.409 323.402 211.016 323.232C210.628 323.056 210.138 322.969 209.546 322.969H207.472V335H204.397ZM212.252 328.381L215.867 335H212.472L208.935 328.381H212.252ZM219.759 320.455L223.275 331.506H223.41L226.933 320.455H230.342L225.327 335H221.364L216.343 320.455H219.759ZM235.168 320.455V335H232.092V320.455H235.168ZM250.532 325.547H247.421C247.364 325.144 247.248 324.787 247.073 324.474C246.898 324.157 246.673 323.887 246.398 323.665C246.123 323.442 245.806 323.272 245.446 323.153C245.091 323.035 244.705 322.976 244.289 322.976C243.536 322.976 242.88 323.163 242.321 323.537C241.763 323.906 241.329 324.446 241.022 325.156C240.714 325.862 240.56 326.719 240.56 327.727C240.56 328.764 240.714 329.635 241.022 330.341C241.334 331.046 241.77 331.579 242.328 331.939C242.887 332.299 243.533 332.479 244.267 332.479C244.679 332.479 245.06 332.424 245.411 332.315C245.766 332.206 246.081 332.048 246.355 331.839C246.63 331.626 246.857 331.368 247.037 331.065C247.222 330.762 247.35 330.417 247.421 330.028L250.532 330.043C250.451 330.71 250.25 331.354 249.928 331.974C249.611 332.59 249.182 333.142 248.642 333.629C248.107 334.112 247.468 334.496 246.725 334.78C245.986 335.059 245.15 335.199 244.218 335.199C242.92 335.199 241.76 334.905 240.738 334.318C239.72 333.731 238.915 332.881 238.323 331.768C237.736 330.656 237.442 329.309 237.442 327.727C237.442 326.141 237.74 324.792 238.337 323.679C238.934 322.566 239.743 321.719 240.766 321.136C241.789 320.549 242.939 320.256 244.218 320.256C245.06 320.256 245.842 320.374 246.561 320.611C247.286 320.848 247.927 321.193 248.486 321.648C249.045 322.098 249.499 322.649 249.85 323.303C250.205 323.956 250.432 324.704 250.532 325.547ZM252.737 335V320.455H262.538V322.99H255.812V326.456H262.034V328.991H255.812V332.464H262.566V335H252.737Z" fill="#0098D9"/>
<path d="M78.9432 347.727V371H74.0227V347.727H78.9432ZM82.9915 371V347.727H92.3097C94.0218 347.727 95.4498 347.981 96.5938 348.489C97.7377 348.996 98.5975 349.701 99.1733 350.602C99.7491 351.496 100.037 352.527 100.037 353.693C100.037 354.602 99.8551 355.402 99.4915 356.091C99.1278 356.773 98.6278 357.333 97.9915 357.773C97.3627 358.205 96.643 358.511 95.8324 358.693V358.92C96.7188 358.958 97.5483 359.208 98.321 359.67C99.1013 360.133 99.7339 360.78 100.219 361.614C100.704 362.439 100.946 363.424 100.946 364.568C100.946 365.803 100.639 366.905 100.026 367.875C99.4195 368.837 98.5218 369.598 97.3324 370.159C96.143 370.72 94.6771 371 92.9347 371H82.9915ZM87.9119 366.977H91.9233C93.2945 366.977 94.2945 366.716 94.9233 366.193C95.5521 365.663 95.8665 364.958 95.8665 364.08C95.8665 363.436 95.7112 362.867 95.4006 362.375C95.09 361.883 94.6468 361.496 94.071 361.216C93.5028 360.936 92.8248 360.795 92.0369 360.795H87.9119V366.977ZM87.9119 357.466H91.5597C92.2339 357.466 92.8324 357.348 93.3551 357.114C93.8854 356.871 94.3021 356.53 94.6051 356.091C94.9157 355.652 95.071 355.125 95.071 354.511C95.071 353.67 94.7718 352.992 94.1733 352.477C93.5824 351.962 92.7415 351.705 91.6506 351.705H87.9119V357.466ZM104.148 371V347.727H109.068V357.989H109.375L117.75 347.727H123.648L115.011 358.148L123.75 371H117.864L111.489 361.432L109.068 364.386V371H104.148ZM132.906 366.936H159.754V370.392H132.906V366.936ZM144.17 360.408H148.394V367.768H144.17V360.408ZM135.722 346.392H156.81V360.952H135.722V346.392ZM152.618 349.752H139.914V357.56H152.618V349.752ZM181.255 344.216H185.543V373.848H181.255V344.216ZM184.615 355.224H189.831V358.744H184.615V355.224ZM163.239 346.52H167.463V353.752H173.415V346.52H177.639V366.968H163.239V346.52ZM167.463 357.048V363.576H173.415V357.048H167.463ZM200.101 345.048C201.637 345.048 202.991 345.347 204.165 345.944C205.359 346.52 206.298 347.32 206.981 348.344C207.685 349.347 208.037 350.509 208.037 351.832C208.037 353.155 207.685 354.328 206.981 355.352C206.298 356.355 205.359 357.144 204.165 357.72C202.991 358.296 201.637 358.584 200.101 358.584C198.607 358.584 197.263 358.296 196.069 357.72C194.874 357.144 193.925 356.355 193.221 355.352C192.538 354.328 192.197 353.155 192.197 351.832C192.197 350.509 192.538 349.336 193.221 348.312C193.925 347.288 194.874 346.488 196.069 345.912C197.263 345.336 198.607 345.048 200.101 345.048ZM200.133 348.504C199.407 348.504 198.757 348.643 198.181 348.92C197.605 349.176 197.146 349.549 196.805 350.04C196.485 350.531 196.325 351.128 196.325 351.832C196.325 352.536 196.485 353.144 196.805 353.656C197.146 354.147 197.594 354.52 198.149 354.776C198.725 355.032 199.386 355.16 200.133 355.16C200.858 355.16 201.498 355.032 202.053 354.776C202.629 354.52 203.077 354.147 203.397 353.656C203.738 353.144 203.909 352.536 203.909 351.832C203.909 351.128 203.738 350.531 203.397 350.04C203.077 349.549 202.629 349.176 202.053 348.92C201.477 348.643 200.837 348.504 200.133 348.504ZM212.133 344.216H216.389V359.032H212.133V344.216ZM196.645 360.248H216.389V368.344H200.869V371.96H196.677V365.272H212.165V363.512H196.645V360.248ZM196.677 370.2H217.125V373.528H196.677V370.2ZM248.977 344.216H253.233V365.816H248.977V344.216ZM233.489 369.912H254.001V373.336H233.489V369.912ZM233.489 363.736H237.745V371.672H233.489V363.736ZM235.569 345.848H239.089V348.728C239.089 350.648 238.779 352.483 238.161 354.232C237.563 355.981 236.646 357.517 235.409 358.84C234.171 360.163 232.593 361.165 230.673 361.848L228.497 358.456C230.161 357.88 231.505 357.08 232.529 356.056C233.574 355.032 234.342 353.88 234.833 352.6C235.323 351.32 235.569 350.029 235.569 348.728V345.848ZM236.433 345.848H239.889V348.728C239.889 349.688 240.017 350.637 240.273 351.576C240.55 352.493 240.966 353.368 241.521 354.2C242.075 355.011 242.79 355.747 243.665 356.408C244.539 357.069 245.574 357.592 246.769 357.976L244.625 361.336C242.747 360.717 241.201 359.779 239.985 358.52C238.769 357.261 237.873 355.789 237.297 354.104C236.721 352.419 236.433 350.627 236.433 348.728V345.848ZM258.03 359.352H284.878V362.712H258.03V359.352ZM269.678 361.176H273.934V367.416H269.678V361.176ZM261.134 369.912H281.902V373.336H261.134V369.912ZM261.134 365.176H265.39V371.352H261.134V365.176ZM261.454 345.144H265.646V348.152H277.23V345.144H281.454V357.304H261.454V345.144ZM265.646 351.352V354.008H277.23V351.352H265.646ZM287.468 357.88H314.284V361.24H287.468V357.88ZM300.812 362.872C304.012 362.872 306.529 363.352 308.364 364.312C310.198 365.272 311.116 366.616 311.116 368.344C311.116 370.093 310.198 371.448 308.364 372.408C306.529 373.368 304.012 373.848 300.812 373.848C297.612 373.848 295.094 373.368 293.26 372.408C291.446 371.448 290.54 370.093 290.54 368.344C290.54 366.616 291.446 365.272 293.26 364.312C295.094 363.352 297.612 362.872 300.812 362.872ZM300.812 366.136C299.489 366.136 298.38 366.221 297.484 366.392C296.609 366.541 295.948 366.776 295.5 367.096C295.052 367.416 294.828 367.832 294.828 368.344C294.828 368.856 295.052 369.283 295.5 369.624C295.948 369.944 296.609 370.179 297.484 370.328C298.38 370.477 299.489 370.552 300.812 370.552C302.134 370.552 303.233 370.477 304.108 370.328C305.004 370.179 305.676 369.944 306.124 369.624C306.572 369.283 306.796 368.856 306.796 368.344C306.796 367.832 306.572 367.416 306.124 367.096C305.676 366.776 305.004 366.541 304.108 366.392C303.233 366.221 302.134 366.136 300.812 366.136ZM297.964 347.256H301.74V347.96C301.74 348.835 301.58 349.688 301.26 350.52C300.94 351.331 300.46 352.088 299.82 352.792C299.201 353.475 298.422 354.093 297.484 354.648C296.545 355.181 295.457 355.629 294.22 355.992C292.982 356.355 291.606 356.611 290.092 356.76L288.62 353.432C289.921 353.325 291.073 353.144 292.076 352.888C293.1 352.611 293.974 352.291 294.7 351.928C295.446 351.544 296.054 351.139 296.524 350.712C297.014 350.285 297.377 349.837 297.612 349.368C297.846 348.877 297.964 348.408 297.964 347.96V347.256ZM300.044 347.256H303.788V347.96C303.788 348.429 303.905 348.899 304.14 349.368C304.374 349.837 304.726 350.296 305.196 350.744C305.686 351.171 306.294 351.576 307.02 351.96C307.766 352.323 308.641 352.632 309.644 352.888C310.668 353.144 311.83 353.325 313.132 353.432L311.66 356.76C310.145 356.611 308.769 356.365 307.532 356.024C306.294 355.661 305.206 355.203 304.267 354.648C303.35 354.093 302.572 353.475 301.932 352.792C301.313 352.088 300.844 351.331 300.524 350.52C300.204 349.709 300.044 348.856 300.044 347.96V347.256ZM289.932 345.592H311.884V348.952H289.932V345.592Z" fill="white"/>
</g>
<defs>
<linearGradient id="paint0_linear_5_51" x1="0" y1="0" x2="475.22" y2="731.107" gradientUnits="userSpaceOnUse">
<stop stop-color="#0F172A"/>
<stop offset="1" stop-color="#152D3D"/>
</linearGradient>
<clipPath id="clip0_5_51">
<rect width="800" height="520" fill="white"/>
</clipPath>
</defs>
</svg>
