<svg width="800" height="520" viewBox="0 0 800 520" fill="none" xmlns="http://www.w3.org/2000/svg">
<g clip-path="url(#clip0_1_16)">
<path d="M800 0H0V520H800V0Z" fill="url(#paint0_linear_1_16)"/>
<path d="M172 148H92C80.9543 148 72 156.954 72 168V248C72 259.046 80.9543 268 92 268H172C183.046 268 192 259.046 192 248V168C192 156.954 183.046 148 172 148Z" stroke="#1D4ED8" stroke-opacity="0.85" stroke-width="2"/>
<path d="M94.2339 219V188.455H100.692V201.923H101.095L112.087 188.455H119.828L108.492 202.131L119.962 219H112.236L103.869 206.442L100.692 210.32V219H94.2339ZM122.028 193.779V188.455H147.114V193.779H137.763V219H131.379V193.779H122.028ZM151.246 219V188.455H157.704V213.675H170.799V219H151.246Z" fill="#1D4ED8"/>
<path d="M81.1548 324.638C81.098 324.065 80.8542 323.62 80.4233 323.303C79.9924 322.985 79.4077 322.827 78.669 322.827C78.1671 322.827 77.7434 322.898 77.3977 323.04C77.0521 323.177 76.7869 323.369 76.6023 323.615C76.4223 323.861 76.3324 324.141 76.3324 324.453C76.3229 324.714 76.3774 324.941 76.4957 325.135C76.6188 325.329 76.7869 325.497 77 325.639C77.2131 325.777 77.4593 325.897 77.7386 326.001C78.018 326.101 78.3163 326.186 78.6335 326.257L79.9403 326.57C80.5748 326.712 81.1572 326.901 81.6875 327.138C82.2178 327.375 82.6771 327.666 83.0653 328.011C83.4536 328.357 83.7543 328.764 83.9673 329.233C84.1851 329.702 84.2964 330.239 84.3011 330.845C84.2964 331.735 84.0691 332.507 83.6193 333.161C83.1742 333.809 82.5303 334.313 81.6875 334.673C80.8494 335.028 79.8385 335.206 78.6548 335.206C77.4806 335.206 76.4579 335.026 75.5866 334.666C74.7202 334.306 74.0431 333.774 73.5554 333.068C73.0724 332.358 72.8191 331.48 72.7955 330.433H75.7713C75.8045 330.921 75.9441 331.328 76.1903 331.655C76.4413 331.977 76.7751 332.221 77.1918 332.386C77.6132 332.547 78.089 332.628 78.6193 332.628C79.1402 332.628 79.5923 332.552 79.9759 332.401C80.3641 332.249 80.6648 332.038 80.8778 331.768C81.0909 331.499 81.1974 331.188 81.1974 330.838C81.1974 330.511 81.1004 330.237 80.9062 330.014C80.7169 329.792 80.4375 329.602 80.0682 329.446C79.7036 329.29 79.2562 329.148 78.7259 329.02L77.142 328.622C75.9157 328.324 74.9474 327.857 74.2372 327.223C73.527 326.589 73.1742 325.734 73.179 324.659C73.1742 323.778 73.4086 323.009 73.8821 322.351C74.3603 321.693 75.0161 321.179 75.8494 320.81C76.6828 320.44 77.6297 320.256 78.6903 320.256C79.7699 320.256 80.7121 320.44 81.517 320.81C82.3267 321.179 82.9564 321.693 83.4062 322.351C83.8561 323.009 84.0881 323.771 84.1023 324.638H81.1548ZM86.3697 335V320.455H96.1708V322.99H89.445V326.456H95.6665V328.991H89.445V332.464H96.1992V335H86.3697ZM98.6158 335V320.455H104.354C105.453 320.455 106.39 320.651 107.167 321.044C107.948 321.432 108.542 321.984 108.95 322.699C109.362 323.409 109.567 324.245 109.567 325.206C109.567 326.172 109.359 327.003 108.942 327.699C108.526 328.39 107.922 328.92 107.131 329.29C106.345 329.659 105.394 329.844 104.276 329.844H100.434V327.372H103.779C104.366 327.372 104.854 327.292 105.242 327.131C105.63 326.97 105.919 326.728 106.109 326.406C106.303 326.084 106.4 325.684 106.4 325.206C106.4 324.723 106.303 324.316 106.109 323.984C105.919 323.653 105.628 323.402 105.235 323.232C104.847 323.056 104.357 322.969 103.765 322.969H101.691V335H98.6158ZM106.471 328.381L110.086 335H106.691L103.154 328.381H106.471ZM113.978 320.455L117.494 331.506H117.629L121.151 320.455H124.56L119.546 335H115.583L110.562 320.455H113.978ZM129.386 320.455V335H126.311V320.455H129.386ZM144.75 325.547H141.64C141.583 325.144 141.467 324.787 141.292 324.474C141.116 324.157 140.891 323.887 140.617 323.665C140.342 323.442 140.025 323.272 139.665 323.153C139.31 323.035 138.924 322.976 138.507 322.976C137.755 322.976 137.099 323.163 136.54 323.537C135.981 323.906 135.548 324.446 135.24 325.156C134.933 325.862 134.779 326.719 134.779 327.727C134.779 328.764 134.933 329.635 135.24 330.341C135.553 331.046 135.989 331.579 136.547 331.939C137.106 332.299 137.752 332.479 138.486 332.479C138.898 332.479 139.279 332.424 139.63 332.315C139.985 332.206 140.3 332.048 140.574 331.839C140.849 331.626 141.076 331.368 141.256 331.065C141.441 330.762 141.569 330.417 141.64 330.028L144.75 330.043C144.67 330.71 144.469 331.354 144.147 331.974C143.829 332.59 143.401 333.142 142.861 333.629C142.326 334.112 141.687 334.496 140.944 334.78C140.205 335.059 139.369 335.199 138.436 335.199C137.139 335.199 135.979 334.905 134.956 334.318C133.938 333.731 133.133 332.881 132.542 331.768C131.954 330.656 131.661 329.309 131.661 327.727C131.661 326.141 131.959 324.792 132.556 323.679C133.152 322.566 133.962 321.719 134.985 321.136C136.007 320.549 137.158 320.256 138.436 320.256C139.279 320.256 140.06 320.374 140.78 320.611C141.505 320.848 142.146 321.193 142.705 321.648C143.264 322.098 143.718 322.649 144.069 323.303C144.424 323.956 144.651 324.704 144.75 325.547ZM146.956 335V320.455H156.757V322.99H150.031V326.456H156.252V328.991H150.031V332.464H156.785V335H146.956ZM163.831 335V320.455H169.569C170.668 320.455 171.605 320.651 172.382 321.044C173.163 321.432 173.757 321.984 174.164 322.699C174.576 323.409 174.782 324.245 174.782 325.206C174.782 326.172 174.574 327.003 174.157 327.699C173.741 328.39 173.137 328.92 172.346 329.29C171.56 329.659 170.609 329.844 169.491 329.844H165.649V327.372H168.994C169.581 327.372 170.069 327.292 170.457 327.131C170.845 326.97 171.134 326.728 171.324 326.406C171.518 326.084 171.615 325.684 171.615 325.206C171.615 324.723 171.518 324.316 171.324 323.984C171.134 323.653 170.843 323.402 170.45 323.232C170.062 323.056 169.572 322.969 168.98 322.969H166.906V335H163.831ZM171.686 328.381L175.301 335H171.906L168.369 328.381H171.686ZM176.956 335V320.455H186.757V322.99H180.031V326.456H186.252V328.991H180.031V332.464H186.785V335H176.956ZM201.368 320.455V335H198.712L192.384 325.845H192.277V335H189.202V320.455H191.901L198.179 329.602H198.307V320.455H201.368ZM203.909 335V320.455H213.71V322.99H206.984V326.456H213.206V328.991H206.984V332.464H213.738V335H203.909ZM219.429 335L215.267 320.455H218.626L221.034 330.561H221.155L223.811 320.455H226.688L229.337 330.582H229.464L231.872 320.455H235.232L231.07 335H228.072L225.303 325.49H225.189L222.426 335H219.429ZM237.92 335H234.624L239.646 320.455H243.609L248.623 335H245.327L241.684 323.778H241.57L237.92 335ZM237.714 329.283H245.498V331.683H237.714V329.283ZM250.374 335V320.455H253.449V332.464H259.685V335H250.374Z" fill="#1D4ED8"/>
<path d="M74.1491 371V346.273H79.3771V357.175H79.7031L88.6016 346.273H94.8679L85.6918 357.344L94.9766 371H88.7223L81.9489 360.834L79.3771 363.973V371H74.1491ZM101.853 371H96.2504L104.787 346.273H111.524L120.048 371H114.446L108.252 351.923H108.059L101.853 371ZM101.502 361.281H114.735V365.362H101.502V361.281ZM135.874 353.384C135.777 352.41 135.363 351.654 134.63 351.114C133.898 350.575 132.904 350.305 131.648 350.305C130.795 350.305 130.074 350.426 129.487 350.668C128.899 350.901 128.448 351.227 128.134 351.646C127.829 352.064 127.676 352.539 127.676 353.07C127.66 353.513 127.752 353.899 127.953 354.229C128.163 354.559 128.448 354.845 128.811 355.087C129.173 355.32 129.591 355.525 130.066 355.702C130.541 355.871 131.048 356.016 131.588 356.137L133.809 356.668C134.888 356.91 135.878 357.232 136.779 357.634C137.681 358.037 138.462 358.532 139.122 359.119C139.782 359.707 140.293 360.399 140.655 361.196C141.025 361.993 141.214 362.906 141.222 363.937C141.214 365.45 140.828 366.762 140.063 367.873C139.307 368.976 138.212 369.833 136.779 370.445C135.355 371.048 133.636 371.35 131.624 371.35C129.628 371.35 127.889 371.044 126.408 370.433C124.935 369.821 123.784 368.915 122.955 367.716C122.134 366.509 121.703 365.015 121.663 363.237H126.722C126.778 364.066 127.016 364.758 127.434 365.313C127.861 365.861 128.428 366.275 129.137 366.557C129.853 366.83 130.662 366.967 131.563 366.967C132.449 366.967 133.218 366.839 133.869 366.581C134.53 366.323 135.041 365.965 135.403 365.506C135.765 365.048 135.946 364.52 135.946 363.925C135.946 363.369 135.781 362.902 135.451 362.524C135.129 362.146 134.654 361.824 134.026 361.558C133.407 361.293 132.646 361.051 131.744 360.834L129.052 360.158C126.967 359.651 125.321 358.858 124.114 357.779C122.906 356.701 122.307 355.248 122.315 353.42C122.307 351.923 122.705 350.615 123.51 349.496C124.323 348.378 125.438 347.504 126.855 346.876C128.271 346.249 129.881 345.935 131.684 345.935C133.519 345.935 135.121 346.249 136.49 346.876C137.866 347.504 138.936 348.378 139.701 349.496C140.466 350.615 140.86 351.911 140.884 353.384H135.874ZM143.797 350.583V346.273H164.105V350.583H156.535V371H151.368V350.583H143.797ZM167.45 371V346.273H172.678V366.69H183.279V371H167.45ZM186.741 371V346.273H203.403V350.583H191.969V356.475H202.546V360.786H191.969V366.69H203.451V371H186.741ZM230.702 346.273H235.93V362.331C235.93 364.134 235.499 365.712 234.638 367.064C233.785 368.416 232.589 369.471 231.052 370.227C229.515 370.976 227.724 371.35 225.679 371.35C223.627 371.35 221.832 370.976 220.294 370.227C218.757 369.471 217.561 368.416 216.708 367.064C215.855 365.712 215.428 364.134 215.428 362.331V346.273H220.656V361.884C220.656 362.826 220.862 363.663 221.272 364.396C221.691 365.128 222.278 365.704 223.035 366.122C223.792 366.541 224.673 366.75 225.679 366.75C226.693 366.75 227.575 366.541 228.323 366.122C229.08 365.704 229.664 365.128 230.074 364.396C230.493 363.663 230.702 362.826 230.702 361.884V346.273ZM245.459 346.273V371H240.231V346.273H245.459ZM278.532 342.474H283.088V374.06H278.532V342.474ZM258.574 363.044H261.362C263.221 363.044 264.978 363.021 266.632 362.976C268.287 362.908 269.908 362.806 271.494 362.67C273.081 362.511 274.702 362.285 276.356 361.99L276.832 365.628C274.294 366.081 271.789 366.387 269.318 366.546C266.87 366.682 264.218 366.75 261.362 366.75H258.574V363.044ZM258.506 345.16H273.364V357.366H263.164V364.438H258.574V353.796H268.774V348.798H258.506V345.16ZM291.586 352.436H313.448V356.04H291.586V352.436ZM291.586 343.936H296.108V354.034H291.586V343.936ZM288.152 359.474H316.644V363.112H288.152V359.474ZM294.612 360.766H299.134V374.026H294.612V360.766ZM305.628 360.766H310.116V374.026H305.628V360.766ZM341.223 342.542H345.745V358.25H341.223V342.542ZM334.933 348.764H342.923V352.368H334.933V348.764ZM328.133 343.358C329.72 343.358 331.136 343.675 332.383 344.31C333.63 344.922 334.616 345.772 335.341 346.86C336.066 347.948 336.429 349.206 336.429 350.634C336.429 352.039 336.066 353.286 335.341 354.374C334.616 355.462 333.63 356.323 332.383 356.958C331.136 357.57 329.72 357.876 328.133 357.876C326.546 357.876 325.118 357.57 323.849 356.958C322.602 356.323 321.616 355.462 320.891 354.374C320.166 353.286 319.803 352.039 319.803 350.634C319.803 349.206 320.166 347.948 320.891 346.86C321.616 345.772 322.602 344.922 323.849 344.31C325.118 343.675 326.546 343.358 328.133 343.358ZM328.133 347.03C327.362 347.03 326.671 347.177 326.059 347.472C325.447 347.744 324.971 348.152 324.631 348.696C324.291 349.217 324.121 349.852 324.121 350.6C324.121 351.371 324.291 352.028 324.631 352.572C324.971 353.116 325.447 353.535 326.059 353.83C326.671 354.102 327.351 354.238 328.099 354.238C328.892 354.238 329.584 354.102 330.173 353.83C330.762 353.535 331.227 353.116 331.567 352.572C331.907 352.028 332.077 351.371 332.077 350.6C332.077 349.852 331.907 349.217 331.567 348.696C331.227 348.152 330.762 347.744 330.173 347.472C329.584 347.177 328.904 347.03 328.133 347.03ZM324.937 359.576H345.745V368.178H329.459V372.02H325.005V364.914H341.291V363.078H324.937V359.576ZM325.005 370.15H346.663V373.686H325.005V370.15Z" fill="white"/>
</g>
<defs>
<linearGradient id="paint0_linear_1_16" x1="0" y1="0" x2="475.22" y2="731.107" gradientUnits="userSpaceOnUse">
<stop stop-color="#0F172A"/>
<stop offset="1" stop-color="#1B2A52"/>
</linearGradient>
<clipPath id="clip0_1_16">
<rect width="800" height="520" fill="white"/>
</clipPath>
</defs>
</svg>
