<svg width="800" height="520" viewBox="0 0 800 520" fill="none" xmlns="http://www.w3.org/2000/svg">
<g clip-path="url(#clip0_5_58)">
<path d="M800 0H0V520H800V0Z" fill="url(#paint0_linear_5_58)"/>
<path d="M172 148H92C80.9543 148 72 156.954 72 168V248C72 259.046 80.9543 268 92 268H172C183.046 268 192 259.046 192 248V168C192 156.954 183.046 148 172 148Z" stroke="#009FEA" stroke-opacity="0.85" stroke-width="2"/>
<path d="M104.898 219V188.455H111.356V201.923H111.759L122.751 188.455H130.492L119.157 202.131L130.626 219H122.9L114.533 206.442L111.356 210.32V219H104.898ZM144.683 219H133.855V188.455H144.773C147.845 188.455 150.49 189.066 152.707 190.289C154.925 191.502 156.63 193.247 157.823 195.524C159.026 197.801 159.628 200.526 159.628 203.697C159.628 206.879 159.026 209.614 157.823 211.901C156.63 214.187 154.915 215.942 152.677 217.165C150.45 218.388 147.785 219 144.683 219ZM140.313 213.467H144.415C146.324 213.467 147.93 213.129 149.232 212.452C150.545 211.766 151.529 210.707 152.185 209.276C152.851 207.834 153.185 205.974 153.185 203.697C153.185 201.44 152.851 199.596 152.185 198.164C151.529 196.732 150.55 195.678 149.247 195.002C147.945 194.326 146.339 193.988 144.43 193.988H140.313V213.467Z" fill="#009FEA"/>
<path d="M75.7713 335H72.4759L77.4972 320.455H81.4602L86.4744 335H83.179L79.5355 323.778H79.4219L75.7713 335ZM75.5653 329.283H83.3494V331.683H75.5653V329.283ZM88.2251 335V320.455H93.9638C95.067 320.455 96.0069 320.665 96.7834 321.087C97.5599 321.503 98.1518 322.083 98.5589 322.827C98.9709 323.565 99.1768 324.418 99.1768 325.384C99.1768 326.349 98.9685 327.202 98.5518 327.94C98.1352 328.679 97.5315 329.254 96.7408 329.666C95.9548 330.078 95.0031 330.284 93.8857 330.284H90.228V327.82H93.3885C93.9804 327.82 94.468 327.718 94.8516 327.514C95.2398 327.306 95.5286 327.019 95.718 326.655C95.9122 326.286 96.0092 325.862 96.0092 325.384C96.0092 324.901 95.9122 324.479 95.718 324.119C95.5286 323.755 95.2398 323.473 94.8516 323.274C94.4633 323.071 93.9709 322.969 93.3743 322.969H91.3004V335H88.2251ZM101.174 335V320.455H106.913C108.016 320.455 108.956 320.665 109.733 321.087C110.509 321.503 111.101 322.083 111.508 322.827C111.92 323.565 112.126 324.418 112.126 325.384C112.126 326.349 111.918 327.202 111.501 327.94C111.084 328.679 110.481 329.254 109.69 329.666C108.904 330.078 107.952 330.284 106.835 330.284H103.177V327.82H106.338C106.93 327.82 107.417 327.718 107.801 327.514C108.189 327.306 108.478 327.019 108.667 326.655C108.861 326.286 108.958 325.862 108.958 325.384C108.958 324.901 108.861 324.479 108.667 324.119C108.478 323.755 108.189 323.473 107.801 323.274C107.413 323.071 106.92 322.969 106.324 322.969H104.25V335H101.174ZM127.49 327.727C127.49 329.313 127.189 330.663 126.588 331.776C125.991 332.888 125.177 333.738 124.145 334.325C123.117 334.908 121.962 335.199 120.679 335.199C119.386 335.199 118.226 334.905 117.199 334.318C116.171 333.731 115.359 332.881 114.763 331.768C114.166 330.656 113.868 329.309 113.868 327.727C113.868 326.141 114.166 324.792 114.763 323.679C115.359 322.566 116.171 321.719 117.199 321.136C118.226 320.549 119.386 320.256 120.679 320.256C121.962 320.256 123.117 320.549 124.145 321.136C125.177 321.719 125.991 322.566 126.588 323.679C127.189 324.792 127.49 326.141 127.49 327.727ZM124.372 327.727C124.372 326.7 124.218 325.833 123.911 325.128C123.607 324.422 123.179 323.887 122.625 323.523C122.071 323.158 121.422 322.976 120.679 322.976C119.936 322.976 119.287 323.158 118.733 323.523C118.179 323.887 117.748 324.422 117.44 325.128C117.137 325.833 116.986 326.7 116.986 327.727C116.986 328.755 117.137 329.621 117.44 330.327C117.748 331.032 118.179 331.567 118.733 331.932C119.287 332.296 119.936 332.479 120.679 332.479C121.422 332.479 122.071 332.296 122.625 331.932C123.179 331.567 123.607 331.032 123.911 330.327C124.218 329.621 124.372 328.755 124.372 327.727ZM132.843 320.455V335H129.768V320.455H132.843ZM147.54 320.455V335H144.884L138.555 325.845H138.449V335H135.374V320.455H138.072L144.351 329.602H144.479V320.455H147.54ZM149.527 322.99V320.455H161.473V322.99H157.02V335H153.98V322.99H149.527ZM163.44 320.455H167.233L171.238 330.227H171.409L175.414 320.455H179.207V335H176.224V325.533H176.103L172.339 334.929H170.308L166.544 325.497H166.423V335H163.44V320.455ZM181.741 335V320.455H191.542V322.99H184.816V326.456H191.038V328.991H184.816V332.464H191.57V335H181.741ZM206.153 320.455V335H203.497L197.169 325.845H197.062V335H193.987V320.455H196.686L202.964 329.602H203.092V320.455H206.153ZM208.14 322.99V320.455H220.086V322.99H215.633V335H212.593V322.99H208.14ZM226.682 335V320.455H229.757V332.464H235.993V335H226.682ZM238.03 335V320.455H247.831V322.99H241.105V326.456H247.327V328.991H241.105V332.464H247.859V335H238.03ZM249.722 322.99V320.455H261.668V322.99H257.215V335H254.175V322.99H249.722ZM263.081 322.99V320.455H275.027V322.99H270.574V335H267.534V322.99H263.081ZM276.995 335V320.455H286.796V322.99H280.07V326.456H286.292V328.991H280.07V332.464H286.824V335H276.995ZM289.241 335V320.455H294.979C296.078 320.455 297.015 320.651 297.792 321.044C298.573 321.432 299.167 321.984 299.575 322.699C299.987 323.409 300.192 324.245 300.192 325.206C300.192 326.172 299.984 327.003 299.567 327.699C299.151 328.39 298.547 328.92 297.756 329.29C296.97 329.659 296.019 329.844 294.901 329.844H291.059V327.372H294.404C294.991 327.372 295.479 327.292 295.867 327.131C296.255 326.97 296.544 326.728 296.734 326.406C296.928 326.084 297.025 325.684 297.025 325.206C297.025 324.723 296.928 324.316 296.734 323.984C296.544 323.653 296.253 323.402 295.86 323.232C295.472 323.056 294.982 322.969 294.39 322.969H292.316V335H289.241ZM297.096 328.381L300.711 335H297.316L293.779 328.381H297.096Z" fill="#009FEA"/>
<path d="M74.0227 371V347.727H78.9432V357.989H79.25L87.625 347.727H93.5227L84.8864 358.148L93.625 371H87.7386L81.3636 361.432L78.9432 364.386V371H74.0227ZM104.335 371H96.0852V347.727H104.403C106.744 347.727 108.759 348.193 110.449 349.125C112.138 350.049 113.438 351.379 114.347 353.114C115.263 354.848 115.722 356.924 115.722 359.341C115.722 361.765 115.263 363.848 114.347 365.591C113.438 367.333 112.131 368.67 110.426 369.602C108.729 370.534 106.699 371 104.335 371ZM101.006 366.784H104.131C105.585 366.784 106.809 366.527 107.801 366.011C108.801 365.489 109.551 364.682 110.051 363.591C110.559 362.492 110.812 361.076 110.812 359.341C110.812 357.621 110.559 356.216 110.051 355.125C109.551 354.034 108.805 353.231 107.812 352.716C106.82 352.201 105.597 351.943 104.142 351.943H101.006V366.784ZM122.065 371H116.793L124.827 347.727H131.168L139.19 371H133.918L128.088 353.045H127.906L122.065 371ZM121.736 361.852H134.19V365.693H121.736V361.852ZM138.261 351.784V347.727H157.375V351.784H150.25V371H145.386V351.784H138.261ZM161.69 371H156.418L164.452 347.727H170.793L178.815 371H173.543L167.713 353.045H167.531L161.69 371ZM161.361 361.852H173.815V365.693H161.361V361.852ZM197.912 345.368C199.405 345.368 200.739 345.645 201.912 346.2C203.085 346.733 204.003 347.48 204.664 348.44C205.347 349.379 205.688 350.467 205.688 351.704C205.688 352.941 205.347 354.04 204.664 355C204.003 355.939 203.085 356.685 201.912 357.24C200.739 357.773 199.405 358.04 197.912 358.04C196.419 358.04 195.085 357.773 193.912 357.24C192.739 356.685 191.811 355.939 191.128 355C190.467 354.04 190.136 352.941 190.136 351.704C190.136 350.467 190.467 349.379 191.128 348.44C191.811 347.48 192.739 346.733 193.912 346.2C195.085 345.645 196.419 345.368 197.912 345.368ZM197.912 348.824C197.208 348.824 196.579 348.941 196.024 349.176C195.469 349.389 195.032 349.709 194.712 350.136C194.392 350.563 194.232 351.085 194.232 351.704C194.232 352.323 194.392 352.845 194.712 353.272C195.032 353.677 195.469 353.997 196.024 354.232C196.579 354.445 197.208 354.552 197.912 354.552C198.637 354.552 199.277 354.445 199.832 354.232C200.387 353.997 200.824 353.677 201.144 353.272C201.464 352.845 201.624 352.323 201.624 351.704C201.624 351.085 201.464 350.563 201.144 350.136C200.824 349.709 200.387 349.389 199.832 349.176C199.277 348.941 198.637 348.824 197.912 348.824ZM195.896 361.016H200.184V372.92H195.896V361.016ZM208.856 344.184H213.112V373.816H208.856V344.184ZM188.888 363.256L188.408 359.8C190.115 359.8 192.024 359.789 194.136 359.768C196.269 359.725 198.456 359.629 200.696 359.48C202.936 359.331 205.101 359.096 207.192 358.776L207.448 361.88C205.315 362.307 203.149 362.616 200.952 362.808C198.755 363 196.621 363.117 194.552 363.16C192.483 363.203 190.595 363.235 188.888 363.256ZM217.718 359.512H244.534V362.872H217.718V359.512ZM228.982 356.536H233.238V360.856H228.982V356.536ZM220.694 364.824H241.302V373.848H237.046V368.184H220.694V364.824ZM228.982 344.216H233.238V348.568H228.982V344.216ZM228.726 349.016H232.47V349.592C232.47 350.723 232.203 351.757 231.67 352.696C231.158 353.635 230.379 354.467 229.334 355.192C228.288 355.917 226.998 356.504 225.462 356.952C223.926 357.4 222.144 357.699 220.118 357.848L218.87 354.648C220.662 354.52 222.176 354.296 223.414 353.976C224.672 353.656 225.686 353.272 226.454 352.824C227.243 352.355 227.819 351.843 228.182 351.288C228.544 350.733 228.726 350.168 228.726 349.592V349.016ZM229.75 349.016H233.494V349.592C233.494 350.168 233.675 350.733 234.038 351.288C234.4 351.843 234.966 352.355 235.734 352.824C236.523 353.272 237.536 353.656 238.774 353.976C240.032 354.296 241.558 354.52 243.35 354.648L242.102 357.848C240.075 357.699 238.294 357.4 236.758 356.952C235.222 356.504 233.931 355.917 232.885 355.192C231.84 354.467 231.051 353.635 230.518 352.696C230.006 351.757 229.75 350.723 229.75 349.592V349.016ZM220.278 346.904H241.942V350.168H220.278V346.904ZM258.355 345.048H262.067V346.456C262.067 347.587 261.886 348.685 261.523 349.752C261.182 350.797 260.67 351.779 259.987 352.696C259.304 353.613 258.472 354.435 257.491 355.16C256.51 355.885 255.368 356.504 254.067 357.016C252.787 357.507 251.379 357.88 249.843 358.136L248.179 354.712C249.544 354.541 250.76 354.253 251.827 353.848C252.915 353.443 253.864 352.963 254.675 352.408C255.507 351.853 256.19 351.245 256.723 350.584C257.256 349.923 257.662 349.24 257.939 348.536C258.216 347.832 258.355 347.139 258.355 346.456V345.048ZM259.155 345.048H262.867V346.456C262.867 347.139 263.006 347.832 263.283 348.536C263.56 349.24 263.966 349.923 264.499 350.584C265.032 351.245 265.704 351.853 266.515 352.408C267.347 352.963 268.296 353.443 269.363 353.848C270.451 354.253 271.678 354.541 273.043 354.712L271.379 358.136C269.822 357.88 268.403 357.507 267.123 357.016C265.843 356.504 264.712 355.885 263.731 355.16C262.75 354.413 261.918 353.581 261.235 352.664C260.552 351.747 260.03 350.765 259.667 349.72C259.326 348.675 259.155 347.587 259.155 346.456V345.048ZM258.355 362.968H262.611V373.848H258.355V362.968ZM247.187 360.28H274.003V363.736H247.187V360.28ZM277.681 357.752H280.177C282.118 357.752 283.846 357.731 285.361 357.688C286.897 357.645 288.315 357.56 289.617 357.432C290.939 357.283 292.283 357.091 293.649 356.856L294.033 360.248C292.667 360.504 291.291 360.707 289.905 360.856C288.539 360.984 287.067 361.069 285.489 361.112C283.931 361.155 282.161 361.176 280.177 361.176H277.681V357.752ZM277.617 345.816H291.153V354.936H281.873V359.352H277.681V351.8H286.961V349.208H277.617V345.816ZM295.665 344.216H299.921V362.232H295.665V344.216ZM298.737 351.256H303.857V354.776H298.737V351.256ZM280.145 363.576H299.921V373.848H295.665V366.936H280.145V363.576ZM321.006 353.464H328.814V356.888H321.006V353.464ZM312.942 346.456H316.366V350.776C316.366 352.632 316.206 354.435 315.886 356.184C315.566 357.933 315.075 359.565 314.414 361.08C313.753 362.595 312.91 363.928 311.886 365.08C310.883 366.232 309.689 367.16 308.302 367.864L305.646 364.472C306.905 363.875 307.982 363.096 308.878 362.136C309.795 361.176 310.553 360.088 311.15 358.872C311.769 357.635 312.217 356.333 312.494 354.968C312.793 353.581 312.942 352.184 312.942 350.776V346.456ZM313.806 346.456H317.198V350.776C317.198 352.163 317.337 353.539 317.614 354.904C317.891 356.248 318.307 357.507 318.862 358.68C319.438 359.853 320.174 360.899 321.07 361.816C321.966 362.712 323.033 363.437 324.27 363.992L321.71 367.384C320.323 366.701 319.129 365.805 318.126 364.696C317.123 363.565 316.302 362.275 315.662 360.824C315.043 359.373 314.574 357.795 314.254 356.088C313.955 354.381 313.806 352.611 313.806 350.776V346.456ZM326.67 344.152H330.926V373.88H326.67V344.152Z" fill="white"/>
</g>
<defs>
<linearGradient id="paint0_linear_5_58" x1="0" y1="0" x2="475.22" y2="731.107" gradientUnits="userSpaceOnUse">
<stop stop-color="#0F172A"/>
<stop offset="1" stop-color="#152C3D"/>
</linearGradient>
<clipPath id="clip0_5_58">
<rect width="800" height="520" fill="white"/>
</clipPath>
</defs>
</svg>
