<svg width="800" height="520" viewBox="0 0 800 520" fill="none" xmlns="http://www.w3.org/2000/svg">
<g clip-path="url(#clip0_1_2)">
<path d="M800 0H0V520H800V0Z" fill="url(#paint0_linear_1_2)"/>
<path d="M172 148H92C80.9543 148 72 156.954 72 168V248C72 259.046 80.9543 268 92 268H172C183.046 268 192 259.046 192 248V168C192 156.954 183.046 148 172 148Z" stroke="#5BBD2B" stroke-opacity="0.85" stroke-width="2"/>
<path d="M91.2603 219V188.455H97.7184V201.923H98.1211L109.113 188.455H116.854L105.519 202.131L116.988 219H109.262L100.895 206.442L97.7184 210.32V219H91.2603ZM136.542 197.239C136.422 196.036 135.91 195.102 135.005 194.435C134.1 193.769 132.873 193.436 131.321 193.436C130.267 193.436 129.377 193.585 128.652 193.884C127.926 194.172 127.369 194.575 126.981 195.092C126.603 195.609 126.414 196.195 126.414 196.852C126.395 197.398 126.509 197.876 126.757 198.283C127.016 198.691 127.369 199.044 127.816 199.342C128.264 199.631 128.781 199.884 129.368 200.103C129.954 200.312 130.581 200.491 131.247 200.64L133.991 201.296C135.324 201.594 136.547 201.992 137.66 202.489C138.774 202.987 139.738 203.598 140.554 204.324C141.369 205.05 142 205.905 142.448 206.889C142.905 207.874 143.139 209.002 143.149 210.275C143.139 212.144 142.662 213.765 141.717 215.137C140.782 216.499 139.43 217.558 137.66 218.314C135.9 219.06 133.777 219.433 131.292 219.433C128.826 219.433 126.678 219.055 124.848 218.299C123.029 217.543 121.607 216.425 120.583 214.943C119.569 213.452 119.037 211.607 118.987 209.41H125.236C125.306 210.434 125.599 211.289 126.116 211.975C126.643 212.651 127.344 213.163 128.219 213.511C129.104 213.849 130.103 214.018 131.217 214.018C132.311 214.018 133.26 213.859 134.066 213.541C134.881 213.223 135.512 212.781 135.96 212.214C136.407 211.647 136.631 210.996 136.631 210.26C136.631 209.574 136.427 208.997 136.02 208.53C135.622 208.062 135.035 207.665 134.26 207.337C133.494 207.009 132.554 206.71 131.441 206.442L128.115 205.607C125.539 204.98 123.506 204.001 122.015 202.668C120.523 201.336 119.782 199.541 119.792 197.284C119.782 195.435 120.275 193.819 121.269 192.437C122.273 191.055 123.65 189.976 125.4 189.2C127.15 188.425 129.139 188.037 131.366 188.037C133.633 188.037 135.612 188.425 137.302 189.2C139.002 189.976 140.325 191.055 141.27 192.437C142.214 193.819 142.701 195.42 142.731 197.239H136.542ZM158.321 219H147.493V188.455H158.41C161.483 188.455 164.128 189.066 166.345 190.289C168.562 191.502 170.268 193.247 171.461 195.524C172.664 197.801 173.265 200.526 173.265 203.697C173.265 206.879 172.664 209.614 171.461 211.901C170.268 214.187 168.552 215.942 166.315 217.165C164.088 218.388 161.423 219 158.321 219ZM153.951 213.467H158.052C159.961 213.467 161.567 213.129 162.87 212.452C164.182 211.766 165.167 210.707 165.823 209.276C166.489 207.834 166.822 205.974 166.822 203.697C166.822 201.44 166.489 199.596 165.823 198.164C165.167 196.732 164.187 195.678 162.885 195.002C161.582 194.326 159.976 193.988 158.067 193.988H153.951V213.467Z" fill="#5BBD2B"/>
<path d="M73.2642 335V320.455H82.8949V322.99H76.3395V326.456H82.2557V328.991H76.3395V335H73.2642ZM88.0387 320.455V335H84.9634V320.455H88.0387ZM102.735 320.455V335H100.079L93.7507 325.845H93.6442V335H90.5689V320.455H93.2678L99.5462 329.602H99.674V320.455H102.735ZM107.783 335H104.488L109.509 320.455H113.472L118.486 335H115.191L111.547 323.778H111.434L107.783 335ZM107.577 329.283H115.361V331.683H107.577V329.283ZM132.403 320.455V335H129.747L123.419 325.845H123.312V335H120.237V320.455H122.936L129.214 329.602H129.342V320.455H132.403ZM147.778 325.547H144.667C144.61 325.144 144.494 324.787 144.319 324.474C144.144 324.157 143.919 323.887 143.644 323.665C143.37 323.442 143.052 323.272 142.692 323.153C142.337 323.035 141.951 322.976 141.535 322.976C140.782 322.976 140.126 323.163 139.567 323.537C139.009 323.906 138.576 324.446 138.268 325.156C137.96 325.862 137.806 326.719 137.806 327.727C137.806 328.764 137.96 329.635 138.268 330.341C138.58 331.046 139.016 331.579 139.575 331.939C140.133 332.299 140.78 332.479 141.513 332.479C141.925 332.479 142.307 332.424 142.657 332.315C143.012 332.206 143.327 332.048 143.602 331.839C143.876 331.626 144.103 331.368 144.283 331.065C144.468 330.762 144.596 330.417 144.667 330.028L147.778 330.043C147.697 330.71 147.496 331.354 147.174 331.974C146.857 332.59 146.428 333.142 145.888 333.629C145.353 334.112 144.714 334.496 143.971 334.78C143.232 335.059 142.397 335.199 141.464 335.199C140.166 335.199 139.006 334.905 137.984 334.318C136.966 333.731 136.161 332.881 135.569 331.768C134.982 330.656 134.688 329.309 134.688 327.727C134.688 326.141 134.987 324.792 135.583 323.679C136.18 322.566 136.989 321.719 138.012 321.136C139.035 320.549 140.185 320.256 141.464 320.256C142.307 320.256 143.088 320.374 143.808 320.611C144.532 320.848 145.174 321.193 145.732 321.648C146.291 322.098 146.746 322.649 147.096 323.303C147.451 323.956 147.678 324.704 147.778 325.547ZM153.058 320.455V335H149.983V320.455H153.058ZM158.096 335H154.8L159.821 320.455H163.784L168.799 335H165.503L161.86 323.778H161.746L158.096 335ZM157.89 329.283H165.674V331.683H157.89V329.283ZM170.549 335V320.455H173.625V332.464H179.86V335H170.549ZM186.526 335V320.455H192.265C193.368 320.455 194.308 320.665 195.084 321.087C195.861 321.503 196.453 322.083 196.86 322.827C197.272 323.565 197.478 324.418 197.478 325.384C197.478 326.349 197.269 327.202 196.853 327.94C196.436 328.679 195.832 329.254 195.042 329.666C194.256 330.078 193.304 330.284 192.186 330.284H188.529V327.82H191.689C192.281 327.82 192.769 327.718 193.152 327.514C193.541 327.306 193.829 327.019 194.019 326.655C194.213 326.286 194.31 325.862 194.31 325.384C194.31 324.901 194.213 324.479 194.019 324.119C193.829 323.755 193.541 323.473 193.152 323.274C192.764 323.071 192.272 322.969 191.675 322.969H189.601V335H186.526ZM199.475 335V320.455H202.55V332.464H208.786V335H199.475ZM213.701 335H210.406L215.427 320.455H219.39L224.404 335H221.109L217.465 323.778H217.352L213.701 335ZM213.495 329.283H221.279V331.683H213.495V329.283ZM223.824 322.99V320.455H235.77V322.99H231.316V335H228.277V322.99H223.824ZM237.737 335V320.455H247.368V322.99H240.812V326.456H246.728V328.991H240.812V335H237.737ZM262.803 327.727C262.803 329.313 262.502 330.663 261.901 331.776C261.304 332.888 260.49 333.738 259.457 334.325C258.43 334.908 257.275 335.199 255.991 335.199C254.699 335.199 253.539 334.905 252.511 334.318C251.484 333.731 250.672 332.881 250.075 331.768C249.479 330.656 249.18 329.309 249.18 327.727C249.18 326.141 249.479 324.792 250.075 323.679C250.672 322.566 251.484 321.719 252.511 321.136C253.539 320.549 254.699 320.256 255.991 320.256C257.275 320.256 258.43 320.549 259.457 321.136C260.49 321.719 261.304 322.566 261.901 323.679C262.502 324.792 262.803 326.141 262.803 327.727ZM259.685 327.727C259.685 326.7 259.531 325.833 259.223 325.128C258.92 324.422 258.491 323.887 257.938 323.523C257.384 323.158 256.735 322.976 255.991 322.976C255.248 322.976 254.599 323.158 254.045 323.523C253.491 323.887 253.061 324.422 252.753 325.128C252.45 325.833 252.298 326.7 252.298 327.727C252.298 328.755 252.45 329.621 252.753 330.327C253.061 331.032 253.491 331.567 254.045 331.932C254.599 332.296 255.248 332.479 255.991 332.479C256.735 332.479 257.384 332.296 257.938 331.932C258.491 331.567 258.92 331.032 259.223 330.327C259.531 329.621 259.685 328.755 259.685 327.727ZM265.081 335V320.455H270.819C271.918 320.455 272.855 320.651 273.632 321.044C274.413 321.432 275.007 321.984 275.414 322.699C275.826 323.409 276.032 324.245 276.032 325.206C276.032 326.172 275.824 327.003 275.407 327.699C274.991 328.39 274.387 328.92 273.596 329.29C272.81 329.659 271.859 329.844 270.741 329.844H266.899V327.372H270.244C270.831 327.372 271.319 327.292 271.707 327.131C272.095 326.97 272.384 326.728 272.574 326.406C272.768 326.084 272.865 325.684 272.865 325.206C272.865 324.723 272.768 324.316 272.574 323.984C272.384 323.653 272.093 323.402 271.7 323.232C271.312 323.056 270.822 322.969 270.23 322.969H268.156V335H265.081ZM272.936 328.381L276.551 335H273.156L269.619 328.381H272.936ZM278.206 320.455H281.998L286.004 330.227H286.174L290.18 320.455H293.973V335H290.99V325.533H290.869L287.105 334.929H285.074L281.309 325.497H281.189V335H278.206V320.455Z" fill="#5BBD2B"/>
<path d="M76.726 358.114H98.86V361.684H76.726V358.114ZM73.394 366.92H101.92V370.558H73.394V366.92ZM85.362 359.916H89.884V368.518H85.362V359.916ZM76.726 344.65H98.622V348.288H81.316V359.44H76.726V344.65ZM79.922 351.348H97.908V354.85H79.922V351.348ZM108.173 343.936H128.097V347.506H108.173V343.936ZM104.637 357.57H133.163V361.14H104.637V357.57ZM125.377 343.936H129.831V346.86C129.831 348.537 129.786 350.305 129.695 352.164C129.627 354.023 129.344 356.165 128.845 358.59L124.357 358.148C124.879 355.813 125.173 353.762 125.241 351.994C125.332 350.203 125.377 348.492 125.377 346.86V343.936ZM126.771 350.294V353.592L107.799 354.34L107.255 350.736L126.771 350.294ZM107.969 369.844H130.307V373.482H107.969V369.844ZM107.969 363.418H112.491V370.728H107.969V363.418ZM135.915 357.06H164.407V360.63H135.915V357.06ZM150.093 362.364C153.493 362.364 156.167 362.874 158.117 363.894C160.066 364.914 161.041 366.342 161.041 368.178C161.041 370.037 160.066 371.476 158.117 372.496C156.167 373.516 153.493 374.026 150.093 374.026C146.693 374.026 144.018 373.516 142.069 372.496C140.142 371.476 139.179 370.037 139.179 368.178C139.179 366.342 140.142 364.914 142.069 363.894C144.018 362.874 146.693 362.364 150.093 362.364ZM150.093 365.832C148.687 365.832 147.509 365.923 146.557 366.104C145.627 366.263 144.925 366.512 144.449 366.852C143.973 367.192 143.735 367.634 143.735 368.178C143.735 368.722 143.973 369.175 144.449 369.538C144.925 369.878 145.627 370.127 146.557 370.286C147.509 370.445 148.687 370.524 150.093 370.524C151.498 370.524 152.665 370.445 153.595 370.286C154.547 370.127 155.261 369.878 155.737 369.538C156.213 369.175 156.451 368.722 156.451 368.178C156.451 367.634 156.213 367.192 155.737 366.852C155.261 366.512 154.547 366.263 153.595 366.104C152.665 365.923 151.498 365.832 150.093 365.832ZM147.067 345.772H151.079V346.52C151.079 347.449 150.909 348.356 150.569 349.24C150.229 350.101 149.719 350.906 149.039 351.654C148.381 352.379 147.554 353.037 146.557 353.626C145.559 354.193 144.403 354.669 143.089 355.054C141.774 355.439 140.312 355.711 138.703 355.87L137.139 352.334C138.521 352.221 139.745 352.028 140.811 351.756C141.899 351.461 142.828 351.121 143.599 350.736C144.392 350.328 145.038 349.897 145.537 349.444C146.058 348.991 146.443 348.515 146.693 348.016C146.942 347.495 147.067 346.996 147.067 346.52V345.772ZM149.277 345.772H153.255V346.52C153.255 347.019 153.379 347.517 153.629 348.016C153.878 348.515 154.252 349.002 154.751 349.478C155.272 349.931 155.918 350.362 156.689 350.77C157.482 351.155 158.411 351.484 159.477 351.756C160.565 352.028 161.8 352.221 163.183 352.334L161.619 355.87C160.009 355.711 158.547 355.451 157.233 355.088C155.918 354.703 154.762 354.215 153.765 353.626C152.79 353.037 151.963 352.379 151.283 351.654C150.625 350.906 150.127 350.101 149.787 349.24C149.447 348.379 149.277 347.472 149.277 346.52V345.772ZM138.533 344.004H161.857V347.574H138.533V344.004ZM175.25 357.196H179.772V364.302H175.25V357.196ZM189.394 342.508H193.95V366.206H189.394V342.508ZM171.272 369.844H194.664V373.482H171.272V369.844ZM171.272 363.86H175.794V370.762H171.272V363.86ZM167.532 358.012L166.988 354.408C168.915 354.408 171.023 354.385 173.312 354.34C175.601 354.295 177.936 354.204 180.316 354.068C182.719 353.909 185.031 353.683 187.252 353.388L187.524 356.584C185.257 356.969 182.945 357.264 180.588 357.468C178.231 357.672 175.941 357.808 173.72 357.876C171.499 357.944 169.436 357.989 167.532 358.012ZM183.342 359.338H190.414V362.806H183.342V359.338ZM169.878 344.072H183.206V347.676H169.878V344.072ZM180.384 344.072H184.872V345.194C184.872 346.101 184.838 347.393 184.77 349.07C184.702 350.747 184.464 352.753 184.056 355.088L179.602 354.816C180.01 352.481 180.237 350.521 180.282 348.934C180.35 347.325 180.384 346.078 180.384 345.194V344.072ZM206.373 357.842H234.865V361.412H206.373V357.842ZM218.579 360.154H223.169V366.818H218.579V360.154ZM209.705 369.844H231.771V373.482H209.705V369.844ZM209.705 364.03H214.261V370.762H209.705V364.03ZM220.585 343.086C222.851 343.086 224.835 343.358 226.535 343.902C228.235 344.423 229.549 345.183 230.479 346.18C231.431 347.155 231.907 348.311 231.907 349.648C231.907 350.963 231.431 352.107 230.479 353.082C229.549 354.057 228.235 354.816 226.535 355.36C224.835 355.904 222.851 356.176 220.585 356.176C218.341 356.176 216.369 355.904 214.669 355.36C212.969 354.816 211.643 354.057 210.691 353.082C209.739 352.107 209.263 350.963 209.263 349.648C209.263 348.311 209.739 347.155 210.691 346.18C211.643 345.183 212.969 344.423 214.669 343.902C216.369 343.358 218.341 343.086 220.585 343.086ZM220.585 346.69C219.27 346.69 218.125 346.803 217.151 347.03C216.199 347.257 215.451 347.585 214.907 348.016C214.385 348.447 214.125 348.991 214.125 349.648C214.125 350.26 214.385 350.793 214.907 351.246C215.451 351.699 216.199 352.039 217.151 352.266C218.125 352.47 219.27 352.572 220.585 352.572C221.922 352.572 223.067 352.47 224.019 352.266C224.993 352.039 225.741 351.699 226.263 351.246C226.784 350.793 227.045 350.26 227.045 349.648C227.045 348.991 226.784 348.447 226.263 348.016C225.741 347.585 224.993 347.257 224.019 347.03C223.067 346.803 221.922 346.69 220.585 346.69ZM251.556 346.622H260.872V350.26H251.556V346.622ZM251.556 353.626H260.872V357.23H251.556V353.626ZM246.32 344.208C247.907 344.208 249.323 344.548 250.57 345.228C251.817 345.885 252.803 346.792 253.528 347.948C254.276 349.104 254.65 350.43 254.65 351.926C254.65 353.399 254.276 354.714 253.528 355.87C252.803 357.026 251.817 357.944 250.57 358.624C249.323 359.281 247.907 359.61 246.32 359.61C244.779 359.61 243.373 359.281 242.104 358.624C240.857 357.944 239.86 357.026 239.112 355.87C238.387 354.714 238.024 353.399 238.024 351.926C238.024 350.43 238.387 349.104 239.112 347.948C239.86 346.792 240.857 345.885 242.104 345.228C243.373 344.548 244.779 344.208 246.32 344.208ZM246.32 348.016C245.572 348.016 244.892 348.175 244.28 348.492C243.668 348.787 243.181 349.229 242.818 349.818C242.478 350.385 242.308 351.087 242.308 351.926C242.308 352.719 242.478 353.411 242.818 354C243.181 354.589 243.668 355.043 244.28 355.36C244.892 355.655 245.572 355.802 246.32 355.802C247.113 355.802 247.805 355.655 248.394 355.36C249.006 355.043 249.482 354.589 249.822 354C250.162 353.411 250.332 352.719 250.332 351.926C250.332 351.087 250.162 350.385 249.822 349.818C249.482 349.229 249.006 348.787 248.394 348.492C247.805 348.175 247.113 348.016 246.32 348.016ZM259.444 342.542H264V360.97H259.444V342.542ZM253.324 361.616C255.545 361.616 257.449 361.865 259.036 362.364C260.645 362.84 261.892 363.543 262.776 364.472C263.66 365.401 264.102 366.512 264.102 367.804C264.102 369.096 263.66 370.207 262.776 371.136C261.892 372.088 260.645 372.802 259.036 373.278C257.449 373.777 255.545 374.026 253.324 374.026C251.103 374.026 249.187 373.777 247.578 373.278C245.969 372.802 244.722 372.088 243.838 371.136C242.977 370.207 242.546 369.096 242.546 367.804C242.546 366.512 242.977 365.401 243.838 364.472C244.722 363.543 245.969 362.84 247.578 362.364C249.187 361.865 251.103 361.616 253.324 361.616ZM253.324 365.084C251.964 365.084 250.808 365.186 249.856 365.39C248.904 365.594 248.19 365.9 247.714 366.308C247.238 366.693 247 367.192 247 367.804C247 368.416 247.238 368.926 247.714 369.334C248.19 369.742 248.904 370.048 249.856 370.252C250.808 370.433 251.964 370.524 253.324 370.524C254.707 370.524 255.863 370.433 256.792 370.252C257.744 370.048 258.458 369.742 258.934 369.334C259.41 368.926 259.648 368.416 259.648 367.804C259.648 367.192 259.41 366.693 258.934 366.308C258.458 365.9 257.744 365.594 256.792 365.39C255.863 365.186 254.707 365.084 253.324 365.084ZM271.375 343.358H294.869V346.758H271.375V343.358ZM271.613 350.736H294.597V354.136H271.613V350.736ZM275.387 344.684H279.909V352.912H275.387V344.684ZM286.335 344.684H290.857V352.912H286.335V344.684ZM268.893 355.734H297.385V359.27H268.893V355.734ZM272.157 361.004H293.917V368.858H276.679V371.782H272.191V365.832H289.463V364.234H272.157V361.004ZM272.191 370.524H294.767V373.822H272.191V370.524ZM322.713 342.508H327.031V363.69H322.713V342.508ZM319.007 350.124H324.005V353.762H319.007V350.124ZM316.015 343.086H320.231V361.072H316.015V343.086ZM301.463 357.332H303.639C305.157 357.332 306.517 357.309 307.719 357.264C308.943 357.219 310.099 357.139 311.187 357.026C312.275 356.913 313.385 356.743 314.519 356.516L314.893 360.052C313.714 360.301 312.558 360.483 311.425 360.596C310.314 360.709 309.124 360.789 307.855 360.834C306.608 360.857 305.203 360.868 303.639 360.868H301.463V357.332ZM301.395 344.718H313.363V354.306H305.815V359.712H301.463V351.042H308.977V348.254H301.395V344.718ZM313.941 362.364H317.783V362.874C317.783 364.257 317.511 365.56 316.967 366.784C316.423 367.985 315.629 369.073 314.587 370.048C313.567 371 312.309 371.805 310.813 372.462C309.317 373.142 307.594 373.629 305.645 373.924L303.911 370.422C305.271 370.241 306.483 369.98 307.549 369.64C308.637 369.277 309.577 368.847 310.371 368.348C311.164 367.827 311.821 367.271 312.343 366.682C312.887 366.093 313.283 365.481 313.533 364.846C313.805 364.189 313.941 363.531 313.941 362.874V362.364ZM314.553 362.364H318.429V362.874C318.429 363.531 318.553 364.189 318.803 364.846C319.052 365.481 319.437 366.093 319.959 366.682C320.503 367.271 321.171 367.827 321.965 368.348C322.758 368.847 323.687 369.277 324.753 369.64C325.841 369.98 327.065 370.241 328.425 370.422L326.691 373.924C324.741 373.629 323.019 373.142 321.523 372.462C320.027 371.805 318.757 371 317.715 370.048C316.672 369.073 315.879 367.985 315.335 366.784C314.813 365.56 314.553 364.257 314.553 362.874V362.364ZM331.448 357.74H359.94V361.31H331.448V357.74ZM343.416 354.544H347.904V359.338H343.416V354.544ZM333.93 343.392H357.424V346.996H333.93V343.392ZM334.168 351.722H357.152V355.292H334.168V351.722ZM337.942 344.684H342.464V354.068H337.942V344.684ZM348.89 344.684H353.412V354.068H348.89V344.684ZM334.78 363.384H356.54V373.686H334.78V363.384ZM352.12 366.92H339.2V370.116H352.12V366.92Z" fill="white"/>
</g>
<defs>
<linearGradient id="paint0_linear_1_2" x1="0" y1="0" x2="475.22" y2="731.107" gradientUnits="userSpaceOnUse">
<stop stop-color="#0F172A"/>
<stop offset="1" stop-color="#173420"/>
</linearGradient>
<clipPath id="clip0_1_2">
<rect width="800" height="520" fill="white"/>
</clipPath>
</defs>
</svg>
