<svg width="800" height="520" viewBox="0 0 800 520" fill="none" xmlns="http://www.w3.org/2000/svg">
<g clip-path="url(#clip0_5_65)">
<path d="M800 0H0V520H800V0Z" fill="url(#paint0_linear_5_65)"/>
<path d="M172 148H92C80.9543 148 72 156.954 72 168V248C72 259.046 80.9543 268 92 268H172C183.046 268 192 259.046 192 248V168C192 156.954 183.046 148 172 148Z" stroke="#044895" stroke-opacity="0.85" stroke-width="2"/>
<path d="M108.5 201.384C108.403 200.41 107.989 199.654 107.256 199.114C106.524 198.575 105.53 198.305 104.274 198.305C103.421 198.305 102.7 198.426 102.113 198.668C101.525 198.901 101.074 199.227 100.76 199.646C100.455 200.064 100.302 200.539 100.302 201.07C100.285 201.513 100.378 201.899 100.579 202.229C100.789 202.559 101.074 202.845 101.437 203.087C101.799 203.32 102.217 203.525 102.692 203.702C103.167 203.871 103.674 204.016 104.214 204.137L106.435 204.668C107.514 204.91 108.504 205.232 109.405 205.634C110.307 206.037 111.088 206.532 111.748 207.119C112.408 207.707 112.919 208.399 113.281 209.196C113.651 209.993 113.84 210.906 113.848 211.937C113.84 213.45 113.454 214.762 112.689 215.873C111.933 216.976 110.838 217.833 109.405 218.445C107.981 219.048 106.262 219.35 104.25 219.35C102.254 219.35 100.515 219.044 99.0338 218.433C97.5608 217.821 96.4098 216.915 95.5807 215.716C94.7597 214.509 94.329 213.015 94.2888 211.237H99.3477C99.4041 212.066 99.6415 212.758 100.06 213.313C100.487 213.861 101.054 214.275 101.763 214.557C102.479 214.83 103.288 214.967 104.189 214.967C105.075 214.967 105.843 214.839 106.495 214.581C107.156 214.323 107.667 213.965 108.029 213.506C108.391 213.048 108.572 212.52 108.572 211.925C108.572 211.369 108.407 210.902 108.077 210.524C107.755 210.146 107.28 209.824 106.652 209.558C106.033 209.293 105.272 209.051 104.37 208.834L101.678 208.158C99.5932 207.651 97.9472 206.858 96.7398 205.779C95.5324 204.701 94.9327 203.248 94.9408 201.42C94.9327 199.923 95.3312 198.615 96.1361 197.496C96.9491 196.378 98.0639 195.504 99.4806 194.876C100.897 194.249 102.507 193.935 104.31 193.935C106.145 193.935 107.747 194.249 109.116 194.876C110.492 195.504 111.562 196.378 112.327 197.496C113.092 198.615 113.486 199.911 113.51 201.384H108.5ZM117.365 194.273H123.812L130.622 210.886H130.912L137.722 194.273H144.169V219H139.098V202.906H138.893L132.494 218.879H129.04L122.641 202.845H122.436V219H117.365V194.273ZM157.242 219H148.476V194.273H157.314C159.802 194.273 161.943 194.768 163.738 195.758C165.533 196.74 166.913 198.152 167.879 199.996C168.853 201.839 169.34 204.045 169.34 206.612C169.34 209.188 168.853 211.402 167.879 213.253C166.913 215.104 165.525 216.525 163.714 217.515C161.91 218.505 159.753 219 157.242 219ZM153.704 214.521H157.025C158.57 214.521 159.87 214.247 160.924 213.7C161.987 213.144 162.784 212.287 163.315 211.128C163.854 209.961 164.124 208.455 164.124 206.612C164.124 204.785 163.854 203.292 163.315 202.133C162.784 200.974 161.991 200.121 160.937 199.573C159.882 199.026 158.582 198.752 157.037 198.752H153.704V214.521Z" fill="#044895"/>
<path d="M81.1548 324.638C81.098 324.065 80.8542 323.62 80.4233 323.303C79.9924 322.985 79.4077 322.827 78.669 322.827C78.1671 322.827 77.7434 322.898 77.3977 323.04C77.0521 323.177 76.7869 323.369 76.6023 323.615C76.4223 323.861 76.3324 324.141 76.3324 324.453C76.3229 324.714 76.3774 324.941 76.4957 325.135C76.6188 325.329 76.7869 325.497 77 325.639C77.2131 325.777 77.4593 325.897 77.7386 326.001C78.018 326.101 78.3163 326.186 78.6335 326.257L79.9403 326.57C80.5748 326.712 81.1572 326.901 81.6875 327.138C82.2178 327.375 82.6771 327.666 83.0653 328.011C83.4536 328.357 83.7543 328.764 83.9673 329.233C84.1851 329.702 84.2964 330.239 84.3011 330.845C84.2964 331.735 84.0691 332.507 83.6193 333.161C83.1742 333.809 82.5303 334.313 81.6875 334.673C80.8494 335.028 79.8385 335.206 78.6548 335.206C77.4806 335.206 76.4579 335.026 75.5866 334.666C74.7202 334.306 74.0431 333.774 73.5554 333.068C73.0724 332.358 72.8191 331.48 72.7955 330.433H75.7713C75.8045 330.921 75.9441 331.328 76.1903 331.655C76.4413 331.977 76.7751 332.221 77.1918 332.386C77.6132 332.547 78.089 332.628 78.6193 332.628C79.1402 332.628 79.5923 332.552 79.9759 332.401C80.3641 332.249 80.6648 332.038 80.8778 331.768C81.0909 331.499 81.1974 331.188 81.1974 330.838C81.1974 330.511 81.1004 330.237 80.9062 330.014C80.7169 329.792 80.4375 329.602 80.0682 329.446C79.7036 329.29 79.2562 329.148 78.7259 329.02L77.142 328.622C75.9157 328.324 74.9474 327.857 74.2372 327.223C73.527 326.589 73.1742 325.734 73.179 324.659C73.1742 323.778 73.4086 323.009 73.8821 322.351C74.3603 321.693 75.0161 321.179 75.8494 320.81C76.6828 320.44 77.6297 320.256 78.6903 320.256C79.7699 320.256 80.7121 320.44 81.517 320.81C82.3267 321.179 82.9564 321.693 83.4062 322.351C83.8561 323.009 84.0881 323.771 84.1023 324.638H81.1548ZM86.3697 320.455H90.1623L94.168 330.227H94.3384L98.3441 320.455H102.137V335H99.1538V325.533H99.033L95.2688 334.929H93.2376L89.4734 325.497H89.3526V335H86.3697V320.455ZM111.411 326.527V328.928H104.777V326.527H111.411ZM116.909 335L112.748 320.455H116.107L118.515 330.561H118.635L121.292 320.455H124.168L126.817 330.582H126.945L129.353 320.455H132.712L128.55 335H125.553L122.783 325.49H122.669L119.907 335H116.909ZM135.4 335H132.105L137.126 320.455H141.089L146.103 335H142.808L139.164 323.778H139.051L135.4 335ZM135.194 329.283H142.978V331.683H135.194V329.283ZM145.517 320.455H148.962L152.279 326.719H152.421L155.738 320.455H159.182L153.877 329.858V335H150.823V329.858L145.517 320.455ZM165.491 335V320.455H171.229C172.333 320.455 173.272 320.665 174.049 321.087C174.826 321.503 175.417 322.083 175.825 322.827C176.237 323.565 176.442 324.418 176.442 325.384C176.442 326.349 176.234 327.202 175.817 327.94C175.401 328.679 174.797 329.254 174.006 329.666C173.22 330.078 172.269 330.284 171.151 330.284H167.494V327.82H170.654C171.246 327.82 171.734 327.718 172.117 327.514C172.505 327.306 172.794 327.019 172.984 326.655C173.178 326.286 173.275 325.862 173.275 325.384C173.275 324.901 173.178 324.479 172.984 324.119C172.794 323.755 172.505 323.473 172.117 323.274C171.729 323.071 171.237 322.969 170.64 322.969H168.566V335H165.491ZM178.44 335V320.455H181.515V332.464H187.751V335H178.44ZM192.666 335H189.37L194.392 320.455H198.355L203.369 335H200.074L196.43 323.778H196.316L192.666 335ZM192.46 329.283H200.244V331.683H192.46V329.283ZM202.788 322.99V320.455H214.734V322.99H210.281V335H207.241V322.99H202.788ZM216.702 335V320.455H226.332V322.99H219.777V326.456H225.693V328.991H219.777V335H216.702ZM241.767 327.727C241.767 329.313 241.467 330.663 240.865 331.776C240.269 332.888 239.454 333.738 238.422 334.325C237.395 334.908 236.239 335.199 234.956 335.199C233.664 335.199 232.504 334.905 231.476 334.318C230.449 333.731 229.637 332.881 229.04 331.768C228.444 330.656 228.145 329.309 228.145 327.727C228.145 326.141 228.444 324.792 229.04 323.679C229.637 322.566 230.449 321.719 231.476 321.136C232.504 320.549 233.664 320.256 234.956 320.256C236.239 320.256 237.395 320.549 238.422 321.136C239.454 321.719 240.269 322.566 240.865 323.679C241.467 324.792 241.767 326.141 241.767 327.727ZM238.65 327.727C238.65 326.7 238.496 325.833 238.188 325.128C237.885 324.422 237.456 323.887 236.902 323.523C236.348 323.158 235.7 322.976 234.956 322.976C234.213 322.976 233.564 323.158 233.01 323.523C232.456 323.887 232.025 324.422 231.718 325.128C231.415 325.833 231.263 326.7 231.263 327.727C231.263 328.755 231.415 329.621 231.718 330.327C232.025 331.032 232.456 331.567 233.01 331.932C233.564 332.296 234.213 332.479 234.956 332.479C235.7 332.479 236.348 332.296 236.902 331.932C237.456 331.567 237.885 331.032 238.188 330.327C238.496 329.621 238.65 328.755 238.65 327.727ZM244.045 335V320.455H249.784C250.883 320.455 251.82 320.651 252.597 321.044C253.378 321.432 253.972 321.984 254.379 322.699C254.791 323.409 254.997 324.245 254.997 325.206C254.997 326.172 254.789 327.003 254.372 327.699C253.955 328.39 253.352 328.92 252.561 329.29C251.775 329.659 250.823 329.844 249.706 329.844H245.864V327.372H249.209C249.796 327.372 250.284 327.292 250.672 327.131C251.06 326.97 251.349 326.728 251.538 326.406C251.732 326.084 251.83 325.684 251.83 325.206C251.83 324.723 251.732 324.316 251.538 323.984C251.349 323.653 251.058 323.402 250.665 323.232C250.277 323.056 249.786 322.969 249.195 322.969H247.121V335H244.045ZM251.901 328.381L255.516 335H252.121L248.584 328.381H251.901ZM257.17 320.455H260.963L264.969 330.227H265.139L269.145 320.455H272.938V335H269.955V325.533H269.834L266.07 334.929H264.038L260.274 325.497H260.153V335H257.17V320.455Z" fill="#044895"/>
<path d="M86.6477 354.42C86.5568 353.504 86.1667 352.792 85.4773 352.284C84.7879 351.777 83.8523 351.523 82.6705 351.523C81.8674 351.523 81.1894 351.636 80.6364 351.864C80.0833 352.083 79.6591 352.39 79.3636 352.784C79.0758 353.178 78.9318 353.625 78.9318 354.125C78.9167 354.542 79.0038 354.905 79.1932 355.216C79.3902 355.527 79.6591 355.795 80 356.023C80.3409 356.242 80.7348 356.436 81.1818 356.602C81.6288 356.761 82.1061 356.898 82.6136 357.011L84.7045 357.511C85.7197 357.739 86.6515 358.042 87.5 358.42C88.3485 358.799 89.0833 359.265 89.7045 359.818C90.3258 360.371 90.8068 361.023 91.1477 361.773C91.4962 362.523 91.6742 363.383 91.6818 364.352C91.6742 365.777 91.3106 367.011 90.5909 368.057C89.8788 369.095 88.8485 369.902 87.5 370.477C86.1591 371.045 84.5417 371.33 82.6477 371.33C80.7689 371.33 79.1326 371.042 77.7386 370.466C76.3523 369.89 75.2689 369.038 74.4886 367.909C73.7159 366.773 73.3106 365.367 73.2727 363.693H78.0341C78.0871 364.473 78.3106 365.125 78.7045 365.648C79.1061 366.163 79.6402 366.553 80.3068 366.818C80.9811 367.076 81.7424 367.205 82.5909 367.205C83.4242 367.205 84.1477 367.083 84.7614 366.841C85.3826 366.598 85.8636 366.261 86.2045 365.83C86.5455 365.398 86.7159 364.902 86.7159 364.341C86.7159 363.818 86.5606 363.379 86.25 363.023C85.947 362.667 85.5 362.364 84.9091 362.114C84.3258 361.864 83.6098 361.636 82.7614 361.432L80.2273 360.795C78.2652 360.318 76.7159 359.572 75.5795 358.557C74.4432 357.542 73.8788 356.174 73.8864 354.455C73.8788 353.045 74.2538 351.814 75.0114 350.761C75.7765 349.708 76.8258 348.886 78.1591 348.295C79.4924 347.705 81.0076 347.409 82.7045 347.409C84.4318 347.409 85.9394 347.705 87.2273 348.295C88.5227 348.886 89.5303 349.708 90.25 350.761C90.9697 351.814 91.3409 353.034 91.3636 354.42H86.6477ZM94.9915 347.727H101.06L107.469 363.364H107.741L114.151 347.727H120.219V371H115.446V355.852H115.253L109.23 370.886H105.98L99.9574 355.795H99.7642V371H94.9915V347.727ZM132.523 371H124.273V347.727H132.591C134.932 347.727 136.947 348.193 138.636 349.125C140.326 350.049 141.625 351.379 142.534 353.114C143.451 354.848 143.909 356.924 143.909 359.341C143.909 361.765 143.451 363.848 142.534 365.591C141.625 367.333 140.318 368.67 138.614 369.602C136.917 370.534 134.886 371 132.523 371ZM129.193 366.784H132.318C133.773 366.784 134.996 366.527 135.989 366.011C136.989 365.489 137.739 364.682 138.239 363.591C138.746 362.492 139 361.076 139 359.341C139 357.621 138.746 356.216 138.239 355.125C137.739 354.034 136.992 353.231 136 352.716C135.008 352.201 133.784 351.943 132.33 351.943H129.193V366.784ZM168.088 355.875H163.111C163.02 355.231 162.834 354.659 162.554 354.159C162.274 353.652 161.914 353.22 161.474 352.864C161.035 352.508 160.527 352.235 159.952 352.045C159.384 351.856 158.766 351.761 158.099 351.761C156.895 351.761 155.846 352.061 154.952 352.659C154.058 353.25 153.365 354.114 152.872 355.25C152.38 356.379 152.134 357.75 152.134 359.364C152.134 361.023 152.38 362.417 152.872 363.545C153.372 364.674 154.069 365.527 154.963 366.102C155.857 366.678 156.891 366.966 158.065 366.966C158.724 366.966 159.334 366.879 159.895 366.705C160.463 366.53 160.967 366.277 161.406 365.943C161.846 365.602 162.209 365.189 162.497 364.705C162.793 364.22 162.997 363.667 163.111 363.045L168.088 363.068C167.959 364.136 167.637 365.167 167.122 366.159C166.615 367.144 165.929 368.027 165.065 368.807C164.209 369.58 163.187 370.193 161.997 370.648C160.815 371.095 159.478 371.318 157.986 371.318C155.91 371.318 154.054 370.848 152.418 369.909C150.789 368.97 149.501 367.61 148.554 365.83C147.615 364.049 147.145 361.894 147.145 359.364C147.145 356.826 147.622 354.667 148.577 352.886C149.531 351.106 150.827 349.75 152.463 348.818C154.099 347.879 155.94 347.409 157.986 347.409C159.334 347.409 160.584 347.598 161.736 347.977C162.895 348.356 163.921 348.909 164.815 349.636C165.709 350.356 166.437 351.239 166.997 352.284C167.565 353.33 167.929 354.527 168.088 355.875ZM193.256 353.464H201.064V356.888H193.256V353.464ZM185.192 346.456H188.616V350.776C188.616 352.632 188.456 354.435 188.136 356.184C187.816 357.933 187.325 359.565 186.664 361.08C186.003 362.595 185.16 363.928 184.136 365.08C183.133 366.232 181.939 367.16 180.552 367.864L177.896 364.472C179.155 363.875 180.232 363.096 181.128 362.136C182.045 361.176 182.803 360.088 183.4 358.872C184.019 357.635 184.467 356.333 184.744 354.968C185.043 353.581 185.192 352.184 185.192 350.776V346.456ZM186.056 346.456H189.448V350.776C189.448 352.163 189.587 353.539 189.864 354.904C190.141 356.248 190.557 357.507 191.112 358.68C191.688 359.853 192.424 360.899 193.32 361.816C194.216 362.712 195.283 363.437 196.52 363.992L193.96 367.384C192.573 366.701 191.379 365.805 190.376 364.696C189.373 363.565 188.552 362.275 187.912 360.824C187.293 359.373 186.824 357.795 186.504 356.088C186.205 354.381 186.056 352.611 186.056 350.776V346.456ZM198.92 344.152H203.176V373.88H198.92V344.152ZM228.07 344.152H232.326V373.88H228.07V344.152ZM209.19 346.52H213.414V353.752H219.558V346.52H223.782V366.968H209.19V346.52ZM213.414 357.048V363.576H219.558V357.048H213.414ZM248.195 345.912H251.875V348.056C251.875 349.336 251.694 350.584 251.331 351.8C250.99 352.995 250.478 354.125 249.795 355.192C249.112 356.259 248.27 357.229 247.267 358.104C246.286 358.957 245.155 359.693 243.875 360.312C242.595 360.931 241.187 361.389 239.651 361.688L237.827 358.136C239.15 357.901 240.355 357.549 241.443 357.08C242.552 356.589 243.523 356.003 244.355 355.32C245.187 354.637 245.891 353.901 246.467 353.112C247.043 352.301 247.47 351.469 247.747 350.616C248.046 349.741 248.195 348.888 248.195 348.056V345.912ZM249.027 345.912H252.739V348.056C252.739 348.909 252.878 349.773 253.155 350.648C253.454 351.523 253.88 352.365 254.435 353.176C255.011 353.965 255.715 354.691 256.547 355.352C257.379 356.013 258.339 356.589 259.427 357.08C260.515 357.549 261.742 357.901 263.107 358.136L261.283 361.688C259.747 361.389 258.339 360.931 257.059 360.312C255.779 359.693 254.638 358.957 253.635 358.104C252.654 357.251 251.811 356.291 251.107 355.224C250.424 354.157 249.902 353.016 249.539 351.8C249.198 350.584 249.027 349.336 249.027 348.056V345.912ZM237.187 366.744H264.035V370.232H237.187V366.744Z" fill="white"/>
</g>
<defs>
<linearGradient id="paint0_linear_5_65" x1="0" y1="0" x2="475.22" y2="731.107" gradientUnits="userSpaceOnUse">
<stop stop-color="#0F172A"/>
<stop offset="1" stop-color="#173557"/>
</linearGradient>
<clipPath id="clip0_5_65">
<rect width="800" height="520" fill="white"/>
</clipPath>
</defs>
</svg>
