<svg width="800" height="520" viewBox="0 0 800 520" fill="none" xmlns="http://www.w3.org/2000/svg">
<g clip-path="url(#clip0_5_9)">
<path d="M800 0H0V520H800V0Z" fill="url(#paint0_linear_5_9)"/>
<path d="M172 148H92C80.9543 148 72 156.954 72 168V248C72 259.046 80.9543 268 92 268H172C183.046 268 192 259.046 192 248V168C192 156.954 183.046 148 172 148Z" stroke="#F46222" stroke-opacity="0.85" stroke-width="2"/>
<path d="M105.437 193.779V188.455H130.523V193.779H121.172V219H114.788V193.779H105.437ZM133.491 193.779V188.455H158.578V193.779H149.227V219H142.843V193.779H133.491Z" fill="#F46222"/>
<path d="M72.7102 322.99V320.455H84.6562V322.99H80.2031V335H77.1634V322.99H72.7102ZM86.6236 335V320.455H92.3622C93.4607 320.455 94.3982 320.651 95.1747 321.044C95.956 321.432 96.5502 321.984 96.9574 322.699C97.3693 323.409 97.5753 324.245 97.5753 325.206C97.5753 326.172 97.367 327.003 96.9503 327.699C96.5336 328.39 95.9299 328.92 95.1392 329.29C94.3532 329.659 93.4015 329.844 92.2841 329.844H88.4418V327.372H91.7869C92.3741 327.372 92.8617 327.292 93.25 327.131C93.6383 326.97 93.9271 326.728 94.1165 326.406C94.3106 326.084 94.4077 325.684 94.4077 325.206C94.4077 324.723 94.3106 324.316 94.1165 323.984C93.9271 323.653 93.6359 323.402 93.2429 323.232C92.8546 323.056 92.3646 322.969 91.7727 322.969H89.6989V335H86.6236ZM94.4787 328.381L98.0938 335H94.6989L91.1619 328.381H94.4787ZM102.256 335H98.9602L103.982 320.455H107.945L112.959 335H109.663L106.02 323.778H105.906L102.256 335ZM102.05 329.283H109.834V331.683H102.05V329.283ZM115.521 320.455L119.037 331.506H119.172L122.694 320.455H126.103L121.089 335H117.126L112.105 320.455H115.521ZM127.854 335V320.455H137.655V322.99H130.929V326.456H137.151V328.991H130.929V332.464H137.684V335H127.854ZM140.1 335V320.455H143.175V332.464H149.411V335H140.1ZM163.967 324.638C163.911 324.065 163.667 323.62 163.236 323.303C162.805 322.985 162.22 322.827 161.482 322.827C160.98 322.827 160.556 322.898 160.21 323.04C159.865 323.177 159.599 323.369 159.415 323.615C159.235 323.861 159.145 324.141 159.145 324.453C159.135 324.714 159.19 324.941 159.308 325.135C159.431 325.329 159.599 325.497 159.812 325.639C160.026 325.777 160.272 325.897 160.551 326.001C160.83 326.101 161.129 326.186 161.446 326.257L162.753 326.57C163.387 326.712 163.97 326.901 164.5 327.138C165.03 327.375 165.49 327.666 165.878 328.011C166.266 328.357 166.567 328.764 166.78 329.233C166.998 329.702 167.109 330.239 167.114 330.845C167.109 331.735 166.882 332.507 166.432 333.161C165.987 333.809 165.343 334.313 164.5 334.673C163.662 335.028 162.651 335.206 161.467 335.206C160.293 335.206 159.27 335.026 158.399 334.666C157.533 334.306 156.856 333.774 156.368 333.068C155.885 332.358 155.632 331.48 155.608 330.433H158.584C158.617 330.921 158.757 331.328 159.003 331.655C159.254 331.977 159.588 332.221 160.004 332.386C160.426 332.547 160.902 332.628 161.432 332.628C161.953 332.628 162.405 332.552 162.788 332.401C163.177 332.249 163.477 332.038 163.69 331.768C163.903 331.499 164.01 331.188 164.01 330.838C164.01 330.511 163.913 330.237 163.719 330.014C163.529 329.792 163.25 329.602 162.881 329.446C162.516 329.29 162.069 329.148 161.538 329.02L159.955 328.622C158.728 328.324 157.76 327.857 157.05 327.223C156.339 326.589 155.987 325.734 155.991 324.659C155.987 323.778 156.221 323.009 156.695 322.351C157.173 321.693 157.829 321.179 158.662 320.81C159.495 320.44 160.442 320.256 161.503 320.256C162.582 320.256 163.525 320.44 164.33 320.81C165.139 321.179 165.769 321.693 166.219 322.351C166.669 323.009 166.901 323.771 166.915 324.638H163.967ZM169.182 335V320.455H178.983V322.99H172.257V326.456H178.479V328.991H172.257V332.464H179.012V335H169.182ZM181.428 335V320.455H187.167C188.265 320.455 189.203 320.651 189.979 321.044C190.761 321.432 191.355 321.984 191.762 322.699C192.174 323.409 192.38 324.245 192.38 325.206C192.38 326.172 192.172 327.003 191.755 327.699C191.338 328.39 190.735 328.92 189.944 329.29C189.158 329.659 188.206 329.844 187.089 329.844H183.246V327.372H186.592C187.179 327.372 187.666 327.292 188.055 327.131C188.443 326.97 188.732 326.728 188.921 326.406C189.115 326.084 189.212 325.684 189.212 325.206C189.212 324.723 189.115 324.316 188.921 323.984C188.732 323.653 188.441 323.402 188.048 323.232C187.659 323.056 187.169 322.969 186.577 322.969H184.504V335H181.428ZM189.283 328.381L192.898 335H189.504L185.967 328.381H189.283ZM196.79 320.455L200.306 331.506H200.441L203.964 320.455H207.373L202.359 335H198.396L193.374 320.455H196.79ZM212.199 320.455V335H209.124V320.455H212.199ZM227.563 325.547H224.452C224.395 325.144 224.279 324.787 224.104 324.474C223.929 324.157 223.704 323.887 223.429 323.665C223.155 323.442 222.837 323.272 222.478 323.153C222.123 323.035 221.737 322.976 221.32 322.976C220.567 322.976 219.911 323.163 219.353 323.537C218.794 323.906 218.361 324.446 218.053 325.156C217.745 325.862 217.591 326.719 217.591 327.727C217.591 328.764 217.745 329.635 218.053 330.341C218.365 331.046 218.801 331.579 219.36 331.939C219.918 332.299 220.565 332.479 221.299 332.479C221.711 332.479 222.092 332.424 222.442 332.315C222.797 332.206 223.112 332.048 223.387 331.839C223.661 331.626 223.889 331.368 224.069 331.065C224.253 330.762 224.381 330.417 224.452 330.028L227.563 330.043C227.482 330.71 227.281 331.354 226.959 331.974C226.642 332.59 226.213 333.142 225.674 333.629C225.139 334.112 224.499 334.496 223.756 334.78C223.017 335.059 222.182 335.199 221.249 335.199C219.952 335.199 218.792 334.905 217.769 334.318C216.751 333.731 215.946 332.881 215.354 331.768C214.767 330.656 214.473 329.309 214.473 327.727C214.473 326.141 214.772 324.792 215.368 323.679C215.965 322.566 216.775 321.719 217.797 321.136C218.82 320.549 219.971 320.256 221.249 320.256C222.092 320.256 222.873 320.374 223.593 320.611C224.317 320.848 224.959 321.193 225.517 321.648C226.076 322.098 226.531 322.649 226.881 323.303C227.236 323.956 227.463 324.704 227.563 325.547ZM229.768 335V320.455H239.569V322.99H232.843V326.456H239.065V328.991H232.843V332.464H239.598V335H229.768Z" fill="#F46222"/>
<path d="M73.3494 348.181V343.364H96.0469V348.181H87.5859V371H81.8104V348.181H73.3494ZM97.5245 371V350.273H103.098V353.889H103.314C103.691 352.603 104.326 351.631 105.216 350.974C106.107 350.309 107.132 349.976 108.293 349.976C108.581 349.976 108.891 349.994 109.224 350.03C109.557 350.066 109.849 350.115 110.101 350.178V355.279C109.831 355.198 109.458 355.126 108.981 355.063C108.504 355 108.068 354.969 107.672 354.969C106.827 354.969 106.071 355.153 105.405 355.522C104.748 355.882 104.227 356.386 103.84 357.033C103.462 357.681 103.273 358.428 103.273 359.273V371H97.5245ZM113.073 371V350.273H118.822V371H113.073ZM115.961 347.601C115.106 347.601 114.373 347.317 113.762 346.751C113.159 346.175 112.857 345.487 112.857 344.686C112.857 343.894 113.159 343.215 113.762 342.648C114.373 342.073 115.106 341.785 115.961 341.785C116.816 341.785 117.544 342.073 118.147 342.648C118.759 343.215 119.065 343.894 119.065 344.686C119.065 345.487 118.759 346.175 118.147 346.751C117.544 347.317 116.816 347.601 115.961 347.601ZM123.427 378.773V350.273H129.094V353.754H129.351C129.603 353.196 129.967 352.63 130.444 352.054C130.93 351.469 131.559 350.983 132.333 350.597C133.116 350.201 134.087 350.003 135.248 350.003C136.759 350.003 138.154 350.399 139.431 351.19C140.709 351.973 141.73 353.156 142.494 354.739C143.259 356.314 143.641 358.288 143.641 360.663C143.641 362.975 143.268 364.928 142.521 366.52C141.784 368.103 140.776 369.304 139.499 370.123C138.23 370.933 136.809 371.337 135.234 371.337C134.119 371.337 133.17 371.153 132.387 370.784C131.613 370.415 130.979 369.952 130.484 369.394C129.99 368.827 129.612 368.256 129.351 367.68H129.175V378.773H123.427ZM129.054 360.636C129.054 361.869 129.225 362.944 129.567 363.862C129.909 364.779 130.403 365.494 131.051 366.007C131.699 366.511 132.486 366.763 133.413 366.763C134.348 366.763 135.14 366.506 135.788 365.994C136.435 365.472 136.926 364.752 137.259 363.835C137.6 362.908 137.771 361.842 137.771 360.636C137.771 359.44 137.605 358.387 137.272 357.479C136.939 356.57 136.449 355.859 135.801 355.347C135.153 354.834 134.357 354.577 133.413 354.577C132.477 354.577 131.685 354.825 131.038 355.32C130.399 355.814 129.909 356.516 129.567 357.425C129.225 358.333 129.054 359.404 129.054 360.636ZM145.008 348.181V343.364H167.705V348.181H159.244V371H153.469V348.181H145.008ZM174.425 371.391C173.103 371.391 171.924 371.162 170.89 370.703C169.855 370.235 169.037 369.547 168.434 368.638C167.84 367.721 167.543 366.578 167.543 365.211C167.543 364.059 167.755 363.092 168.177 362.31C168.6 361.527 169.176 360.897 169.905 360.42C170.633 359.944 171.461 359.584 172.388 359.341C173.323 359.098 174.304 358.927 175.329 358.828C176.535 358.702 177.506 358.585 178.244 358.477C178.982 358.36 179.517 358.189 179.85 357.964C180.183 357.74 180.349 357.407 180.349 356.966V356.885C180.349 356.03 180.079 355.369 179.54 354.901C179.009 354.433 178.253 354.2 177.273 354.2C176.238 354.2 175.415 354.429 174.803 354.888C174.191 355.338 173.787 355.904 173.589 356.588L168.272 356.156C168.542 354.897 169.073 353.808 169.864 352.891C170.656 351.964 171.677 351.253 172.927 350.759C174.187 350.255 175.644 350.003 177.3 350.003C178.451 350.003 179.553 350.138 180.606 350.408C181.667 350.678 182.607 351.096 183.426 351.663C184.254 352.229 184.906 352.958 185.383 353.849C185.859 354.73 186.098 355.787 186.098 357.02V371H180.646V368.126H180.484C180.151 368.773 179.706 369.345 179.148 369.839C178.59 370.325 177.92 370.708 177.138 370.987C176.355 371.256 175.451 371.391 174.425 371.391ZM176.072 367.424C176.917 367.424 177.664 367.258 178.312 366.925C178.959 366.583 179.468 366.124 179.836 365.548C180.205 364.973 180.39 364.32 180.39 363.592V361.392C180.21 361.509 179.962 361.617 179.648 361.716C179.342 361.806 178.995 361.891 178.608 361.972C178.222 362.044 177.835 362.112 177.448 362.175C177.061 362.229 176.71 362.278 176.395 362.323C175.721 362.422 175.131 362.58 174.628 362.795C174.124 363.011 173.733 363.304 173.454 363.673C173.175 364.032 173.035 364.482 173.035 365.022C173.035 365.805 173.319 366.403 173.885 366.817C174.461 367.222 175.19 367.424 176.072 367.424ZM196.306 343.364V371H190.558V343.364H196.306ZM206.12 365.036L206.134 358.14H206.97L213.609 350.273H220.208L211.288 360.69H209.925L206.12 365.036ZM200.911 371V343.364H206.66V371H200.911ZM213.866 371L207.766 361.972L211.599 357.911L220.599 371H213.866Z" fill="white"/>
</g>
<defs>
<linearGradient id="paint0_linear_5_9" x1="0" y1="0" x2="475.22" y2="731.107" gradientUnits="userSpaceOnUse">
<stop stop-color="#0F172A"/>
<stop offset="1" stop-color="#373D15"/>
</linearGradient>
<clipPath id="clip0_5_9">
<rect width="800" height="520" fill="white"/>
</clipPath>
</defs>
</svg>
