<svg width="800" height="520" viewBox="0 0 800 520" fill="none" xmlns="http://www.w3.org/2000/svg">
<g clip-path="url(#clip0_5_72)">
<path d="M800 0H0V520H800V0Z" fill="url(#paint0_linear_5_72)"/>
<path d="M172 148H92C80.9543 148 72 156.954 72 168V248C72 259.046 80.9543 268 92 268H172C183.046 268 192 259.046 192 248V168C192 156.954 183.046 148 172 148Z" stroke="#1F9725" stroke-opacity="0.85" stroke-width="2"/>
<path d="M104.052 188.455H111.285L118.25 201.609H118.549L125.514 188.455H132.748L121.606 208.202V219H115.193V208.202L104.052 188.455ZM136.275 219V188.455H148.326C150.643 188.455 152.617 188.897 154.247 189.782C155.878 190.657 157.121 191.875 157.976 193.436C158.841 194.987 159.274 196.777 159.274 198.805C159.274 200.834 158.836 202.624 157.961 204.175C157.086 205.726 155.818 206.934 154.158 207.799C152.507 208.664 150.509 209.097 148.162 209.097H140.481V203.921H147.118C148.361 203.921 149.385 203.707 150.19 203.28C151.006 202.842 151.612 202.241 152.01 201.475C152.418 200.7 152.622 199.81 152.622 198.805C152.622 197.791 152.418 196.906 152.01 196.151C151.612 195.385 151.006 194.793 150.19 194.376C149.375 193.948 148.341 193.734 147.088 193.734H142.733V219H136.275Z" fill="#1F9725"/>
<path d="M81.1548 324.638C81.098 324.065 80.8542 323.62 80.4233 323.303C79.9924 322.985 79.4077 322.827 78.669 322.827C78.1671 322.827 77.7434 322.898 77.3977 323.04C77.0521 323.177 76.7869 323.369 76.6023 323.615C76.4223 323.861 76.3324 324.141 76.3324 324.453C76.3229 324.714 76.3774 324.941 76.4957 325.135C76.6188 325.329 76.7869 325.497 77 325.639C77.2131 325.777 77.4593 325.897 77.7386 326.001C78.018 326.101 78.3163 326.186 78.6335 326.257L79.9403 326.57C80.5748 326.712 81.1572 326.901 81.6875 327.138C82.2178 327.375 82.6771 327.666 83.0653 328.011C83.4536 328.357 83.7543 328.764 83.9673 329.233C84.1851 329.702 84.2964 330.239 84.3011 330.845C84.2964 331.735 84.0691 332.507 83.6193 333.161C83.1742 333.809 82.5303 334.313 81.6875 334.673C80.8494 335.028 79.8385 335.206 78.6548 335.206C77.4806 335.206 76.4579 335.026 75.5866 334.666C74.7202 334.306 74.0431 333.774 73.5554 333.068C73.0724 332.358 72.8191 331.48 72.7955 330.433H75.7713C75.8045 330.921 75.9441 331.328 76.1903 331.655C76.4413 331.977 76.7751 332.221 77.1918 332.386C77.6132 332.547 78.089 332.628 78.6193 332.628C79.1402 332.628 79.5923 332.552 79.9759 332.401C80.3641 332.249 80.6648 332.038 80.8778 331.768C81.0909 331.499 81.1974 331.188 81.1974 330.838C81.1974 330.511 81.1004 330.237 80.9062 330.014C80.7169 329.792 80.4375 329.602 80.0682 329.446C79.7036 329.29 79.2562 329.148 78.7259 329.02L77.142 328.622C75.9157 328.324 74.9474 327.857 74.2372 327.223C73.527 326.589 73.1742 325.734 73.179 324.659C73.1742 323.778 73.4086 323.009 73.8821 322.351C74.3603 321.693 75.0161 321.179 75.8494 320.81C76.6828 320.44 77.6297 320.256 78.6903 320.256C79.7699 320.256 80.7121 320.44 81.517 320.81C82.3267 321.179 82.9564 321.693 83.4062 322.351C83.8561 323.009 84.0881 323.771 84.1023 324.638H81.1548ZM86.3697 335V320.455H96.1708V322.99H89.445V326.456H95.6665V328.991H89.445V332.464H96.1992V335H86.3697ZM98.6158 335V320.455H104.354C105.453 320.455 106.39 320.651 107.167 321.044C107.948 321.432 108.542 321.984 108.95 322.699C109.362 323.409 109.567 324.245 109.567 325.206C109.567 326.172 109.359 327.003 108.942 327.699C108.526 328.39 107.922 328.92 107.131 329.29C106.345 329.659 105.394 329.844 104.276 329.844H100.434V327.372H103.779C104.366 327.372 104.854 327.292 105.242 327.131C105.63 326.97 105.919 326.728 106.109 326.406C106.303 326.084 106.4 325.684 106.4 325.206C106.4 324.723 106.303 324.316 106.109 323.984C105.919 323.653 105.628 323.402 105.235 323.232C104.847 323.056 104.357 322.969 103.765 322.969H101.691V335H98.6158ZM106.471 328.381L110.086 335H106.691L103.154 328.381H106.471ZM113.978 320.455L117.494 331.506H117.629L121.151 320.455H124.56L119.546 335H115.583L110.562 320.455H113.978ZM129.386 320.455V335H126.311V320.455H129.386ZM144.75 325.547H141.64C141.583 325.144 141.467 324.787 141.292 324.474C141.116 324.157 140.891 323.887 140.617 323.665C140.342 323.442 140.025 323.272 139.665 323.153C139.31 323.035 138.924 322.976 138.507 322.976C137.755 322.976 137.099 323.163 136.54 323.537C135.981 323.906 135.548 324.446 135.24 325.156C134.933 325.862 134.779 326.719 134.779 327.727C134.779 328.764 134.933 329.635 135.24 330.341C135.553 331.046 135.989 331.579 136.547 331.939C137.106 332.299 137.752 332.479 138.486 332.479C138.898 332.479 139.279 332.424 139.63 332.315C139.985 332.206 140.3 332.048 140.574 331.839C140.849 331.626 141.076 331.368 141.256 331.065C141.441 330.762 141.569 330.417 141.64 330.028L144.75 330.043C144.67 330.71 144.469 331.354 144.147 331.974C143.829 332.59 143.401 333.142 142.861 333.629C142.326 334.112 141.687 334.496 140.944 334.78C140.205 335.059 139.369 335.199 138.436 335.199C137.139 335.199 135.979 334.905 134.956 334.318C133.938 333.731 133.133 332.881 132.542 331.768C131.954 330.656 131.661 329.309 131.661 327.727C131.661 326.141 131.959 324.792 132.556 323.679C133.152 322.566 133.962 321.719 134.985 321.136C136.007 320.549 137.158 320.256 138.436 320.256C139.279 320.256 140.06 320.374 140.78 320.611C141.505 320.848 142.146 321.193 142.705 321.648C143.264 322.098 143.718 322.649 144.069 323.303C144.424 323.956 144.651 324.704 144.75 325.547ZM146.956 335V320.455H156.757V322.99H150.031V326.456H156.252V328.991H150.031V332.464H156.785V335H146.956ZM163.831 335V320.455H169.569C170.672 320.455 171.612 320.665 172.389 321.087C173.165 321.503 173.757 322.083 174.164 322.827C174.576 323.565 174.782 324.418 174.782 325.384C174.782 326.349 174.574 327.202 174.157 327.94C173.741 328.679 173.137 329.254 172.346 329.666C171.56 330.078 170.609 330.284 169.491 330.284H165.833V327.82H168.994C169.586 327.82 170.074 327.718 170.457 327.514C170.845 327.306 171.134 327.019 171.324 326.655C171.518 326.286 171.615 325.862 171.615 325.384C171.615 324.901 171.518 324.479 171.324 324.119C171.134 323.755 170.845 323.473 170.457 323.274C170.069 323.071 169.576 322.969 168.98 322.969H166.906V335H163.831ZM176.78 335V320.455H179.855V332.464H186.091V335H176.78ZM191.006 335H187.71L192.732 320.455H196.695L201.709 335H198.413L194.77 323.778H194.656L191.006 335ZM190.8 329.283H198.584V331.683H190.8V329.283ZM201.128 322.99V320.455H213.074V322.99H208.621V335H205.581V322.99H201.128ZM215.042 335V320.455H224.672V322.99H218.117V326.456H224.033V328.991H218.117V335H215.042ZM240.107 327.727C240.107 329.313 239.807 330.663 239.205 331.776C238.609 332.888 237.794 333.738 236.762 334.325C235.735 334.908 234.579 335.199 233.296 335.199C232.004 335.199 230.844 334.905 229.816 334.318C228.789 333.731 227.977 332.881 227.38 331.768C226.783 330.656 226.485 329.309 226.485 327.727C226.485 326.141 226.783 324.792 227.38 323.679C227.977 322.566 228.789 321.719 229.816 321.136C230.844 320.549 232.004 320.256 233.296 320.256C234.579 320.256 235.735 320.549 236.762 321.136C237.794 321.719 238.609 322.566 239.205 323.679C239.807 324.792 240.107 326.141 240.107 327.727ZM236.989 327.727C236.989 326.7 236.835 325.833 236.528 325.128C236.225 324.422 235.796 323.887 235.242 323.523C234.688 323.158 234.04 322.976 233.296 322.976C232.553 322.976 231.904 323.158 231.35 323.523C230.796 323.887 230.365 324.422 230.058 325.128C229.754 325.833 229.603 326.7 229.603 327.727C229.603 328.755 229.754 329.621 230.058 330.327C230.365 331.032 230.796 331.567 231.35 331.932C231.904 332.296 232.553 332.479 233.296 332.479C234.04 332.479 234.688 332.296 235.242 331.932C235.796 331.567 236.225 331.032 236.528 330.327C236.835 329.621 236.989 328.755 236.989 327.727ZM242.385 335V320.455H248.124C249.222 320.455 250.16 320.651 250.936 321.044C251.718 321.432 252.312 321.984 252.719 322.699C253.131 323.409 253.337 324.245 253.337 325.206C253.337 326.172 253.129 327.003 252.712 327.699C252.295 328.39 251.692 328.92 250.901 329.29C250.115 329.659 249.163 329.844 248.046 329.844H244.203V327.372H247.549C248.136 327.372 248.623 327.292 249.012 327.131C249.4 326.97 249.689 326.728 249.878 326.406C250.072 326.084 250.169 325.684 250.169 325.206C250.169 324.723 250.072 324.316 249.878 323.984C249.689 323.653 249.398 323.402 249.005 323.232C248.616 323.056 248.126 322.969 247.534 322.969H245.461V335H242.385ZM250.24 328.381L253.855 335H250.461L246.924 328.381H250.24ZM255.51 320.455H259.303L263.309 330.227H263.479L267.485 320.455H271.277V335H268.294V325.533H268.174L264.409 334.929H262.378L258.614 325.497H258.493V335H255.51V320.455Z" fill="#1F9725"/>
<path d="M72.7827 343.364H79.3274L85.6293 355.266H85.8991L92.201 343.364H98.7457L88.6655 361.23V371H82.8629V361.23L72.7827 343.364ZM101.937 371V343.364H112.841C114.937 343.364 116.722 343.764 118.198 344.565C119.673 345.356 120.798 346.458 121.571 347.871C122.354 349.274 122.745 350.893 122.745 352.729C122.745 354.564 122.35 356.183 121.558 357.587C120.766 358.99 119.619 360.083 118.117 360.866C116.623 361.648 114.815 362.04 112.692 362.04H105.743V357.357H111.748C112.872 357.357 113.799 357.164 114.527 356.777C115.265 356.381 115.814 355.837 116.174 355.144C116.542 354.442 116.727 353.637 116.727 352.729C116.727 351.811 116.542 351.01 116.174 350.327C115.814 349.634 115.265 349.099 114.527 348.721C113.79 348.334 112.854 348.141 111.721 348.141H107.78V371H101.937ZM141.533 351.312C141.425 350.223 140.962 349.378 140.143 348.775C139.324 348.172 138.213 347.871 136.81 347.871C135.856 347.871 135.051 348.006 134.394 348.276C133.738 348.536 133.234 348.901 132.883 349.369C132.541 349.836 132.37 350.367 132.37 350.961C132.352 351.456 132.456 351.888 132.681 352.256C132.914 352.625 133.234 352.945 133.639 353.214C134.044 353.475 134.511 353.705 135.042 353.903C135.573 354.092 136.14 354.254 136.742 354.388L139.225 354.982C140.431 355.252 141.537 355.612 142.545 356.062C143.552 356.512 144.425 357.065 145.163 357.722C145.901 358.378 146.472 359.152 146.877 360.043C147.29 360.933 147.502 361.954 147.511 363.106C147.502 364.797 147.07 366.263 146.215 367.505C145.37 368.737 144.146 369.696 142.545 370.379C140.953 371.054 139.032 371.391 136.783 371.391C134.552 371.391 132.609 371.049 130.953 370.366C129.307 369.682 128.021 368.67 127.094 367.33C126.176 365.98 125.695 364.311 125.65 362.323H131.304C131.367 363.25 131.633 364.023 132.1 364.644C132.577 365.256 133.211 365.719 134.003 366.034C134.804 366.34 135.708 366.493 136.715 366.493C137.705 366.493 138.564 366.349 139.293 366.061C140.03 365.773 140.602 365.373 141.007 364.86C141.411 364.347 141.614 363.758 141.614 363.092C141.614 362.472 141.429 361.95 141.061 361.527C140.701 361.104 140.17 360.744 139.468 360.447C138.776 360.151 137.925 359.881 136.918 359.638L133.909 358.882C131.579 358.315 129.739 357.429 128.389 356.224C127.04 355.018 126.37 353.394 126.379 351.352C126.37 349.679 126.815 348.217 127.715 346.967C128.623 345.716 129.869 344.74 131.453 344.038C133.036 343.337 134.835 342.986 136.85 342.986C138.901 342.986 140.692 343.337 142.221 344.038C143.759 344.74 144.956 345.716 145.811 346.967C146.665 348.217 147.106 349.665 147.133 351.312H141.533ZM157.284 343.364V371H151.441V343.364H157.284ZM162.091 371V343.364H167.934V366.183H179.782V371H162.091ZM207.972 357.182C207.972 360.196 207.401 362.759 206.258 364.874C205.125 366.988 203.577 368.603 201.616 369.718C199.664 370.825 197.469 371.378 195.031 371.378C192.575 371.378 190.371 370.82 188.419 369.705C186.467 368.589 184.924 366.974 183.79 364.86C182.657 362.746 182.09 360.187 182.09 357.182C182.09 354.168 182.657 351.604 183.79 349.49C184.924 347.376 186.467 345.766 188.419 344.659C190.371 343.544 192.575 342.986 195.031 342.986C197.469 342.986 199.664 343.544 201.616 344.659C203.577 345.766 205.125 347.376 206.258 349.49C207.401 351.604 207.972 354.168 207.972 357.182ZM202.048 357.182C202.048 355.23 201.756 353.583 201.171 352.243C200.595 350.902 199.781 349.886 198.729 349.193C197.676 348.5 196.443 348.154 195.031 348.154C193.619 348.154 192.386 348.5 191.334 349.193C190.281 349.886 189.462 350.902 188.878 352.243C188.302 353.583 188.014 355.23 188.014 357.182C188.014 359.134 188.302 360.78 188.878 362.121C189.462 363.461 190.281 364.478 191.334 365.17C192.386 365.863 193.619 366.21 195.031 366.21C196.443 366.21 197.676 365.863 198.729 365.17C199.781 364.478 200.595 363.461 201.171 362.121C201.756 360.78 202.048 359.134 202.048 357.182ZM235.416 343.364V371H230.369L218.346 353.606H218.143V371H212.3V343.364H217.428L229.357 360.744H229.6V343.364H235.416Z" fill="white"/>
</g>
<defs>
<linearGradient id="paint0_linear_5_72" x1="0" y1="0" x2="475.22" y2="731.107" gradientUnits="userSpaceOnUse">
<stop stop-color="#0F172A"/>
<stop offset="1" stop-color="#183D29"/>
</linearGradient>
<clipPath id="clip0_5_72">
<rect width="800" height="520" fill="white"/>
</clipPath>
</defs>
</svg>
